<svg width="23" height="18" viewBox="0 0 23 18" fill="none" xmlns="http://www.w3.org/2000/svg">
<path d="M1.11463 0H21.178C21.4737 0 21.7572 0.105357 21.9662 0.292893C22.1752 0.48043 22.2927 0.734784 22.2927 1V17C22.2927 17.2652 22.1752 17.5196 21.9662 17.7071C21.7572 17.8946 21.4737 18 21.178 18H1.11463C0.819015 18 0.535503 17.8946 0.326469 17.7071C0.117434 17.5196 0 17.2652 0 17V1C0 0.734784 0.117434 0.48043 0.326469 0.292893C0.535503 0.105357 0.819015 0 1.11463 0ZM20.0634 4.238L11.2266 11.338L2.22927 4.216V16H20.0634V4.238ZM2.79885 2L11.2143 8.662L19.5083 2H2.79885Z" fill="white"/>
</svg>
