<svg width="177" height="48" viewBox="0 0 177 48" fill="none" xmlns="http://www.w3.org/2000/svg">
<g filter="url(#filter0_d_17_8)">
<mask id="path-1-outside-1_17_8" maskUnits="userSpaceOnUse" x="2" y="10" width="161" height="28" fill="black">
<rect fill="white" x="2" y="10" width="161" height="28"/>
<path d="M28.696 16.824C31 16.824 32.7813 17.5173 34.04 18.904C35.32 20.2907 35.96 22.168 35.96 24.536V35H28.888V25.432C28.888 24.664 28.6533 24.0667 28.184 23.64C27.736 23.192 27.128 22.968 26.36 22.968C25.5707 22.968 24.952 23.192 24.504 23.64C24.056 24.0667 23.832 24.664 23.832 25.432V35H16.76V25.432C16.76 24.664 16.5253 24.0667 16.056 23.64C15.608 23.192 15 22.968 14.232 22.968C13.4427 22.968 12.824 23.192 12.376 23.64C11.928 24.0667 11.704 24.664 11.704 25.432V35H4.6V16.952H11.704V19.384C12.216 18.616 12.9093 17.9973 13.784 17.528C14.68 17.0587 15.7253 16.824 16.92 16.824C18.2213 16.824 19.3733 17.112 20.376 17.688C21.3787 18.2427 22.1787 19.032 22.776 20.056C23.4373 19.1173 24.28 18.3493 25.304 17.752C26.328 17.1333 27.4587 16.824 28.696 16.824ZM56.5095 25.816C56.5095 26.3067 56.4775 26.776 56.4135 27.224H44.9895C45.0962 28.7813 45.7468 29.56 46.9415 29.56C47.7095 29.56 48.2642 29.208 48.6055 28.504H56.1255C55.8695 29.784 55.3255 30.936 54.4935 31.96C53.6828 32.9627 52.6482 33.7627 51.3895 34.36C50.1522 34.936 48.7868 35.224 47.2935 35.224C45.5015 35.224 43.9015 34.8507 42.4935 34.104C41.1068 33.3573 40.0188 32.2907 39.2295 30.904C38.4615 29.496 38.0775 27.8533 38.0775 25.976C38.0775 24.0987 38.4615 22.4667 39.2295 21.08C40.0188 19.672 41.1068 18.5947 42.4935 17.848C43.9015 17.1013 45.5015 16.728 47.2935 16.728C49.0855 16.728 50.6748 17.1013 52.0615 17.848C53.4695 18.5733 54.5575 19.6187 55.3255 20.984C56.1148 22.3493 56.5095 23.96 56.5095 25.816ZM49.3095 24.12C49.3095 23.5227 49.1175 23.0747 48.7335 22.776C48.3495 22.456 47.8695 22.296 47.2935 22.296C46.0348 22.296 45.2988 22.904 45.0855 24.12H49.3095ZM65.8603 20.28C66.5856 19.2347 67.4709 18.4027 68.5163 17.784C69.5616 17.144 70.6496 16.824 71.7803 16.824V24.408H69.7643C68.4203 24.408 67.4283 24.6427 66.7883 25.112C66.1696 25.5813 65.8603 26.4133 65.8603 27.608V35H58.7563V16.952H65.8603V20.28ZM72.7338 25.976C72.7338 24.0987 73.1178 22.4667 73.8858 21.08C74.6751 19.672 75.7631 18.5947 77.1498 17.848C78.5578 17.1013 80.1578 16.728 81.9498 16.728C84.2964 16.728 86.2698 17.3893 87.8698 18.712C89.4911 20.0347 90.5151 21.8693 90.9418 24.216H83.4218C83.1444 23.2773 82.6004 22.808 81.7898 22.808C81.2138 22.808 80.7551 23.0747 80.4138 23.608C80.0938 24.1413 79.9338 24.9307 79.9338 25.976C79.9338 27.0213 80.0938 27.8107 80.4138 28.344C80.7551 28.8773 81.2138 29.144 81.7898 29.144C82.6004 29.144 83.1444 28.6747 83.4218 27.736H90.9418C90.5151 30.0827 89.4911 31.9173 87.8698 33.24C86.2698 34.5627 84.2964 35.224 81.9498 35.224C80.1578 35.224 78.5578 34.8507 77.1498 34.104C75.7631 33.3573 74.6751 32.2907 73.8858 30.904C73.1178 29.496 72.7338 27.8533 72.7338 25.976ZM92.2338 25.976C92.2338 24.0773 92.5538 22.4347 93.1938 21.048C93.8551 19.64 94.7511 18.5733 95.8818 17.848C97.0124 17.1013 98.2818 16.728 99.6898 16.728C100.863 16.728 101.876 16.9733 102.73 17.464C103.583 17.9333 104.234 18.584 104.682 19.416V16.952H111.754V35H104.682V32.536C104.234 33.368 103.583 34.0293 102.73 34.52C101.876 34.9893 100.863 35.224 99.6898 35.224C98.2818 35.224 97.0124 34.8613 95.8818 34.136C94.7511 33.3893 93.8551 32.3227 93.1938 30.936C92.5538 29.528 92.2338 27.8747 92.2338 25.976ZM104.682 25.976C104.682 25.016 104.436 24.2693 103.946 23.736C103.455 23.2027 102.826 22.936 102.058 22.936C101.29 22.936 100.66 23.2027 100.17 23.736C99.6791 24.2693 99.4338 25.016 99.4338 25.976C99.4338 26.936 99.6791 27.6827 100.17 28.216C100.66 28.7493 101.29 29.016 102.058 29.016C102.826 29.016 103.455 28.7493 103.946 28.216C104.436 27.6827 104.682 26.936 104.682 25.976ZM126.176 28.952V35H123.488C118.538 35 116.064 32.536 116.064 27.608V22.872H113.824V16.952H116.064V12.6H123.168V16.952H126.112V22.872H123.168V27.736C123.168 28.1627 123.264 28.472 123.456 28.664C123.669 28.856 124.01 28.952 124.48 28.952H126.176ZM140.113 28.952V35H137.425C132.476 35 130.001 32.536 130.001 27.608V22.872H127.761V16.952H130.001V12.6H137.105V16.952H140.049V22.872H137.105V27.736C137.105 28.1627 137.201 28.472 137.393 28.664C137.607 28.856 137.948 28.952 138.417 28.952H140.113ZM151.395 35.224C149.581 35.224 147.949 34.8507 146.499 34.104C145.048 33.3573 143.907 32.2907 143.075 30.904C142.264 29.496 141.859 27.8533 141.859 25.976C141.859 24.0987 142.264 22.4667 143.075 21.08C143.907 19.672 145.048 18.5947 146.499 17.848C147.949 17.1013 149.581 16.728 151.395 16.728C153.208 16.728 154.84 17.1013 156.291 17.848C157.741 18.5947 158.872 19.672 159.683 21.08C160.515 22.4667 160.931 24.0987 160.931 25.976C160.931 27.8533 160.515 29.496 159.683 30.904C158.872 32.2907 157.741 33.3573 156.291 34.104C154.84 34.8507 153.208 35.224 151.395 35.224ZM151.395 29.08C152.056 29.08 152.611 28.824 153.059 28.312C153.507 27.7787 153.731 27 153.731 25.976C153.731 24.952 153.507 24.184 153.059 23.672C152.611 23.1387 152.056 22.872 151.395 22.872C150.733 22.872 150.179 23.1387 149.731 23.672C149.283 24.184 149.059 24.952 149.059 25.976C149.059 27 149.272 27.7787 149.699 28.312C150.147 28.824 150.712 29.08 151.395 29.08Z"/>
</mask>
<path d="M28.696 16.824C31 16.824 32.7813 17.5173 34.04 18.904C35.32 20.2907 35.96 22.168 35.96 24.536V35H28.888V25.432C28.888 24.664 28.6533 24.0667 28.184 23.64C27.736 23.192 27.128 22.968 26.36 22.968C25.5707 22.968 24.952 23.192 24.504 23.64C24.056 24.0667 23.832 24.664 23.832 25.432V35H16.76V25.432C16.76 24.664 16.5253 24.0667 16.056 23.64C15.608 23.192 15 22.968 14.232 22.968C13.4427 22.968 12.824 23.192 12.376 23.64C11.928 24.0667 11.704 24.664 11.704 25.432V35H4.6V16.952H11.704V19.384C12.216 18.616 12.9093 17.9973 13.784 17.528C14.68 17.0587 15.7253 16.824 16.92 16.824C18.2213 16.824 19.3733 17.112 20.376 17.688C21.3787 18.2427 22.1787 19.032 22.776 20.056C23.4373 19.1173 24.28 18.3493 25.304 17.752C26.328 17.1333 27.4587 16.824 28.696 16.824ZM56.5095 25.816C56.5095 26.3067 56.4775 26.776 56.4135 27.224H44.9895C45.0962 28.7813 45.7468 29.56 46.9415 29.56C47.7095 29.56 48.2642 29.208 48.6055 28.504H56.1255C55.8695 29.784 55.3255 30.936 54.4935 31.96C53.6828 32.9627 52.6482 33.7627 51.3895 34.36C50.1522 34.936 48.7868 35.224 47.2935 35.224C45.5015 35.224 43.9015 34.8507 42.4935 34.104C41.1068 33.3573 40.0188 32.2907 39.2295 30.904C38.4615 29.496 38.0775 27.8533 38.0775 25.976C38.0775 24.0987 38.4615 22.4667 39.2295 21.08C40.0188 19.672 41.1068 18.5947 42.4935 17.848C43.9015 17.1013 45.5015 16.728 47.2935 16.728C49.0855 16.728 50.6748 17.1013 52.0615 17.848C53.4695 18.5733 54.5575 19.6187 55.3255 20.984C56.1148 22.3493 56.5095 23.96 56.5095 25.816ZM49.3095 24.12C49.3095 23.5227 49.1175 23.0747 48.7335 22.776C48.3495 22.456 47.8695 22.296 47.2935 22.296C46.0348 22.296 45.2988 22.904 45.0855 24.12H49.3095ZM65.8603 20.28C66.5856 19.2347 67.4709 18.4027 68.5163 17.784C69.5616 17.144 70.6496 16.824 71.7803 16.824V24.408H69.7643C68.4203 24.408 67.4283 24.6427 66.7883 25.112C66.1696 25.5813 65.8603 26.4133 65.8603 27.608V35H58.7563V16.952H65.8603V20.28ZM72.7338 25.976C72.7338 24.0987 73.1178 22.4667 73.8858 21.08C74.6751 19.672 75.7631 18.5947 77.1498 17.848C78.5578 17.1013 80.1578 16.728 81.9498 16.728C84.2964 16.728 86.2698 17.3893 87.8698 18.712C89.4911 20.0347 90.5151 21.8693 90.9418 24.216H83.4218C83.1444 23.2773 82.6004 22.808 81.7898 22.808C81.2138 22.808 80.7551 23.0747 80.4138 23.608C80.0938 24.1413 79.9338 24.9307 79.9338 25.976C79.9338 27.0213 80.0938 27.8107 80.4138 28.344C80.7551 28.8773 81.2138 29.144 81.7898 29.144C82.6004 29.144 83.1444 28.6747 83.4218 27.736H90.9418C90.5151 30.0827 89.4911 31.9173 87.8698 33.24C86.2698 34.5627 84.2964 35.224 81.9498 35.224C80.1578 35.224 78.5578 34.8507 77.1498 34.104C75.7631 33.3573 74.6751 32.2907 73.8858 30.904C73.1178 29.496 72.7338 27.8533 72.7338 25.976ZM92.2338 25.976C92.2338 24.0773 92.5538 22.4347 93.1938 21.048C93.8551 19.64 94.7511 18.5733 95.8818 17.848C97.0124 17.1013 98.2818 16.728 99.6898 16.728C100.863 16.728 101.876 16.9733 102.73 17.464C103.583 17.9333 104.234 18.584 104.682 19.416V16.952H111.754V35H104.682V32.536C104.234 33.368 103.583 34.0293 102.73 34.52C101.876 34.9893 100.863 35.224 99.6898 35.224C98.2818 35.224 97.0124 34.8613 95.8818 34.136C94.7511 33.3893 93.8551 32.3227 93.1938 30.936C92.5538 29.528 92.2338 27.8747 92.2338 25.976ZM104.682 25.976C104.682 25.016 104.436 24.2693 103.946 23.736C103.455 23.2027 102.826 22.936 102.058 22.936C101.29 22.936 100.66 23.2027 100.17 23.736C99.6791 24.2693 99.4338 25.016 99.4338 25.976C99.4338 26.936 99.6791 27.6827 100.17 28.216C100.66 28.7493 101.29 29.016 102.058 29.016C102.826 29.016 103.455 28.7493 103.946 28.216C104.436 27.6827 104.682 26.936 104.682 25.976ZM126.176 28.952V35H123.488C118.538 35 116.064 32.536 116.064 27.608V22.872H113.824V16.952H116.064V12.6H123.168V16.952H126.112V22.872H123.168V27.736C123.168 28.1627 123.264 28.472 123.456 28.664C123.669 28.856 124.01 28.952 124.48 28.952H126.176ZM140.113 28.952V35H137.425C132.476 35 130.001 32.536 130.001 27.608V22.872H127.761V16.952H130.001V12.6H137.105V16.952H140.049V22.872H137.105V27.736C137.105 28.1627 137.201 28.472 137.393 28.664C137.607 28.856 137.948 28.952 138.417 28.952H140.113ZM151.395 35.224C149.581 35.224 147.949 34.8507 146.499 34.104C145.048 33.3573 143.907 32.2907 143.075 30.904C142.264 29.496 141.859 27.8533 141.859 25.976C141.859 24.0987 142.264 22.4667 143.075 21.08C143.907 19.672 145.048 18.5947 146.499 17.848C147.949 17.1013 149.581 16.728 151.395 16.728C153.208 16.728 154.84 17.1013 156.291 17.848C157.741 18.5947 158.872 19.672 159.683 21.08C160.515 22.4667 160.931 24.0987 160.931 25.976C160.931 27.8533 160.515 29.496 159.683 30.904C158.872 32.2907 157.741 33.3573 156.291 34.104C154.84 34.8507 153.208 35.224 151.395 35.224ZM151.395 29.08C152.056 29.08 152.611 28.824 153.059 28.312C153.507 27.7787 153.731 27 153.731 25.976C153.731 24.952 153.507 24.184 153.059 23.672C152.611 23.1387 152.056 22.872 151.395 22.872C150.733 22.872 150.179 23.1387 149.731 23.672C149.283 24.184 149.059 24.952 149.059 25.976C149.059 27 149.272 27.7787 149.699 28.312C150.147 28.824 150.712 29.08 151.395 29.08Z" fill="black"/>
<path d="M34.04 18.904L32.5591 20.2482L32.5647 20.2544L32.5704 20.2606L34.04 18.904ZM35.96 35V37H37.96V35H35.96ZM28.888 35H26.888V37H28.888V35ZM28.184 23.64L26.7698 25.0542L26.8034 25.0879L26.8387 25.1199L28.184 23.64ZM24.504 23.64L25.8833 25.0883L25.901 25.0715L25.9182 25.0542L24.504 23.64ZM23.832 35V37H25.832V35H23.832ZM16.76 35H14.76V37H16.76V35ZM16.056 23.64L14.6418 25.0542L14.6754 25.0879L14.7107 25.1199L16.056 23.64ZM12.376 23.64L13.7553 25.0883L13.773 25.0715L13.7902 25.0542L12.376 23.64ZM11.704 35V37H13.704V35H11.704ZM4.6 35H2.6V37H4.6V35ZM4.6 16.952V14.952H2.6V16.952H4.6ZM11.704 16.952H13.704V14.952H11.704V16.952ZM11.704 19.384H9.704V25.9896L13.3681 20.4934L11.704 19.384ZM13.784 17.528L12.856 15.7563L12.8472 15.761L12.8384 15.7657L13.784 17.528ZM20.376 17.688L19.3798 19.4222L19.3938 19.4303L19.4079 19.4381L20.376 17.688ZM22.776 20.056L21.0484 21.0637L22.6175 23.7535L24.411 21.2079L22.776 20.056ZM25.304 17.752L26.3117 19.4796L26.325 19.4718L26.3382 19.4638L25.304 17.752ZM28.696 18.824C30.5761 18.824 31.7644 19.3727 32.5591 20.2482L35.5209 17.5598C33.7982 15.6619 31.4239 14.824 28.696 14.824V18.824ZM32.5704 20.2606C33.4285 21.1902 33.96 22.5373 33.96 24.536H37.96C37.96 21.7987 37.2115 19.3912 35.5096 17.5474L32.5704 20.2606ZM33.96 24.536V35H37.96V24.536H33.96ZM35.96 33H28.888V37H35.96V33ZM30.888 35V25.432H26.888V35H30.888ZM30.888 25.432C30.888 24.2293 30.5022 23.0446 29.5293 22.1601L26.8387 25.1199C26.8433 25.1241 26.8441 25.123 26.8505 25.1393C26.8602 25.1641 26.888 25.2502 26.888 25.432H30.888ZM29.5982 22.2258C28.698 21.3256 27.5384 20.968 26.36 20.968V24.968C26.5508 24.968 26.6548 24.9958 26.7006 25.0127C26.7394 25.027 26.7552 25.0396 26.7698 25.0542L29.5982 22.2258ZM26.36 20.968C25.1781 20.968 24.0003 21.3153 23.0898 22.2258L25.9182 25.0542C25.9269 25.0456 25.9403 25.0327 25.9849 25.0165C26.0372 24.9976 26.1524 24.968 26.36 24.968V20.968ZM23.1247 22.1917C22.1887 23.0832 21.832 24.2576 21.832 25.432H25.832C25.832 25.2403 25.8601 25.1438 25.8727 25.1102C25.8759 25.1017 25.8784 25.0962 25.8799 25.0933C25.8807 25.0918 25.8812 25.0908 25.8816 25.0902C25.8819 25.0896 25.8821 25.0893 25.8821 25.0893C25.8821 25.0893 25.882 25.0894 25.8819 25.0896C25.8817 25.0898 25.8816 25.09 25.8815 25.0901C25.8812 25.0904 25.8817 25.0898 25.8833 25.0883L23.1247 22.1917ZM21.832 25.432V35H25.832V25.432H21.832ZM23.832 33H16.76V37H23.832V33ZM18.76 35V25.432H14.76V35H18.76ZM18.76 25.432C18.76 24.2293 18.3742 23.0446 17.4013 22.1601L14.7107 25.1199C14.7153 25.1241 14.7161 25.123 14.7225 25.1393C14.7322 25.1641 14.76 25.2502 14.76 25.432H18.76ZM17.4702 22.2258C16.57 21.3256 15.4104 20.968 14.232 20.968V24.968C14.4228 24.968 14.5268 24.9958 14.5726 25.0127C14.6114 25.027 14.6272 25.0396 14.6418 25.0542L17.4702 22.2258ZM14.232 20.968C13.0501 20.968 11.8723 21.3153 10.9618 22.2258L13.7902 25.0542C13.7989 25.0456 13.8123 25.0327 13.8569 25.0165C13.9092 24.9976 14.0244 24.968 14.232 24.968V20.968ZM10.9967 22.1917C10.0607 23.0832 9.704 24.2576 9.704 25.432H13.704C13.704 25.2403 13.7321 25.1438 13.7447 25.1102C13.7479 25.1017 13.7504 25.0962 13.7519 25.0933C13.7527 25.0918 13.7532 25.0908 13.7536 25.0902C13.7539 25.0896 13.7541 25.0893 13.7541 25.0893C13.7541 25.0893 13.754 25.0894 13.7539 25.0896C13.7537 25.0898 13.7536 25.09 13.7535 25.0901C13.7532 25.0904 13.7537 25.0898 13.7553 25.0883L10.9967 22.1917ZM9.704 25.432V35H13.704V25.432H9.704ZM11.704 33H4.6V37H11.704V33ZM6.6 35V16.952H2.6V35H6.6ZM4.6 18.952H11.704V14.952H4.6V18.952ZM9.704 16.952V19.384H13.704V16.952H9.704ZM13.3681 20.4934C13.6843 20.0192 14.122 19.6164 14.7296 19.2903L12.8384 15.7657C11.6966 16.3783 10.7477 17.2128 10.0399 18.2746L13.3681 20.4934ZM14.712 19.2997C15.274 19.0053 15.9902 18.824 16.92 18.824V14.824C15.4605 14.824 14.086 15.1121 12.856 15.7563L14.712 19.2997ZM16.92 18.824C17.9164 18.824 18.7168 19.0414 19.3798 19.4222L21.3723 15.9538C20.0299 15.1826 18.5262 14.824 16.92 14.824V18.824ZM19.4079 19.4381C20.0839 19.812 20.6262 20.3398 21.0484 21.0637L24.5036 19.0483C23.7312 17.7242 22.6734 16.6733 21.3441 15.9379L19.4079 19.4381ZM24.411 21.2079C24.9015 20.5116 25.5274 19.9371 26.3117 19.4796L24.2963 16.0244C23.0326 16.7616 21.9731 17.7231 21.141 18.9041L24.411 21.2079ZM26.3382 19.4638C27.0392 19.0403 27.8101 18.824 28.696 18.824V14.824C27.1072 14.824 25.6168 15.2263 24.2698 16.0402L26.3382 19.4638ZM56.4135 27.224V29.224H58.1481L58.3934 27.5068L56.4135 27.224ZM44.9895 27.224V25.224H42.8478L42.9942 27.3607L44.9895 27.224ZM48.6055 28.504V26.504H47.3525L46.8059 27.6315L48.6055 28.504ZM56.1255 28.504L58.0867 28.8962L58.5651 26.504H56.1255V28.504ZM54.4935 31.96L52.9413 30.6988L52.9382 30.7026L54.4935 31.96ZM51.3895 34.36L52.2336 36.1732L52.2403 36.17L52.247 36.1669L51.3895 34.36ZM42.4935 34.104L41.5453 35.865L41.5565 35.8709L42.4935 34.104ZM39.2295 30.904L37.4737 31.8617L37.4824 31.8776L37.4914 31.8934L39.2295 30.904ZM39.2295 21.08L37.4849 20.102L37.4799 20.111L39.2295 21.08ZM42.4935 17.848L41.5565 16.081L41.5453 16.0871L42.4935 17.848ZM52.0615 17.848L51.1133 19.6089L51.1294 19.6176L51.1456 19.6259L52.0615 17.848ZM55.3255 20.984L53.5823 21.9645L53.5881 21.9748L53.594 21.985L55.3255 20.984ZM49.3095 24.12V26.12H51.3095V24.12H49.3095ZM48.7335 22.776L47.4531 24.3124L47.479 24.334L47.5056 24.3547L48.7335 22.776ZM45.0855 24.12L43.1156 23.7744L42.7041 26.12H45.0855V24.12ZM54.5095 25.816C54.5095 26.2199 54.4832 26.5943 54.4336 26.9412L58.3934 27.5068C58.4718 26.9577 58.5095 26.3935 58.5095 25.816H54.5095ZM56.4135 25.224H44.9895V29.224H56.4135V25.224ZM42.9942 27.3607C43.0618 28.3479 43.3165 29.4132 44.0228 30.2584C44.797 31.185 45.8681 31.56 46.9415 31.56V27.56C46.8594 27.56 46.867 27.5468 46.925 27.5713C46.9918 27.5995 47.0535 27.6472 47.0922 27.6936C47.1241 27.7317 47.1059 27.7276 47.074 27.6292C47.0413 27.5282 47.0032 27.3552 46.9848 27.0873L42.9942 27.3607ZM46.9415 31.56C47.6397 31.56 48.3564 31.3964 49.0051 30.9847C49.6517 30.5744 50.1036 29.9985 50.4051 29.3765L46.8059 27.6315C46.7846 27.6753 46.7745 27.6838 46.7845 27.672C46.7958 27.6587 46.8214 27.633 46.8619 27.6073C46.9025 27.5815 46.9396 27.5675 46.9631 27.5613C46.9846 27.5556 46.9807 27.56 46.9415 27.56V31.56ZM48.6055 30.504H56.1255V26.504H48.6055V30.504ZM54.1643 28.1118C53.9728 29.0696 53.5707 29.9241 52.9413 30.6988L56.0457 33.2212C57.0803 31.9479 57.7662 30.4984 58.0867 28.8962L54.1643 28.1118ZM52.9382 30.7026C52.3309 31.4537 51.542 32.0738 50.532 32.5531L52.247 36.1669C53.7543 35.4515 55.0348 34.4716 56.0488 33.2174L52.9382 30.7026ZM50.5454 32.5468C49.5966 32.9886 48.523 33.224 47.2935 33.224V37.224C49.0507 37.224 50.7078 36.8834 52.2336 36.1732L50.5454 32.5468ZM47.2935 33.224C45.787 33.224 44.5156 32.9125 43.4305 32.3371L41.5565 35.8709C43.2874 36.7888 45.216 37.224 47.2935 37.224V33.224ZM43.4417 32.3431C42.3901 31.7768 41.5739 30.9796 40.9676 29.9146L37.4914 31.8934C38.4638 33.6017 39.8236 34.9379 41.5453 35.8649L43.4417 32.3431ZM40.9853 29.9463C40.4029 28.8786 40.0775 27.576 40.0775 25.976H36.0775C36.0775 28.1307 36.5201 30.1134 37.4737 31.8617L40.9853 29.9463ZM40.0775 25.976C40.0775 24.3751 40.4032 23.0888 40.9791 22.049L37.4799 20.111C36.5198 21.8445 36.0775 23.8222 36.0775 25.976H40.0775ZM40.9741 22.058C41.5826 20.9726 42.3981 20.1709 43.4417 19.6089L41.5453 16.0871C39.8155 17.0185 38.4551 18.3714 37.4849 20.102L40.9741 22.058ZM43.4305 19.6149C44.5156 19.0395 45.787 18.728 47.2935 18.728V14.728C45.216 14.728 43.2874 15.1632 41.5565 16.0811L43.4305 19.6149ZM47.2935 18.728C48.8007 18.728 50.0561 19.0397 51.1133 19.6089L53.0097 16.0871C51.2935 15.163 49.3703 14.728 47.2935 14.728V18.728ZM51.1456 19.6259C52.2099 20.1742 53.0084 20.9442 53.5823 21.9645L57.0687 20.0035C56.1066 18.2931 54.7291 16.9724 52.9774 16.0701L51.1456 19.6259ZM53.594 21.985C54.1786 22.9961 54.5095 24.2489 54.5095 25.816H58.5095C58.5095 23.6711 58.0511 21.7026 57.057 19.983L53.594 21.985ZM51.3095 24.12C51.3095 23.0614 50.9436 21.9613 49.9614 21.1973L47.5056 24.3547C47.4727 24.3291 47.4362 24.294 47.4019 24.2496C47.3677 24.2052 47.3433 24.1613 47.3272 24.1238C47.2953 24.0495 47.3095 24.0327 47.3095 24.12H51.3095ZM50.0139 21.2396C49.2166 20.5752 48.2622 20.296 47.2935 20.296V24.296C47.3958 24.296 47.443 24.31 47.453 24.3134C47.4585 24.3152 47.4589 24.3158 47.4562 24.3143C47.4535 24.3128 47.4522 24.3117 47.4531 24.3124L50.0139 21.2396ZM47.2935 20.296C46.3487 20.296 45.3506 20.527 44.5237 21.2101C43.6921 21.8971 43.2799 22.8378 43.1156 23.7744L47.0554 24.4656C47.0803 24.3239 47.1101 24.2598 47.1176 24.2454C47.1222 24.2365 47.1093 24.2625 47.0713 24.2939C47.0337 24.3249 47.0103 24.3293 47.0306 24.3231C47.0566 24.3152 47.137 24.296 47.2935 24.296V20.296ZM45.0855 26.12H49.3095V22.12H45.0855V26.12ZM65.8603 20.28H63.8603V26.6706L67.5034 21.4202L65.8603 20.28ZM68.5163 17.784L69.5349 19.5052L69.5478 19.4975L69.5606 19.4897L68.5163 17.784ZM71.7803 16.824H73.7803V14.824H71.7803V16.824ZM71.7803 24.408V26.408H73.7803V24.408H71.7803ZM66.7883 25.112L65.6055 23.4992L65.5924 23.5088L65.5795 23.5186L66.7883 25.112ZM65.8603 35V37H67.8603V35H65.8603ZM58.7563 35H56.7563V37H58.7563V35ZM58.7563 16.952V14.952H56.7563V16.952H58.7563ZM65.8603 16.952H67.8603V14.952H65.8603V16.952ZM67.5034 21.4202C68.0727 20.5997 68.7488 19.9704 69.5349 19.5052L67.4976 16.0628C66.193 16.835 65.0984 17.8697 64.2171 19.1398L67.5034 21.4202ZM69.5606 19.4897C70.3189 19.0254 71.049 18.824 71.7803 18.824V14.824C70.2502 14.824 68.8042 15.2626 67.4719 16.0783L69.5606 19.4897ZM69.7803 16.824V24.408H73.7803V16.824H69.7803ZM71.7803 22.408H69.7643V26.408H71.7803V22.408ZM69.7643 22.408C68.2608 22.408 66.7542 22.6568 65.6055 23.4992L67.971 26.7248C68.1023 26.6285 68.5797 26.408 69.7643 26.408V22.408ZM65.5795 23.5186C64.2402 24.5346 63.8603 26.1325 63.8603 27.608H67.8603C67.8603 27.1715 67.9183 26.9156 67.9669 26.785C68.0086 26.6727 68.0317 26.679 67.997 26.7054L65.5795 23.5186ZM63.8603 27.608V35H67.8603V27.608H63.8603ZM65.8603 33H58.7563V37H65.8603V33ZM60.7563 35V16.952H56.7563V35H60.7563ZM58.7563 18.952H65.8603V14.952H58.7563V18.952ZM63.8603 16.952V20.28H67.8603V16.952H63.8603ZM73.8858 21.08L72.1412 20.102L72.1362 20.111L73.8858 21.08ZM77.1498 17.848L76.2127 16.081L76.2016 16.0871L77.1498 17.848ZM87.8698 18.712L86.5954 20.2535L86.6055 20.2617L87.8698 18.712ZM90.9418 24.216V26.216H93.3382L92.9095 23.8582L90.9418 24.216ZM83.4218 24.216L81.5037 24.7827L81.9272 26.216H83.4218V24.216ZM80.4138 23.608L78.7292 22.5299L78.7136 22.5542L78.6988 22.579L80.4138 23.608ZM80.4138 28.344L78.6988 29.373L78.7136 29.3978L78.7292 29.4221L80.4138 28.344ZM83.4218 27.736V25.736H81.9272L81.5037 27.1693L83.4218 27.736ZM90.9418 27.736L92.9095 28.0938L93.3382 25.736H90.9418V27.736ZM87.8698 33.24L86.6055 31.6902L86.5955 31.6985L87.8698 33.24ZM77.1498 34.104L76.2015 35.865L76.2127 35.8709L77.1498 34.104ZM73.8858 30.904L72.13 31.8617L72.1386 31.8776L72.1476 31.8934L73.8858 30.904ZM74.7338 25.976C74.7338 24.3751 75.0594 23.0888 75.6353 22.049L72.1362 20.111C71.1761 21.8445 70.7338 23.8222 70.7338 25.976H74.7338ZM75.6303 22.058C76.2388 20.9726 77.0544 20.1709 78.0979 19.6089L76.2016 16.0871C74.4718 17.0185 73.1114 18.3714 72.1412 20.102L75.6303 22.058ZM78.0868 19.6149C79.1718 19.0395 80.4432 18.728 81.9498 18.728V14.728C79.8723 14.728 77.9437 15.1632 76.2127 16.0811L78.0868 19.6149ZM81.9498 18.728C83.8956 18.728 85.4006 19.2657 86.5955 20.2535L89.144 17.1705C87.1389 15.5129 84.6973 14.728 81.9498 14.728V18.728ZM86.6055 20.2617C87.8066 21.2416 88.6198 22.6259 88.974 24.5738L92.9095 23.8582C92.4103 21.1128 91.1756 18.8278 89.134 17.1623L86.6055 20.2617ZM90.9418 22.216H83.4218V26.216H90.9418V22.216ZM85.3398 23.6493C85.1306 22.9412 84.7623 22.2065 84.1122 21.6457C83.4302 21.0573 82.6091 20.808 81.7898 20.808V24.808C81.7984 24.808 81.7599 24.809 81.693 24.7858C81.6228 24.7615 81.5544 24.7218 81.4993 24.6743C81.3932 24.5828 81.4356 24.5521 81.5037 24.7827L85.3398 23.6493ZM81.7898 20.808C80.455 20.808 79.3947 21.49 78.7292 22.5299L82.0983 24.6861C82.1305 24.6358 82.113 24.6823 82.019 24.737C81.9742 24.7631 81.9257 24.7826 81.8789 24.7947C81.833 24.8065 81.8011 24.808 81.7898 24.808V20.808ZM78.6988 22.579C78.105 23.5685 77.9338 24.7869 77.9338 25.976H81.9338C81.9338 25.0744 82.0825 24.7141 82.1287 24.637L78.6988 22.579ZM77.9338 25.976C77.9338 27.1651 78.105 28.3835 78.6988 29.373L82.1287 27.315C82.0825 27.2379 81.9338 26.8776 81.9338 25.976H77.9338ZM78.7292 29.4221C79.3947 30.462 80.455 31.144 81.7898 31.144V27.144C81.8011 27.144 81.833 27.1455 81.8789 27.1573C81.9257 27.1694 81.9742 27.1889 82.019 27.215C82.113 27.2697 82.1305 27.3162 82.0983 27.2659L78.7292 29.4221ZM81.7898 31.144C82.6091 31.144 83.4302 30.8947 84.1122 30.3063C84.7623 29.7455 85.1306 29.0108 85.3398 28.3027L81.5037 27.1693C81.4356 27.3999 81.3932 27.3692 81.4993 27.2777C81.5544 27.2302 81.6228 27.1905 81.693 27.1662C81.7599 27.143 81.7984 27.144 81.7898 27.144V31.144ZM83.4218 29.736H90.9418V25.736H83.4218V29.736ZM88.974 27.3782C88.6198 29.3261 87.8066 30.7104 86.6055 31.6903L89.134 34.7897C91.1756 33.1242 92.4103 30.8392 92.9095 28.0938L88.974 27.3782ZM86.5955 31.6985C85.4006 32.6863 83.8956 33.224 81.9498 33.224V37.224C84.6973 37.224 87.1389 36.4391 89.144 34.7815L86.5955 31.6985ZM81.9498 33.224C80.4432 33.224 79.1718 32.9125 78.0868 32.3371L76.2127 35.8709C77.9437 36.7888 79.8723 37.224 81.9498 37.224V33.224ZM78.0979 32.3431C77.0463 31.7768 76.2301 30.9796 75.6239 29.9146L72.1476 31.8934C73.1201 33.6017 74.4798 34.9379 76.2016 35.8649L78.0979 32.3431ZM75.6415 29.9463C75.0591 28.8786 74.7338 27.576 74.7338 25.976H70.7338C70.7338 28.1307 71.1764 30.1134 72.13 31.8617L75.6415 29.9463ZM93.1938 21.048L91.3835 20.1977L91.3778 20.2099L93.1938 21.048ZM95.8818 17.848L96.9617 19.5314L96.9728 19.5242L96.9839 19.5169L95.8818 17.848ZM102.73 17.464L101.733 19.1978L101.749 19.2073L101.766 19.2164L102.73 17.464ZM104.682 19.416L102.921 20.3642L106.682 19.416H104.682ZM104.682 16.952V14.952H102.682V16.952H104.682ZM111.754 16.952H113.754V14.952H111.754V16.952ZM111.754 35V37H113.754V35H111.754ZM104.682 35H102.682V37H104.682V35ZM104.682 32.536H106.682L102.921 31.5878L104.682 32.536ZM102.73 34.52L103.694 36.2724L103.71 36.2633L103.727 36.2538L102.73 34.52ZM95.8818 34.136L94.7796 35.8049L94.7907 35.8122L94.8018 35.8194L95.8818 34.136ZM93.1938 30.936L91.373 31.7636L91.3806 31.7803L91.3885 31.7969L93.1938 30.936ZM103.946 23.736L105.418 22.3819L105.418 22.3819L103.946 23.736ZM100.17 23.736L98.6979 22.3819L98.6979 22.3819L100.17 23.736ZM94.2338 25.976C94.2338 24.2982 94.5167 22.9542 95.0097 21.8861L91.3778 20.2099C90.5908 21.9151 90.2338 23.8565 90.2338 25.976H94.2338ZM95.004 21.8983C95.531 20.7763 96.1955 20.0229 96.9617 19.5314L94.8018 16.1646C93.3066 17.1238 92.1792 18.5037 91.3835 20.1977L95.004 21.8983ZM96.9839 19.5169C97.7743 18.995 98.6574 18.728 99.6898 18.728V14.728C97.9061 14.728 96.2506 15.2077 94.7796 16.1791L96.9839 19.5169ZM99.6898 18.728C100.581 18.728 101.236 18.9123 101.733 19.1978L103.727 15.7302C102.517 15.0344 101.146 14.728 99.6898 14.728V18.728ZM101.766 19.2164C102.293 19.5061 102.661 19.8823 102.921 20.3642L106.443 18.4678C105.806 17.2857 104.874 16.3606 103.694 15.7116L101.766 19.2164ZM106.682 19.416V16.952H102.682V19.416H106.682ZM104.682 18.952H111.754V14.952H104.682V18.952ZM109.754 16.952V35H113.754V16.952H109.754ZM111.754 33H104.682V37H111.754V33ZM106.682 35V32.536H102.682V35H106.682ZM102.921 31.5878C102.657 32.0779 102.277 32.473 101.733 32.7862L103.727 36.2538C104.889 35.5856 105.811 34.6581 106.443 33.4842L102.921 31.5878ZM101.766 32.7676C101.263 33.0443 100.595 33.224 99.6898 33.224V37.224C101.131 37.224 102.49 36.9344 103.694 36.2724L101.766 32.7676ZM99.6898 33.224C98.6452 33.224 97.7541 32.961 96.9617 32.4526L94.8018 35.8194C96.2707 36.7617 97.9183 37.224 99.6898 37.224V33.224ZM96.9839 32.4671C96.1957 31.9465 95.5252 31.1784 94.999 30.0751L91.3885 31.7969C92.185 33.4669 93.3065 34.8321 94.7796 35.8049L96.9839 32.4671ZM95.0145 30.1084C94.5163 29.0125 94.2338 27.6526 94.2338 25.976H90.2338C90.2338 28.0967 90.5912 30.0435 91.373 31.7636L95.0145 30.1084ZM106.682 25.976C106.682 24.6809 106.346 23.391 105.418 22.3819L102.474 25.0901C102.527 25.1477 102.682 25.3511 102.682 25.976H106.682ZM105.418 22.3819C104.524 21.41 103.348 20.936 102.058 20.936V24.936C102.304 24.936 102.387 24.9953 102.474 25.0901L105.418 22.3819ZM102.058 20.936C100.768 20.936 99.592 21.41 98.6979 22.3819L101.642 25.0901C101.729 24.9953 101.812 24.936 102.058 24.936V20.936ZM98.6979 22.3819C97.7695 23.391 97.4338 24.6809 97.4338 25.976H101.434C101.434 25.3511 101.589 25.1477 101.642 25.0901L98.6979 22.3819ZM97.4338 25.976C97.4338 27.2711 97.7695 28.561 98.6979 29.5701L101.642 26.8619C101.589 26.8043 101.434 26.6009 101.434 25.976H97.4338ZM98.6979 29.5701C99.592 30.542 100.768 31.016 102.058 31.016V27.016C101.812 27.016 101.729 26.9567 101.642 26.8619L98.6979 29.5701ZM102.058 31.016C103.348 31.016 104.524 30.542 105.418 29.5701L102.474 26.8619C102.387 26.9567 102.304 27.016 102.058 27.016V31.016ZM105.418 29.5701C106.346 28.561 106.682 27.2711 106.682 25.976H102.682C102.682 26.6009 102.527 26.8043 102.474 26.8619L105.418 29.5701ZM126.176 28.952H128.176V26.952H126.176V28.952ZM126.176 35V37H128.176V35H126.176ZM116.064 22.872H118.064V20.872H116.064V22.872ZM113.824 22.872H111.824V24.872H113.824V22.872ZM113.824 16.952V14.952H111.824V16.952H113.824ZM116.064 16.952V18.952H118.064V16.952H116.064ZM116.064 12.6V10.6H114.064V12.6H116.064ZM123.168 12.6H125.168V10.6H123.168V12.6ZM123.168 16.952H121.168V18.952H123.168V16.952ZM126.112 16.952H128.112V14.952H126.112V16.952ZM126.112 22.872V24.872H128.112V22.872H126.112ZM123.168 22.872V20.872H121.168V22.872H123.168ZM123.456 28.664L122.042 30.0782L122.079 30.1154L122.118 30.1506L123.456 28.664ZM124.176 28.952V35H128.176V28.952H124.176ZM126.176 33H123.488V37H126.176V33ZM123.488 33C121.319 33 120.061 32.4613 119.331 31.7347C118.603 31.0098 118.064 29.7615 118.064 27.608H114.064C114.064 30.3825 114.762 32.8302 116.509 34.5693C118.254 36.3067 120.707 37 123.488 37V33ZM118.064 27.608V22.872H114.064V27.608H118.064ZM116.064 20.872H113.824V24.872H116.064V20.872ZM115.824 22.872V16.952H111.824V22.872H115.824ZM113.824 18.952H116.064V14.952H113.824V18.952ZM118.064 16.952V12.6H114.064V16.952H118.064ZM116.064 14.6H123.168V10.6H116.064V14.6ZM121.168 12.6V16.952H125.168V12.6H121.168ZM123.168 18.952H126.112V14.952H123.168V18.952ZM124.112 16.952V22.872H128.112V16.952H124.112ZM126.112 20.872H123.168V24.872H126.112V20.872ZM121.168 22.872V27.736H125.168V22.872H121.168ZM121.168 27.736C121.168 28.3992 121.308 29.3448 122.042 30.0782L124.87 27.2498C125.044 27.4236 125.12 27.5994 125.15 27.6952C125.177 27.7823 125.168 27.8082 125.168 27.736H121.168ZM122.118 30.1506C122.87 30.8279 123.811 30.952 124.48 30.952V26.952C124.373 26.952 124.361 26.9401 124.413 26.9547C124.47 26.9707 124.625 27.0253 124.794 27.1774L122.118 30.1506ZM124.48 30.952H126.176V26.952H124.48V30.952ZM140.113 28.952H142.113V26.952H140.113V28.952ZM140.113 35V37H142.113V35H140.113ZM130.001 22.872H132.001V20.872H130.001V22.872ZM127.761 22.872H125.761V24.872H127.761V22.872ZM127.761 16.952V14.952H125.761V16.952H127.761ZM130.001 16.952V18.952H132.001V16.952H130.001ZM130.001 12.6V10.6H128.001V12.6H130.001ZM137.105 12.6H139.105V10.6H137.105V12.6ZM137.105 16.952H135.105V18.952H137.105V16.952ZM140.049 16.952H142.049V14.952H140.049V16.952ZM140.049 22.872V24.872H142.049V22.872H140.049ZM137.105 22.872V20.872H135.105V22.872H137.105ZM137.393 28.664L135.979 30.0782L136.016 30.1154L136.055 30.1506L137.393 28.664ZM138.113 28.952V35H142.113V28.952H138.113ZM140.113 33H137.425V37H140.113V33ZM137.425 33C135.257 33 133.998 32.4613 133.268 31.7347C132.54 31.0098 132.001 29.7615 132.001 27.608H128.001C128.001 30.3825 128.7 32.8302 130.446 34.5693C132.191 36.3067 134.644 37 137.425 37V33ZM132.001 27.608V22.872H128.001V27.608H132.001ZM130.001 20.872H127.761V24.872H130.001V20.872ZM129.761 22.872V16.952H125.761V22.872H129.761ZM127.761 18.952H130.001V14.952H127.761V18.952ZM132.001 16.952V12.6H128.001V16.952H132.001ZM130.001 14.6H137.105V10.6H130.001V14.6ZM135.105 12.6V16.952H139.105V12.6H135.105ZM137.105 18.952H140.049V14.952H137.105V18.952ZM138.049 16.952V22.872H142.049V16.952H138.049ZM140.049 20.872H137.105V24.872H140.049V20.872ZM135.105 22.872V27.736H139.105V22.872H135.105ZM135.105 27.736C135.105 28.3992 135.246 29.3448 135.979 30.0782L138.807 27.2498C138.981 27.4236 139.058 27.5994 139.087 27.6952C139.114 27.7823 139.105 27.8082 139.105 27.736H135.105ZM136.055 30.1506C136.808 30.8279 137.749 30.952 138.417 30.952V26.952C138.31 26.952 138.299 26.9401 138.351 26.9547C138.408 26.9707 138.562 27.0253 138.731 27.1774L136.055 30.1506ZM138.417 30.952H140.113V26.952H138.417V30.952ZM146.499 34.104L147.414 32.3257L146.499 34.104ZM143.075 30.904L141.342 31.9019L141.35 31.9175L141.36 31.933L143.075 30.904ZM143.075 21.08L141.353 20.0625L141.348 20.0706L143.075 21.08ZM146.499 17.848L147.414 19.6263L147.414 19.6263L146.499 17.848ZM156.291 17.848L155.375 19.6263L155.375 19.6263L156.291 17.848ZM159.683 21.08L157.95 22.0779L157.958 22.0935L157.968 22.109L159.683 21.08ZM159.683 30.904L157.961 29.8865L157.956 29.8946L159.683 30.904ZM156.291 34.104L155.375 32.3257L155.375 32.3257L156.291 34.104ZM153.059 28.312L154.564 29.629L154.577 29.6138L154.59 29.5984L153.059 28.312ZM153.059 23.672L151.527 24.9584L151.54 24.9738L151.554 24.989L153.059 23.672ZM149.731 23.672L151.236 24.989L151.249 24.9738L151.262 24.9584L149.731 23.672ZM149.699 28.312L148.137 29.5614L148.165 29.5958L148.194 29.629L149.699 28.312ZM151.395 33.224C149.864 33.224 148.551 32.9111 147.414 32.3257L145.583 35.8823C147.348 36.7903 149.299 37.224 151.395 37.224V33.224ZM147.414 32.3257C146.291 31.7479 145.428 30.9393 144.79 29.875L141.36 31.933C142.385 33.642 143.805 34.9668 145.583 35.8823L147.414 32.3257ZM144.808 29.9061C144.198 28.8461 143.859 27.5582 143.859 25.976H139.859C139.859 28.1485 140.33 30.1459 141.342 31.9019L144.808 29.9061ZM143.859 25.976C143.859 24.3929 144.198 23.1215 144.801 22.0894L141.348 20.0706C140.33 21.8118 139.859 23.8044 139.859 25.976H143.859ZM144.797 22.0975C145.437 21.0132 146.299 20.2 147.414 19.6263L145.583 16.0697C143.797 16.9894 142.376 18.3308 141.353 20.0625L144.797 22.0975ZM147.414 19.6263C148.551 19.0409 149.864 18.728 151.395 18.728V14.728C149.299 14.728 147.348 15.1617 145.583 16.0697L147.414 19.6263ZM151.395 18.728C152.926 18.728 154.238 19.0409 155.375 19.6263L157.206 16.0697C155.442 15.1617 153.49 14.728 151.395 14.728V18.728ZM155.375 19.6263C156.486 20.1977 157.332 21.0048 157.95 22.0779L161.416 20.0821C160.413 18.3392 158.997 16.9916 157.206 16.0697L155.375 19.6263ZM157.968 22.109C158.585 23.1377 158.931 24.402 158.931 25.976H162.931C162.931 23.7954 162.445 21.7956 161.398 20.051L157.968 22.109ZM158.931 25.976C158.931 27.5492 158.585 28.8299 157.961 29.8865L161.405 31.9215C162.444 30.1621 162.931 28.1574 162.931 25.976H158.931ZM157.956 29.8946C157.341 30.9477 156.494 31.7501 155.375 32.3257L157.206 35.8823C158.989 34.9645 160.404 33.6337 161.409 31.9134L157.956 29.8946ZM155.375 32.3257C154.238 32.9111 152.926 33.224 151.395 33.224V37.224C153.49 37.224 155.442 36.7903 157.206 35.8823L155.375 32.3257ZM151.395 31.08C152.651 31.08 153.749 30.5608 154.564 29.629L151.554 26.995C151.522 27.031 151.499 27.0506 151.487 27.0602C151.475 27.0695 151.469 27.072 151.469 27.0721C151.469 27.0721 151.466 27.0733 151.459 27.0749C151.451 27.0766 151.43 27.08 151.395 27.08V31.08ZM154.59 29.5984C155.455 28.5687 155.731 27.2556 155.731 25.976H151.731C151.731 26.7444 151.558 26.9886 151.527 27.0256L154.59 29.5984ZM155.731 25.976C155.731 24.7044 155.458 23.3772 154.564 22.355L151.554 24.989C151.555 24.9908 151.731 25.1996 151.731 25.976H155.731ZM154.59 22.3856C153.785 21.4274 152.682 20.872 151.395 20.872V24.872C151.425 24.872 151.44 24.875 151.442 24.8756C151.445 24.8761 151.443 24.8758 151.44 24.8745C151.438 24.8733 151.443 24.8752 151.455 24.8854C151.469 24.8959 151.493 24.918 151.527 24.9584L154.59 22.3856ZM151.395 20.872C150.108 20.872 149.004 21.4274 148.199 22.3856L151.262 24.9584C151.296 24.918 151.321 24.8959 151.334 24.8854C151.347 24.8752 151.352 24.8733 151.349 24.8745C151.347 24.8758 151.345 24.8761 151.347 24.8756C151.35 24.875 151.365 24.872 151.395 24.872V20.872ZM148.226 22.355C147.331 23.3772 147.059 24.7044 147.059 25.976H151.059C151.059 25.1996 151.234 24.9908 151.236 24.989L148.226 22.355ZM147.059 25.976C147.059 27.2369 147.316 28.5346 148.137 29.5614L151.26 27.0626C151.229 27.0228 151.059 26.7631 151.059 25.976H147.059ZM148.194 29.629C149.023 30.5768 150.138 31.08 151.395 31.08V27.08C151.35 27.08 151.321 27.0758 151.307 27.0728C151.292 27.0699 151.286 27.0671 151.284 27.0661C151.281 27.0651 151.276 27.0622 151.265 27.0541C151.254 27.0456 151.233 27.0279 151.204 26.995L148.194 29.629Z" fill="black" mask="url(#path-1-outside-1_17_8)"/>
</g>
<g filter="url(#filter1_d_17_8)">
<mask id="path-3-outside-2_17_8" maskUnits="userSpaceOnUse" x="2" y="10" width="161" height="28" fill="black">
<rect fill="white" x="2" y="10" width="161" height="28"/>
<path d="M28.696 16.824C31 16.824 32.7813 17.5173 34.04 18.904C35.32 20.2907 35.96 22.168 35.96 24.536V35H28.888V25.432C28.888 24.664 28.6533 24.0667 28.184 23.64C27.736 23.192 27.128 22.968 26.36 22.968C25.5707 22.968 24.952 23.192 24.504 23.64C24.056 24.0667 23.832 24.664 23.832 25.432V35H16.76V25.432C16.76 24.664 16.5253 24.0667 16.056 23.64C15.608 23.192 15 22.968 14.232 22.968C13.4427 22.968 12.824 23.192 12.376 23.64C11.928 24.0667 11.704 24.664 11.704 25.432V35H4.6V16.952H11.704V19.384C12.216 18.616 12.9093 17.9973 13.784 17.528C14.68 17.0587 15.7253 16.824 16.92 16.824C18.2213 16.824 19.3733 17.112 20.376 17.688C21.3787 18.2427 22.1787 19.032 22.776 20.056C23.4373 19.1173 24.28 18.3493 25.304 17.752C26.328 17.1333 27.4587 16.824 28.696 16.824ZM56.5095 25.816C56.5095 26.3067 56.4775 26.776 56.4135 27.224H44.9895C45.0962 28.7813 45.7468 29.56 46.9415 29.56C47.7095 29.56 48.2642 29.208 48.6055 28.504H56.1255C55.8695 29.784 55.3255 30.936 54.4935 31.96C53.6828 32.9627 52.6482 33.7627 51.3895 34.36C50.1522 34.936 48.7868 35.224 47.2935 35.224C45.5015 35.224 43.9015 34.8507 42.4935 34.104C41.1068 33.3573 40.0188 32.2907 39.2295 30.904C38.4615 29.496 38.0775 27.8533 38.0775 25.976C38.0775 24.0987 38.4615 22.4667 39.2295 21.08C40.0188 19.672 41.1068 18.5947 42.4935 17.848C43.9015 17.1013 45.5015 16.728 47.2935 16.728C49.0855 16.728 50.6748 17.1013 52.0615 17.848C53.4695 18.5733 54.5575 19.6187 55.3255 20.984C56.1148 22.3493 56.5095 23.96 56.5095 25.816ZM49.3095 24.12C49.3095 23.5227 49.1175 23.0747 48.7335 22.776C48.3495 22.456 47.8695 22.296 47.2935 22.296C46.0348 22.296 45.2988 22.904 45.0855 24.12H49.3095ZM65.8603 20.28C66.5856 19.2347 67.4709 18.4027 68.5163 17.784C69.5616 17.144 70.6496 16.824 71.7803 16.824V24.408H69.7643C68.4203 24.408 67.4283 24.6427 66.7883 25.112C66.1696 25.5813 65.8603 26.4133 65.8603 27.608V35H58.7563V16.952H65.8603V20.28ZM72.7338 25.976C72.7338 24.0987 73.1178 22.4667 73.8858 21.08C74.6751 19.672 75.7631 18.5947 77.1498 17.848C78.5578 17.1013 80.1578 16.728 81.9498 16.728C84.2964 16.728 86.2698 17.3893 87.8698 18.712C89.4911 20.0347 90.5151 21.8693 90.9418 24.216H83.4218C83.1444 23.2773 82.6004 22.808 81.7898 22.808C81.2138 22.808 80.7551 23.0747 80.4138 23.608C80.0938 24.1413 79.9338 24.9307 79.9338 25.976C79.9338 27.0213 80.0938 27.8107 80.4138 28.344C80.7551 28.8773 81.2138 29.144 81.7898 29.144C82.6004 29.144 83.1444 28.6747 83.4218 27.736H90.9418C90.5151 30.0827 89.4911 31.9173 87.8698 33.24C86.2698 34.5627 84.2964 35.224 81.9498 35.224C80.1578 35.224 78.5578 34.8507 77.1498 34.104C75.7631 33.3573 74.6751 32.2907 73.8858 30.904C73.1178 29.496 72.7338 27.8533 72.7338 25.976ZM92.2338 25.976C92.2338 24.0773 92.5538 22.4347 93.1938 21.048C93.8551 19.64 94.7511 18.5733 95.8818 17.848C97.0124 17.1013 98.2818 16.728 99.6898 16.728C100.863 16.728 101.876 16.9733 102.73 17.464C103.583 17.9333 104.234 18.584 104.682 19.416V16.952H111.754V35H104.682V32.536C104.234 33.368 103.583 34.0293 102.73 34.52C101.876 34.9893 100.863 35.224 99.6898 35.224C98.2818 35.224 97.0124 34.8613 95.8818 34.136C94.7511 33.3893 93.8551 32.3227 93.1938 30.936C92.5538 29.528 92.2338 27.8747 92.2338 25.976ZM104.682 25.976C104.682 25.016 104.436 24.2693 103.946 23.736C103.455 23.2027 102.826 22.936 102.058 22.936C101.29 22.936 100.66 23.2027 100.17 23.736C99.6791 24.2693 99.4338 25.016 99.4338 25.976C99.4338 26.936 99.6791 27.6827 100.17 28.216C100.66 28.7493 101.29 29.016 102.058 29.016C102.826 29.016 103.455 28.7493 103.946 28.216C104.436 27.6827 104.682 26.936 104.682 25.976ZM126.176 28.952V35H123.488C118.538 35 116.064 32.536 116.064 27.608V22.872H113.824V16.952H116.064V12.6H123.168V16.952H126.112V22.872H123.168V27.736C123.168 28.1627 123.264 28.472 123.456 28.664C123.669 28.856 124.01 28.952 124.48 28.952H126.176ZM140.113 28.952V35H137.425C132.476 35 130.001 32.536 130.001 27.608V22.872H127.761V16.952H130.001V12.6H137.105V16.952H140.049V22.872H137.105V27.736C137.105 28.1627 137.201 28.472 137.393 28.664C137.607 28.856 137.948 28.952 138.417 28.952H140.113ZM151.395 35.224C149.581 35.224 147.949 34.8507 146.499 34.104C145.048 33.3573 143.907 32.2907 143.075 30.904C142.264 29.496 141.859 27.8533 141.859 25.976C141.859 24.0987 142.264 22.4667 143.075 21.08C143.907 19.672 145.048 18.5947 146.499 17.848C147.949 17.1013 149.581 16.728 151.395 16.728C153.208 16.728 154.84 17.1013 156.291 17.848C157.741 18.5947 158.872 19.672 159.683 21.08C160.515 22.4667 160.931 24.0987 160.931 25.976C160.931 27.8533 160.515 29.496 159.683 30.904C158.872 32.2907 157.741 33.3573 156.291 34.104C154.84 34.8507 153.208 35.224 151.395 35.224ZM151.395 29.08C152.056 29.08 152.611 28.824 153.059 28.312C153.507 27.7787 153.731 27 153.731 25.976C153.731 24.952 153.507 24.184 153.059 23.672C152.611 23.1387 152.056 22.872 151.395 22.872C150.733 22.872 150.179 23.1387 149.731 23.672C149.283 24.184 149.059 24.952 149.059 25.976C149.059 27 149.272 27.7787 149.699 28.312C150.147 28.824 150.712 29.08 151.395 29.08Z"/>
</mask>
<path d="M28.696 16.824C31 16.824 32.7813 17.5173 34.04 18.904C35.32 20.2907 35.96 22.168 35.96 24.536V35H28.888V25.432C28.888 24.664 28.6533 24.0667 28.184 23.64C27.736 23.192 27.128 22.968 26.36 22.968C25.5707 22.968 24.952 23.192 24.504 23.64C24.056 24.0667 23.832 24.664 23.832 25.432V35H16.76V25.432C16.76 24.664 16.5253 24.0667 16.056 23.64C15.608 23.192 15 22.968 14.232 22.968C13.4427 22.968 12.824 23.192 12.376 23.64C11.928 24.0667 11.704 24.664 11.704 25.432V35H4.6V16.952H11.704V19.384C12.216 18.616 12.9093 17.9973 13.784 17.528C14.68 17.0587 15.7253 16.824 16.92 16.824C18.2213 16.824 19.3733 17.112 20.376 17.688C21.3787 18.2427 22.1787 19.032 22.776 20.056C23.4373 19.1173 24.28 18.3493 25.304 17.752C26.328 17.1333 27.4587 16.824 28.696 16.824ZM56.5095 25.816C56.5095 26.3067 56.4775 26.776 56.4135 27.224H44.9895C45.0962 28.7813 45.7468 29.56 46.9415 29.56C47.7095 29.56 48.2642 29.208 48.6055 28.504H56.1255C55.8695 29.784 55.3255 30.936 54.4935 31.96C53.6828 32.9627 52.6482 33.7627 51.3895 34.36C50.1522 34.936 48.7868 35.224 47.2935 35.224C45.5015 35.224 43.9015 34.8507 42.4935 34.104C41.1068 33.3573 40.0188 32.2907 39.2295 30.904C38.4615 29.496 38.0775 27.8533 38.0775 25.976C38.0775 24.0987 38.4615 22.4667 39.2295 21.08C40.0188 19.672 41.1068 18.5947 42.4935 17.848C43.9015 17.1013 45.5015 16.728 47.2935 16.728C49.0855 16.728 50.6748 17.1013 52.0615 17.848C53.4695 18.5733 54.5575 19.6187 55.3255 20.984C56.1148 22.3493 56.5095 23.96 56.5095 25.816ZM49.3095 24.12C49.3095 23.5227 49.1175 23.0747 48.7335 22.776C48.3495 22.456 47.8695 22.296 47.2935 22.296C46.0348 22.296 45.2988 22.904 45.0855 24.12H49.3095ZM65.8603 20.28C66.5856 19.2347 67.4709 18.4027 68.5163 17.784C69.5616 17.144 70.6496 16.824 71.7803 16.824V24.408H69.7643C68.4203 24.408 67.4283 24.6427 66.7883 25.112C66.1696 25.5813 65.8603 26.4133 65.8603 27.608V35H58.7563V16.952H65.8603V20.28ZM72.7338 25.976C72.7338 24.0987 73.1178 22.4667 73.8858 21.08C74.6751 19.672 75.7631 18.5947 77.1498 17.848C78.5578 17.1013 80.1578 16.728 81.9498 16.728C84.2964 16.728 86.2698 17.3893 87.8698 18.712C89.4911 20.0347 90.5151 21.8693 90.9418 24.216H83.4218C83.1444 23.2773 82.6004 22.808 81.7898 22.808C81.2138 22.808 80.7551 23.0747 80.4138 23.608C80.0938 24.1413 79.9338 24.9307 79.9338 25.976C79.9338 27.0213 80.0938 27.8107 80.4138 28.344C80.7551 28.8773 81.2138 29.144 81.7898 29.144C82.6004 29.144 83.1444 28.6747 83.4218 27.736H90.9418C90.5151 30.0827 89.4911 31.9173 87.8698 33.24C86.2698 34.5627 84.2964 35.224 81.9498 35.224C80.1578 35.224 78.5578 34.8507 77.1498 34.104C75.7631 33.3573 74.6751 32.2907 73.8858 30.904C73.1178 29.496 72.7338 27.8533 72.7338 25.976ZM92.2338 25.976C92.2338 24.0773 92.5538 22.4347 93.1938 21.048C93.8551 19.64 94.7511 18.5733 95.8818 17.848C97.0124 17.1013 98.2818 16.728 99.6898 16.728C100.863 16.728 101.876 16.9733 102.73 17.464C103.583 17.9333 104.234 18.584 104.682 19.416V16.952H111.754V35H104.682V32.536C104.234 33.368 103.583 34.0293 102.73 34.52C101.876 34.9893 100.863 35.224 99.6898 35.224C98.2818 35.224 97.0124 34.8613 95.8818 34.136C94.7511 33.3893 93.8551 32.3227 93.1938 30.936C92.5538 29.528 92.2338 27.8747 92.2338 25.976ZM104.682 25.976C104.682 25.016 104.436 24.2693 103.946 23.736C103.455 23.2027 102.826 22.936 102.058 22.936C101.29 22.936 100.66 23.2027 100.17 23.736C99.6791 24.2693 99.4338 25.016 99.4338 25.976C99.4338 26.936 99.6791 27.6827 100.17 28.216C100.66 28.7493 101.29 29.016 102.058 29.016C102.826 29.016 103.455 28.7493 103.946 28.216C104.436 27.6827 104.682 26.936 104.682 25.976ZM126.176 28.952V35H123.488C118.538 35 116.064 32.536 116.064 27.608V22.872H113.824V16.952H116.064V12.6H123.168V16.952H126.112V22.872H123.168V27.736C123.168 28.1627 123.264 28.472 123.456 28.664C123.669 28.856 124.01 28.952 124.48 28.952H126.176ZM140.113 28.952V35H137.425C132.476 35 130.001 32.536 130.001 27.608V22.872H127.761V16.952H130.001V12.6H137.105V16.952H140.049V22.872H137.105V27.736C137.105 28.1627 137.201 28.472 137.393 28.664C137.607 28.856 137.948 28.952 138.417 28.952H140.113ZM151.395 35.224C149.581 35.224 147.949 34.8507 146.499 34.104C145.048 33.3573 143.907 32.2907 143.075 30.904C142.264 29.496 141.859 27.8533 141.859 25.976C141.859 24.0987 142.264 22.4667 143.075 21.08C143.907 19.672 145.048 18.5947 146.499 17.848C147.949 17.1013 149.581 16.728 151.395 16.728C153.208 16.728 154.84 17.1013 156.291 17.848C157.741 18.5947 158.872 19.672 159.683 21.08C160.515 22.4667 160.931 24.0987 160.931 25.976C160.931 27.8533 160.515 29.496 159.683 30.904C158.872 32.2907 157.741 33.3573 156.291 34.104C154.84 34.8507 153.208 35.224 151.395 35.224ZM151.395 29.08C152.056 29.08 152.611 28.824 153.059 28.312C153.507 27.7787 153.731 27 153.731 25.976C153.731 24.952 153.507 24.184 153.059 23.672C152.611 23.1387 152.056 22.872 151.395 22.872C150.733 22.872 150.179 23.1387 149.731 23.672C149.283 24.184 149.059 24.952 149.059 25.976C149.059 27 149.272 27.7787 149.699 28.312C150.147 28.824 150.712 29.08 151.395 29.08Z" fill="#ECB43A"/>
<path d="M34.04 18.904L32.5591 20.2482L32.5647 20.2544L32.5704 20.2606L34.04 18.904ZM35.96 35V37H37.96V35H35.96ZM28.888 35H26.888V37H28.888V35ZM28.184 23.64L26.7698 25.0542L26.8034 25.0879L26.8387 25.1199L28.184 23.64ZM24.504 23.64L25.8833 25.0883L25.901 25.0715L25.9182 25.0542L24.504 23.64ZM23.832 35V37H25.832V35H23.832ZM16.76 35H14.76V37H16.76V35ZM16.056 23.64L14.6418 25.0542L14.6754 25.0879L14.7107 25.1199L16.056 23.64ZM12.376 23.64L13.7553 25.0883L13.773 25.0715L13.7902 25.0542L12.376 23.64ZM11.704 35V37H13.704V35H11.704ZM4.6 35H2.6V37H4.6V35ZM4.6 16.952V14.952H2.6V16.952H4.6ZM11.704 16.952H13.704V14.952H11.704V16.952ZM11.704 19.384H9.704V25.9896L13.3681 20.4934L11.704 19.384ZM13.784 17.528L12.856 15.7563L12.8472 15.761L12.8384 15.7657L13.784 17.528ZM20.376 17.688L19.3798 19.4222L19.3938 19.4303L19.4079 19.4381L20.376 17.688ZM22.776 20.056L21.0484 21.0637L22.6175 23.7535L24.411 21.2079L22.776 20.056ZM25.304 17.752L26.3117 19.4796L26.325 19.4718L26.3382 19.4638L25.304 17.752ZM28.696 18.824C30.5761 18.824 31.7644 19.3727 32.5591 20.2482L35.5209 17.5598C33.7982 15.6619 31.4239 14.824 28.696 14.824V18.824ZM32.5704 20.2606C33.4285 21.1902 33.96 22.5373 33.96 24.536H37.96C37.96 21.7987 37.2115 19.3912 35.5096 17.5474L32.5704 20.2606ZM33.96 24.536V35H37.96V24.536H33.96ZM35.96 33H28.888V37H35.96V33ZM30.888 35V25.432H26.888V35H30.888ZM30.888 25.432C30.888 24.2293 30.5022 23.0446 29.5293 22.1601L26.8387 25.1199C26.8433 25.1241 26.8441 25.123 26.8505 25.1393C26.8602 25.1641 26.888 25.2502 26.888 25.432H30.888ZM29.5982 22.2258C28.698 21.3256 27.5384 20.968 26.36 20.968V24.968C26.5508 24.968 26.6548 24.9958 26.7006 25.0127C26.7394 25.027 26.7552 25.0396 26.7698 25.0542L29.5982 22.2258ZM26.36 20.968C25.1781 20.968 24.0003 21.3153 23.0898 22.2258L25.9182 25.0542C25.9269 25.0456 25.9403 25.0327 25.9849 25.0165C26.0372 24.9976 26.1524 24.968 26.36 24.968V20.968ZM23.1247 22.1917C22.1887 23.0832 21.832 24.2576 21.832 25.432H25.832C25.832 25.2403 25.8601 25.1438 25.8727 25.1102C25.8759 25.1017 25.8784 25.0962 25.8799 25.0933C25.8807 25.0918 25.8812 25.0908 25.8816 25.0902C25.8819 25.0896 25.8821 25.0893 25.8821 25.0893C25.8821 25.0893 25.882 25.0894 25.8819 25.0896C25.8817 25.0898 25.8816 25.09 25.8815 25.0901C25.8812 25.0904 25.8817 25.0898 25.8833 25.0883L23.1247 22.1917ZM21.832 25.432V35H25.832V25.432H21.832ZM23.832 33H16.76V37H23.832V33ZM18.76 35V25.432H14.76V35H18.76ZM18.76 25.432C18.76 24.2293 18.3742 23.0446 17.4013 22.1601L14.7107 25.1199C14.7153 25.1241 14.7161 25.123 14.7225 25.1393C14.7322 25.1641 14.76 25.2502 14.76 25.432H18.76ZM17.4702 22.2258C16.57 21.3256 15.4104 20.968 14.232 20.968V24.968C14.4228 24.968 14.5268 24.9958 14.5726 25.0127C14.6114 25.027 14.6272 25.0396 14.6418 25.0542L17.4702 22.2258ZM14.232 20.968C13.0501 20.968 11.8723 21.3153 10.9618 22.2258L13.7902 25.0542C13.7989 25.0456 13.8123 25.0327 13.8569 25.0165C13.9092 24.9976 14.0244 24.968 14.232 24.968V20.968ZM10.9967 22.1917C10.0607 23.0832 9.704 24.2576 9.704 25.432H13.704C13.704 25.2403 13.7321 25.1438 13.7447 25.1102C13.7479 25.1017 13.7504 25.0962 13.7519 25.0933C13.7527 25.0918 13.7532 25.0908 13.7536 25.0902C13.7539 25.0896 13.7541 25.0893 13.7541 25.0893C13.7541 25.0893 13.754 25.0894 13.7539 25.0896C13.7537 25.0898 13.7536 25.09 13.7535 25.0901C13.7532 25.0904 13.7537 25.0898 13.7553 25.0883L10.9967 22.1917ZM9.704 25.432V35H13.704V25.432H9.704ZM11.704 33H4.6V37H11.704V33ZM6.6 35V16.952H2.6V35H6.6ZM4.6 18.952H11.704V14.952H4.6V18.952ZM9.704 16.952V19.384H13.704V16.952H9.704ZM13.3681 20.4934C13.6843 20.0192 14.122 19.6164 14.7296 19.2903L12.8384 15.7657C11.6966 16.3783 10.7477 17.2128 10.0399 18.2746L13.3681 20.4934ZM14.712 19.2997C15.274 19.0053 15.9902 18.824 16.92 18.824V14.824C15.4605 14.824 14.086 15.1121 12.856 15.7563L14.712 19.2997ZM16.92 18.824C17.9164 18.824 18.7168 19.0414 19.3798 19.4222L21.3723 15.9538C20.0299 15.1826 18.5262 14.824 16.92 14.824V18.824ZM19.4079 19.4381C20.0839 19.812 20.6262 20.3398 21.0484 21.0637L24.5036 19.0483C23.7312 17.7242 22.6734 16.6733 21.3441 15.9379L19.4079 19.4381ZM24.411 21.2079C24.9015 20.5116 25.5274 19.9371 26.3117 19.4796L24.2963 16.0244C23.0326 16.7616 21.9731 17.7231 21.141 18.9041L24.411 21.2079ZM26.3382 19.4638C27.0392 19.0403 27.8101 18.824 28.696 18.824V14.824C27.1072 14.824 25.6168 15.2263 24.2698 16.0402L26.3382 19.4638ZM56.4135 27.224V29.224H58.1481L58.3934 27.5068L56.4135 27.224ZM44.9895 27.224V25.224H42.8478L42.9942 27.3607L44.9895 27.224ZM48.6055 28.504V26.504H47.3525L46.8059 27.6315L48.6055 28.504ZM56.1255 28.504L58.0867 28.8962L58.5651 26.504H56.1255V28.504ZM54.4935 31.96L52.9413 30.6988L52.9382 30.7026L54.4935 31.96ZM51.3895 34.36L52.2336 36.1732L52.2403 36.17L52.247 36.1669L51.3895 34.36ZM42.4935 34.104L41.5453 35.865L41.5565 35.8709L42.4935 34.104ZM39.2295 30.904L37.4737 31.8617L37.4824 31.8776L37.4914 31.8934L39.2295 30.904ZM39.2295 21.08L37.4849 20.102L37.4799 20.111L39.2295 21.08ZM42.4935 17.848L41.5565 16.081L41.5453 16.0871L42.4935 17.848ZM52.0615 17.848L51.1133 19.6089L51.1294 19.6176L51.1456 19.6259L52.0615 17.848ZM55.3255 20.984L53.5823 21.9645L53.5881 21.9748L53.594 21.985L55.3255 20.984ZM49.3095 24.12V26.12H51.3095V24.12H49.3095ZM48.7335 22.776L47.4531 24.3124L47.479 24.334L47.5056 24.3547L48.7335 22.776ZM45.0855 24.12L43.1156 23.7744L42.7041 26.12H45.0855V24.12ZM54.5095 25.816C54.5095 26.2199 54.4832 26.5943 54.4336 26.9412L58.3934 27.5068C58.4718 26.9577 58.5095 26.3935 58.5095 25.816H54.5095ZM56.4135 25.224H44.9895V29.224H56.4135V25.224ZM42.9942 27.3607C43.0618 28.3479 43.3165 29.4132 44.0228 30.2584C44.797 31.185 45.8681 31.56 46.9415 31.56V27.56C46.8594 27.56 46.867 27.5468 46.925 27.5713C46.9918 27.5995 47.0535 27.6472 47.0922 27.6936C47.1241 27.7317 47.1059 27.7276 47.074 27.6292C47.0413 27.5282 47.0032 27.3552 46.9848 27.0873L42.9942 27.3607ZM46.9415 31.56C47.6397 31.56 48.3564 31.3964 49.0051 30.9847C49.6517 30.5744 50.1036 29.9985 50.4051 29.3765L46.8059 27.6315C46.7846 27.6753 46.7745 27.6838 46.7845 27.672C46.7958 27.6587 46.8214 27.633 46.8619 27.6073C46.9025 27.5815 46.9396 27.5675 46.9631 27.5613C46.9846 27.5556 46.9807 27.56 46.9415 27.56V31.56ZM48.6055 30.504H56.1255V26.504H48.6055V30.504ZM54.1643 28.1118C53.9728 29.0696 53.5707 29.9241 52.9413 30.6988L56.0457 33.2212C57.0803 31.9479 57.7662 30.4984 58.0867 28.8962L54.1643 28.1118ZM52.9382 30.7026C52.3309 31.4537 51.542 32.0738 50.532 32.5531L52.247 36.1669C53.7543 35.4515 55.0348 34.4716 56.0488 33.2174L52.9382 30.7026ZM50.5454 32.5468C49.5966 32.9886 48.523 33.224 47.2935 33.224V37.224C49.0507 37.224 50.7078 36.8834 52.2336 36.1732L50.5454 32.5468ZM47.2935 33.224C45.787 33.224 44.5156 32.9125 43.4305 32.3371L41.5565 35.8709C43.2874 36.7888 45.216 37.224 47.2935 37.224V33.224ZM43.4417 32.3431C42.3901 31.7768 41.5739 30.9796 40.9676 29.9146L37.4914 31.8934C38.4638 33.6017 39.8236 34.9379 41.5453 35.8649L43.4417 32.3431ZM40.9853 29.9463C40.4029 28.8786 40.0775 27.576 40.0775 25.976H36.0775C36.0775 28.1307 36.5201 30.1134 37.4737 31.8617L40.9853 29.9463ZM40.0775 25.976C40.0775 24.3751 40.4032 23.0888 40.9791 22.049L37.4799 20.111C36.5198 21.8445 36.0775 23.8222 36.0775 25.976H40.0775ZM40.9741 22.058C41.5826 20.9726 42.3981 20.1709 43.4417 19.6089L41.5453 16.0871C39.8155 17.0185 38.4551 18.3714 37.4849 20.102L40.9741 22.058ZM43.4305 19.6149C44.5156 19.0395 45.787 18.728 47.2935 18.728V14.728C45.216 14.728 43.2874 15.1632 41.5565 16.0811L43.4305 19.6149ZM47.2935 18.728C48.8007 18.728 50.0561 19.0397 51.1133 19.6089L53.0097 16.0871C51.2935 15.163 49.3703 14.728 47.2935 14.728V18.728ZM51.1456 19.6259C52.2099 20.1742 53.0084 20.9442 53.5823 21.9645L57.0687 20.0035C56.1066 18.2931 54.7291 16.9724 52.9774 16.0701L51.1456 19.6259ZM53.594 21.985C54.1786 22.9961 54.5095 24.2489 54.5095 25.816H58.5095C58.5095 23.6711 58.0511 21.7026 57.057 19.983L53.594 21.985ZM51.3095 24.12C51.3095 23.0614 50.9436 21.9613 49.9614 21.1973L47.5056 24.3547C47.4727 24.3291 47.4362 24.294 47.4019 24.2496C47.3677 24.2052 47.3433 24.1613 47.3272 24.1238C47.2953 24.0495 47.3095 24.0327 47.3095 24.12H51.3095ZM50.0139 21.2396C49.2166 20.5752 48.2622 20.296 47.2935 20.296V24.296C47.3958 24.296 47.443 24.31 47.453 24.3134C47.4585 24.3152 47.4589 24.3158 47.4562 24.3143C47.4535 24.3128 47.4522 24.3117 47.4531 24.3124L50.0139 21.2396ZM47.2935 20.296C46.3487 20.296 45.3506 20.527 44.5237 21.2101C43.6921 21.8971 43.2799 22.8378 43.1156 23.7744L47.0554 24.4656C47.0803 24.3239 47.1101 24.2598 47.1176 24.2454C47.1222 24.2365 47.1093 24.2625 47.0713 24.2939C47.0337 24.3249 47.0103 24.3293 47.0306 24.3231C47.0566 24.3152 47.137 24.296 47.2935 24.296V20.296ZM45.0855 26.12H49.3095V22.12H45.0855V26.12ZM65.8603 20.28H63.8603V26.6706L67.5034 21.4202L65.8603 20.28ZM68.5163 17.784L69.5349 19.5052L69.5478 19.4975L69.5606 19.4897L68.5163 17.784ZM71.7803 16.824H73.7803V14.824H71.7803V16.824ZM71.7803 24.408V26.408H73.7803V24.408H71.7803ZM66.7883 25.112L65.6055 23.4992L65.5924 23.5088L65.5795 23.5186L66.7883 25.112ZM65.8603 35V37H67.8603V35H65.8603ZM58.7563 35H56.7563V37H58.7563V35ZM58.7563 16.952V14.952H56.7563V16.952H58.7563ZM65.8603 16.952H67.8603V14.952H65.8603V16.952ZM67.5034 21.4202C68.0727 20.5997 68.7488 19.9704 69.5349 19.5052L67.4976 16.0628C66.193 16.835 65.0984 17.8697 64.2171 19.1398L67.5034 21.4202ZM69.5606 19.4897C70.3189 19.0254 71.049 18.824 71.7803 18.824V14.824C70.2502 14.824 68.8042 15.2626 67.4719 16.0783L69.5606 19.4897ZM69.7803 16.824V24.408H73.7803V16.824H69.7803ZM71.7803 22.408H69.7643V26.408H71.7803V22.408ZM69.7643 22.408C68.2608 22.408 66.7542 22.6568 65.6055 23.4992L67.971 26.7248C68.1023 26.6285 68.5797 26.408 69.7643 26.408V22.408ZM65.5795 23.5186C64.2402 24.5346 63.8603 26.1325 63.8603 27.608H67.8603C67.8603 27.1715 67.9183 26.9156 67.9669 26.785C68.0086 26.6727 68.0317 26.679 67.997 26.7054L65.5795 23.5186ZM63.8603 27.608V35H67.8603V27.608H63.8603ZM65.8603 33H58.7563V37H65.8603V33ZM60.7563 35V16.952H56.7563V35H60.7563ZM58.7563 18.952H65.8603V14.952H58.7563V18.952ZM63.8603 16.952V20.28H67.8603V16.952H63.8603ZM73.8858 21.08L72.1412 20.102L72.1362 20.111L73.8858 21.08ZM77.1498 17.848L76.2127 16.081L76.2016 16.0871L77.1498 17.848ZM87.8698 18.712L86.5954 20.2535L86.6055 20.2617L87.8698 18.712ZM90.9418 24.216V26.216H93.3382L92.9095 23.8582L90.9418 24.216ZM83.4218 24.216L81.5037 24.7827L81.9272 26.216H83.4218V24.216ZM80.4138 23.608L78.7292 22.5299L78.7136 22.5542L78.6988 22.579L80.4138 23.608ZM80.4138 28.344L78.6988 29.373L78.7136 29.3978L78.7292 29.4221L80.4138 28.344ZM83.4218 27.736V25.736H81.9272L81.5037 27.1693L83.4218 27.736ZM90.9418 27.736L92.9095 28.0938L93.3382 25.736H90.9418V27.736ZM87.8698 33.24L86.6055 31.6902L86.5955 31.6985L87.8698 33.24ZM77.1498 34.104L76.2015 35.865L76.2127 35.8709L77.1498 34.104ZM73.8858 30.904L72.13 31.8617L72.1386 31.8776L72.1476 31.8934L73.8858 30.904ZM74.7338 25.976C74.7338 24.3751 75.0594 23.0888 75.6353 22.049L72.1362 20.111C71.1761 21.8445 70.7338 23.8222 70.7338 25.976H74.7338ZM75.6303 22.058C76.2388 20.9726 77.0544 20.1709 78.0979 19.6089L76.2016 16.0871C74.4718 17.0185 73.1114 18.3714 72.1412 20.102L75.6303 22.058ZM78.0868 19.6149C79.1718 19.0395 80.4432 18.728 81.9498 18.728V14.728C79.8723 14.728 77.9437 15.1632 76.2127 16.0811L78.0868 19.6149ZM81.9498 18.728C83.8956 18.728 85.4006 19.2657 86.5955 20.2535L89.144 17.1705C87.1389 15.5129 84.6973 14.728 81.9498 14.728V18.728ZM86.6055 20.2617C87.8066 21.2416 88.6198 22.6259 88.974 24.5738L92.9095 23.8582C92.4103 21.1128 91.1756 18.8278 89.134 17.1623L86.6055 20.2617ZM90.9418 22.216H83.4218V26.216H90.9418V22.216ZM85.3398 23.6493C85.1306 22.9412 84.7623 22.2065 84.1122 21.6457C83.4302 21.0573 82.6091 20.808 81.7898 20.808V24.808C81.7984 24.808 81.7599 24.809 81.693 24.7858C81.6228 24.7615 81.5544 24.7218 81.4993 24.6743C81.3932 24.5828 81.4356 24.5521 81.5037 24.7827L85.3398 23.6493ZM81.7898 20.808C80.455 20.808 79.3947 21.49 78.7292 22.5299L82.0983 24.6861C82.1305 24.6358 82.113 24.6823 82.019 24.737C81.9742 24.7631 81.9257 24.7826 81.8789 24.7947C81.833 24.8065 81.8011 24.808 81.7898 24.808V20.808ZM78.6988 22.579C78.105 23.5685 77.9338 24.7869 77.9338 25.976H81.9338C81.9338 25.0744 82.0825 24.7141 82.1287 24.637L78.6988 22.579ZM77.9338 25.976C77.9338 27.1651 78.105 28.3835 78.6988 29.373L82.1287 27.315C82.0825 27.2379 81.9338 26.8776 81.9338 25.976H77.9338ZM78.7292 29.4221C79.3947 30.462 80.455 31.144 81.7898 31.144V27.144C81.8011 27.144 81.833 27.1455 81.8789 27.1573C81.9257 27.1694 81.9742 27.1889 82.019 27.215C82.113 27.2697 82.1305 27.3162 82.0983 27.2659L78.7292 29.4221ZM81.7898 31.144C82.6091 31.144 83.4302 30.8947 84.1122 30.3063C84.7623 29.7455 85.1306 29.0108 85.3398 28.3027L81.5037 27.1693C81.4356 27.3999 81.3932 27.3692 81.4993 27.2777C81.5544 27.2302 81.6228 27.1905 81.693 27.1662C81.7599 27.143 81.7984 27.144 81.7898 27.144V31.144ZM83.4218 29.736H90.9418V25.736H83.4218V29.736ZM88.974 27.3782C88.6198 29.3261 87.8066 30.7104 86.6055 31.6903L89.134 34.7897C91.1756 33.1242 92.4103 30.8392 92.9095 28.0938L88.974 27.3782ZM86.5955 31.6985C85.4006 32.6863 83.8956 33.224 81.9498 33.224V37.224C84.6973 37.224 87.1389 36.4391 89.144 34.7815L86.5955 31.6985ZM81.9498 33.224C80.4432 33.224 79.1718 32.9125 78.0868 32.3371L76.2127 35.8709C77.9437 36.7888 79.8723 37.224 81.9498 37.224V33.224ZM78.0979 32.3431C77.0463 31.7768 76.2301 30.9796 75.6239 29.9146L72.1476 31.8934C73.1201 33.6017 74.4798 34.9379 76.2016 35.8649L78.0979 32.3431ZM75.6415 29.9463C75.0591 28.8786 74.7338 27.576 74.7338 25.976H70.7338C70.7338 28.1307 71.1764 30.1134 72.13 31.8617L75.6415 29.9463ZM93.1938 21.048L91.3835 20.1977L91.3778 20.2099L93.1938 21.048ZM95.8818 17.848L96.9617 19.5314L96.9728 19.5242L96.9839 19.5169L95.8818 17.848ZM102.73 17.464L101.733 19.1978L101.749 19.2073L101.766 19.2164L102.73 17.464ZM104.682 19.416L102.921 20.3642L106.682 19.416H104.682ZM104.682 16.952V14.952H102.682V16.952H104.682ZM111.754 16.952H113.754V14.952H111.754V16.952ZM111.754 35V37H113.754V35H111.754ZM104.682 35H102.682V37H104.682V35ZM104.682 32.536H106.682L102.921 31.5878L104.682 32.536ZM102.73 34.52L103.694 36.2724L103.71 36.2633L103.727 36.2538L102.73 34.52ZM95.8818 34.136L94.7796 35.8049L94.7907 35.8122L94.8018 35.8194L95.8818 34.136ZM93.1938 30.936L91.373 31.7636L91.3806 31.7803L91.3885 31.7969L93.1938 30.936ZM103.946 23.736L105.418 22.3819L105.418 22.3819L103.946 23.736ZM100.17 23.736L98.6979 22.3819L98.6979 22.3819L100.17 23.736ZM94.2338 25.976C94.2338 24.2982 94.5167 22.9542 95.0097 21.8861L91.3778 20.2099C90.5908 21.9151 90.2338 23.8565 90.2338 25.976H94.2338ZM95.004 21.8983C95.531 20.7763 96.1955 20.0229 96.9617 19.5314L94.8018 16.1646C93.3066 17.1238 92.1792 18.5037 91.3835 20.1977L95.004 21.8983ZM96.9839 19.5169C97.7743 18.995 98.6574 18.728 99.6898 18.728V14.728C97.9061 14.728 96.2506 15.2077 94.7796 16.1791L96.9839 19.5169ZM99.6898 18.728C100.581 18.728 101.236 18.9123 101.733 19.1978L103.727 15.7302C102.517 15.0344 101.146 14.728 99.6898 14.728V18.728ZM101.766 19.2164C102.293 19.5061 102.661 19.8823 102.921 20.3642L106.443 18.4678C105.806 17.2857 104.874 16.3606 103.694 15.7116L101.766 19.2164ZM106.682 19.416V16.952H102.682V19.416H106.682ZM104.682 18.952H111.754V14.952H104.682V18.952ZM109.754 16.952V35H113.754V16.952H109.754ZM111.754 33H104.682V37H111.754V33ZM106.682 35V32.536H102.682V35H106.682ZM102.921 31.5878C102.657 32.0779 102.277 32.473 101.733 32.7862L103.727 36.2538C104.889 35.5856 105.811 34.6581 106.443 33.4842L102.921 31.5878ZM101.766 32.7676C101.263 33.0443 100.595 33.224 99.6898 33.224V37.224C101.131 37.224 102.49 36.9344 103.694 36.2724L101.766 32.7676ZM99.6898 33.224C98.6452 33.224 97.7541 32.961 96.9617 32.4526L94.8018 35.8194C96.2707 36.7617 97.9183 37.224 99.6898 37.224V33.224ZM96.9839 32.4671C96.1957 31.9465 95.5252 31.1784 94.999 30.0751L91.3885 31.7969C92.185 33.4669 93.3065 34.8321 94.7796 35.8049L96.9839 32.4671ZM95.0145 30.1084C94.5163 29.0125 94.2338 27.6526 94.2338 25.976H90.2338C90.2338 28.0967 90.5912 30.0435 91.373 31.7636L95.0145 30.1084ZM106.682 25.976C106.682 24.6809 106.346 23.391 105.418 22.3819L102.474 25.0901C102.527 25.1477 102.682 25.3511 102.682 25.976H106.682ZM105.418 22.3819C104.524 21.41 103.348 20.936 102.058 20.936V24.936C102.304 24.936 102.387 24.9953 102.474 25.0901L105.418 22.3819ZM102.058 20.936C100.768 20.936 99.592 21.41 98.6979 22.3819L101.642 25.0901C101.729 24.9953 101.812 24.936 102.058 24.936V20.936ZM98.6979 22.3819C97.7695 23.391 97.4338 24.6809 97.4338 25.976H101.434C101.434 25.3511 101.589 25.1477 101.642 25.0901L98.6979 22.3819ZM97.4338 25.976C97.4338 27.2711 97.7695 28.561 98.6979 29.5701L101.642 26.8619C101.589 26.8043 101.434 26.6009 101.434 25.976H97.4338ZM98.6979 29.5701C99.592 30.542 100.768 31.016 102.058 31.016V27.016C101.812 27.016 101.729 26.9567 101.642 26.8619L98.6979 29.5701ZM102.058 31.016C103.348 31.016 104.524 30.542 105.418 29.5701L102.474 26.8619C102.387 26.9567 102.304 27.016 102.058 27.016V31.016ZM105.418 29.5701C106.346 28.561 106.682 27.2711 106.682 25.976H102.682C102.682 26.6009 102.527 26.8043 102.474 26.8619L105.418 29.5701ZM126.176 28.952H128.176V26.952H126.176V28.952ZM126.176 35V37H128.176V35H126.176ZM116.064 22.872H118.064V20.872H116.064V22.872ZM113.824 22.872H111.824V24.872H113.824V22.872ZM113.824 16.952V14.952H111.824V16.952H113.824ZM116.064 16.952V18.952H118.064V16.952H116.064ZM116.064 12.6V10.6H114.064V12.6H116.064ZM123.168 12.6H125.168V10.6H123.168V12.6ZM123.168 16.952H121.168V18.952H123.168V16.952ZM126.112 16.952H128.112V14.952H126.112V16.952ZM126.112 22.872V24.872H128.112V22.872H126.112ZM123.168 22.872V20.872H121.168V22.872H123.168ZM123.456 28.664L122.042 30.0782L122.079 30.1154L122.118 30.1506L123.456 28.664ZM124.176 28.952V35H128.176V28.952H124.176ZM126.176 33H123.488V37H126.176V33ZM123.488 33C121.319 33 120.061 32.4613 119.331 31.7347C118.603 31.0098 118.064 29.7615 118.064 27.608H114.064C114.064 30.3825 114.762 32.8302 116.509 34.5693C118.254 36.3067 120.707 37 123.488 37V33ZM118.064 27.608V22.872H114.064V27.608H118.064ZM116.064 20.872H113.824V24.872H116.064V20.872ZM115.824 22.872V16.952H111.824V22.872H115.824ZM113.824 18.952H116.064V14.952H113.824V18.952ZM118.064 16.952V12.6H114.064V16.952H118.064ZM116.064 14.6H123.168V10.6H116.064V14.6ZM121.168 12.6V16.952H125.168V12.6H121.168ZM123.168 18.952H126.112V14.952H123.168V18.952ZM124.112 16.952V22.872H128.112V16.952H124.112ZM126.112 20.872H123.168V24.872H126.112V20.872ZM121.168 22.872V27.736H125.168V22.872H121.168ZM121.168 27.736C121.168 28.3992 121.308 29.3448 122.042 30.0782L124.87 27.2498C125.044 27.4236 125.12 27.5994 125.15 27.6952C125.177 27.7823 125.168 27.8082 125.168 27.736H121.168ZM122.118 30.1506C122.87 30.8279 123.811 30.952 124.48 30.952V26.952C124.373 26.952 124.361 26.9401 124.413 26.9547C124.47 26.9707 124.625 27.0253 124.794 27.1774L122.118 30.1506ZM124.48 30.952H126.176V26.952H124.48V30.952ZM140.113 28.952H142.113V26.952H140.113V28.952ZM140.113 35V37H142.113V35H140.113ZM130.001 22.872H132.001V20.872H130.001V22.872ZM127.761 22.872H125.761V24.872H127.761V22.872ZM127.761 16.952V14.952H125.761V16.952H127.761ZM130.001 16.952V18.952H132.001V16.952H130.001ZM130.001 12.6V10.6H128.001V12.6H130.001ZM137.105 12.6H139.105V10.6H137.105V12.6ZM137.105 16.952H135.105V18.952H137.105V16.952ZM140.049 16.952H142.049V14.952H140.049V16.952ZM140.049 22.872V24.872H142.049V22.872H140.049ZM137.105 22.872V20.872H135.105V22.872H137.105ZM137.393 28.664L135.979 30.0782L136.016 30.1154L136.055 30.1506L137.393 28.664ZM138.113 28.952V35H142.113V28.952H138.113ZM140.113 33H137.425V37H140.113V33ZM137.425 33C135.257 33 133.998 32.4613 133.268 31.7347C132.54 31.0098 132.001 29.7615 132.001 27.608H128.001C128.001 30.3825 128.7 32.8302 130.446 34.5693C132.191 36.3067 134.644 37 137.425 37V33ZM132.001 27.608V22.872H128.001V27.608H132.001ZM130.001 20.872H127.761V24.872H130.001V20.872ZM129.761 22.872V16.952H125.761V22.872H129.761ZM127.761 18.952H130.001V14.952H127.761V18.952ZM132.001 16.952V12.6H128.001V16.952H132.001ZM130.001 14.6H137.105V10.6H130.001V14.6ZM135.105 12.6V16.952H139.105V12.6H135.105ZM137.105 18.952H140.049V14.952H137.105V18.952ZM138.049 16.952V22.872H142.049V16.952H138.049ZM140.049 20.872H137.105V24.872H140.049V20.872ZM135.105 22.872V27.736H139.105V22.872H135.105ZM135.105 27.736C135.105 28.3992 135.246 29.3448 135.979 30.0782L138.807 27.2498C138.981 27.4236 139.058 27.5994 139.087 27.6952C139.114 27.7823 139.105 27.8082 139.105 27.736H135.105ZM136.055 30.1506C136.808 30.8279 137.749 30.952 138.417 30.952V26.952C138.31 26.952 138.299 26.9401 138.351 26.9547C138.408 26.9707 138.562 27.0253 138.731 27.1774L136.055 30.1506ZM138.417 30.952H140.113V26.952H138.417V30.952ZM146.499 34.104L147.414 32.3257L146.499 34.104ZM143.075 30.904L141.342 31.9019L141.35 31.9175L141.36 31.933L143.075 30.904ZM143.075 21.08L141.353 20.0625L141.348 20.0706L143.075 21.08ZM146.499 17.848L147.414 19.6263L147.414 19.6263L146.499 17.848ZM156.291 17.848L155.375 19.6263L155.375 19.6263L156.291 17.848ZM159.683 21.08L157.95 22.0779L157.958 22.0935L157.968 22.109L159.683 21.08ZM159.683 30.904L157.961 29.8865L157.956 29.8946L159.683 30.904ZM156.291 34.104L155.375 32.3257L155.375 32.3257L156.291 34.104ZM153.059 28.312L154.564 29.629L154.577 29.6138L154.59 29.5984L153.059 28.312ZM153.059 23.672L151.527 24.9584L151.54 24.9738L151.554 24.989L153.059 23.672ZM149.731 23.672L151.236 24.989L151.249 24.9738L151.262 24.9584L149.731 23.672ZM149.699 28.312L148.137 29.5614L148.165 29.5958L148.194 29.629L149.699 28.312ZM151.395 33.224C149.864 33.224 148.551 32.9111 147.414 32.3257L145.583 35.8823C147.348 36.7903 149.299 37.224 151.395 37.224V33.224ZM147.414 32.3257C146.291 31.7479 145.428 30.9393 144.79 29.875L141.36 31.933C142.385 33.642 143.805 34.9668 145.583 35.8823L147.414 32.3257ZM144.808 29.9061C144.198 28.8461 143.859 27.5582 143.859 25.976H139.859C139.859 28.1485 140.33 30.1459 141.342 31.9019L144.808 29.9061ZM143.859 25.976C143.859 24.3929 144.198 23.1215 144.801 22.0894L141.348 20.0706C140.33 21.8118 139.859 23.8044 139.859 25.976H143.859ZM144.797 22.0975C145.437 21.0132 146.299 20.2 147.414 19.6263L145.583 16.0697C143.797 16.9894 142.376 18.3308 141.353 20.0625L144.797 22.0975ZM147.414 19.6263C148.551 19.0409 149.864 18.728 151.395 18.728V14.728C149.299 14.728 147.348 15.1617 145.583 16.0697L147.414 19.6263ZM151.395 18.728C152.926 18.728 154.238 19.0409 155.375 19.6263L157.206 16.0697C155.442 15.1617 153.49 14.728 151.395 14.728V18.728ZM155.375 19.6263C156.486 20.1977 157.332 21.0048 157.95 22.0779L161.416 20.0821C160.413 18.3392 158.997 16.9916 157.206 16.0697L155.375 19.6263ZM157.968 22.109C158.585 23.1377 158.931 24.402 158.931 25.976H162.931C162.931 23.7954 162.445 21.7956 161.398 20.051L157.968 22.109ZM158.931 25.976C158.931 27.5492 158.585 28.8299 157.961 29.8865L161.405 31.9215C162.444 30.1621 162.931 28.1574 162.931 25.976H158.931ZM157.956 29.8946C157.341 30.9477 156.494 31.7501 155.375 32.3257L157.206 35.8823C158.989 34.9645 160.404 33.6337 161.409 31.9134L157.956 29.8946ZM155.375 32.3257C154.238 32.9111 152.926 33.224 151.395 33.224V37.224C153.49 37.224 155.442 36.7903 157.206 35.8823L155.375 32.3257ZM151.395 31.08C152.651 31.08 153.749 30.5608 154.564 29.629L151.554 26.995C151.522 27.031 151.499 27.0506 151.487 27.0602C151.475 27.0695 151.469 27.072 151.469 27.0721C151.469 27.0721 151.466 27.0733 151.459 27.0749C151.451 27.0766 151.43 27.08 151.395 27.08V31.08ZM154.59 29.5984C155.455 28.5687 155.731 27.2556 155.731 25.976H151.731C151.731 26.7444 151.558 26.9886 151.527 27.0256L154.59 29.5984ZM155.731 25.976C155.731 24.7044 155.458 23.3772 154.564 22.355L151.554 24.989C151.555 24.9908 151.731 25.1996 151.731 25.976H155.731ZM154.59 22.3856C153.785 21.4274 152.682 20.872 151.395 20.872V24.872C151.425 24.872 151.44 24.875 151.442 24.8756C151.445 24.8761 151.443 24.8758 151.44 24.8745C151.438 24.8733 151.443 24.8752 151.455 24.8854C151.469 24.8959 151.493 24.918 151.527 24.9584L154.59 22.3856ZM151.395 20.872C150.108 20.872 149.004 21.4274 148.199 22.3856L151.262 24.9584C151.296 24.918 151.321 24.8959 151.334 24.8854C151.347 24.8752 151.352 24.8733 151.349 24.8745C151.347 24.8758 151.345 24.8761 151.347 24.8756C151.35 24.875 151.365 24.872 151.395 24.872V20.872ZM148.226 22.355C147.331 23.3772 147.059 24.7044 147.059 25.976H151.059C151.059 25.1996 151.234 24.9908 151.236 24.989L148.226 22.355ZM147.059 25.976C147.059 27.2369 147.316 28.5346 148.137 29.5614L151.26 27.0626C151.229 27.0228 151.059 26.7631 151.059 25.976H147.059ZM148.194 29.629C149.023 30.5768 150.138 31.08 151.395 31.08V27.08C151.35 27.08 151.321 27.0758 151.307 27.0728C151.292 27.0699 151.286 27.0671 151.284 27.0661C151.281 27.0651 151.276 27.0622 151.265 27.0541C151.254 27.0456 151.233 27.0279 151.204 26.995L148.194 29.629Z" fill="black" mask="url(#path-3-outside-2_17_8)"/>
</g>
<defs>
<filter id="filter0_d_17_8" x="0.600098" y="12.6001" width="164.331" height="30.624" filterUnits="userSpaceOnUse" color-interpolation-filters="sRGB">
<feFlood flood-opacity="0" result="BackgroundImageFix"/>
<feColorMatrix in="SourceAlpha" type="matrix" values="0 0 0 0 0 0 0 0 0 0 0 0 0 0 0 0 0 0 127 0" result="hardAlpha"/>
<feOffset dy="4"/>
<feGaussianBlur stdDeviation="2"/>
<feComposite in2="hardAlpha" operator="out"/>
<feColorMatrix type="matrix" values="0 0 0 0 0 0 0 0 0 0 0 0 0 0 0 0 0 0 0.25 0"/>
<feBlend mode="normal" in2="BackgroundImageFix" result="effect1_dropShadow_17_8"/>
<feBlend mode="normal" in="SourceGraphic" in2="effect1_dropShadow_17_8" result="shape"/>
</filter>
<filter id="filter1_d_17_8" x="0.600098" y="12.6001" width="164.331" height="30.624" filterUnits="userSpaceOnUse" color-interpolation-filters="sRGB">
<feFlood flood-opacity="0" result="BackgroundImageFix"/>
<feColorMatrix in="SourceAlpha" type="matrix" values="0 0 0 0 0 0 0 0 0 0 0 0 0 0 0 0 0 0 127 0" result="hardAlpha"/>
<feOffset dy="4"/>
<feGaussianBlur stdDeviation="2"/>
<feComposite in2="hardAlpha" operator="out"/>
<feColorMatrix type="matrix" values="0 0 0 0 0 0 0 0 0 0 0 0 0 0 0 0 0 0 0.25 0"/>
<feBlend mode="normal" in2="BackgroundImageFix" result="effect1_dropShadow_17_8"/>
<feBlend mode="normal" in="SourceGraphic" in2="effect1_dropShadow_17_8" result="shape"/>
</filter>
</defs>
</svg>
