<svg width="179" height="48" viewBox="0 0 179 48" fill="none" xmlns="http://www.w3.org/2000/svg">
<g filter="url(#filter0_d_25_13)">
<mask id="path-1-outside-1_25_13" maskUnits="userSpaceOnUse" x="4" y="10" width="161" height="28" fill="black">
<rect fill="white" x="4" y="10" width="161" height="28"/>
<path d="M30.696 16.824C33 16.824 34.7813 17.5173 36.04 18.904C37.32 20.2907 37.96 22.168 37.96 24.536V35H30.888V25.432C30.888 24.664 30.6533 24.0667 30.184 23.64C29.736 23.192 29.128 22.968 28.36 22.968C27.5707 22.968 26.952 23.192 26.504 23.64C26.056 24.0667 25.832 24.664 25.832 25.432V35H18.76V25.432C18.76 24.664 18.5253 24.0667 18.056 23.64C17.608 23.192 17 22.968 16.232 22.968C15.4427 22.968 14.824 23.192 14.376 23.64C13.928 24.0667 13.704 24.664 13.704 25.432V35H6.6V16.952H13.704V19.384C14.216 18.616 14.9093 17.9973 15.784 17.528C16.68 17.0587 17.7253 16.824 18.92 16.824C20.2213 16.824 21.3733 17.112 22.376 17.688C23.3787 18.2427 24.1787 19.032 24.776 20.056C25.4373 19.1173 26.28 18.3493 27.304 17.752C28.328 17.1333 29.4587 16.824 30.696 16.824ZM58.5095 25.816C58.5095 26.3067 58.4775 26.776 58.4135 27.224H46.9895C47.0962 28.7813 47.7468 29.56 48.9415 29.56C49.7095 29.56 50.2642 29.208 50.6055 28.504H58.1255C57.8695 29.784 57.3255 30.936 56.4935 31.96C55.6828 32.9627 54.6482 33.7627 53.3895 34.36C52.1522 34.936 50.7868 35.224 49.2935 35.224C47.5015 35.224 45.9015 34.8507 44.4935 34.104C43.1068 33.3573 42.0188 32.2907 41.2295 30.904C40.4615 29.496 40.0775 27.8533 40.0775 25.976C40.0775 24.0987 40.4615 22.4667 41.2295 21.08C42.0188 19.672 43.1068 18.5947 44.4935 17.848C45.9015 17.1013 47.5015 16.728 49.2935 16.728C51.0855 16.728 52.6748 17.1013 54.0615 17.848C55.4695 18.5733 56.5575 19.6187 57.3255 20.984C58.1148 22.3493 58.5095 23.96 58.5095 25.816ZM51.3095 24.12C51.3095 23.5227 51.1175 23.0747 50.7335 22.776C50.3495 22.456 49.8695 22.296 49.2935 22.296C48.0348 22.296 47.2988 22.904 47.0855 24.12H51.3095ZM67.8603 20.28C68.5856 19.2347 69.4709 18.4027 70.5163 17.784C71.5616 17.144 72.6496 16.824 73.7803 16.824V24.408H71.7643C70.4203 24.408 69.4283 24.6427 68.7883 25.112C68.1696 25.5813 67.8603 26.4133 67.8603 27.608V35H60.7563V16.952H67.8603V20.28ZM74.7338 25.976C74.7338 24.0987 75.1178 22.4667 75.8858 21.08C76.6751 19.672 77.7631 18.5947 79.1498 17.848C80.5578 17.1013 82.1578 16.728 83.9498 16.728C86.2964 16.728 88.2698 17.3893 89.8698 18.712C91.4911 20.0347 92.5151 21.8693 92.9418 24.216H85.4218C85.1444 23.2773 84.6004 22.808 83.7898 22.808C83.2138 22.808 82.7551 23.0747 82.4138 23.608C82.0938 24.1413 81.9338 24.9307 81.9338 25.976C81.9338 27.0213 82.0938 27.8107 82.4138 28.344C82.7551 28.8773 83.2138 29.144 83.7898 29.144C84.6004 29.144 85.1444 28.6747 85.4218 27.736H92.9418C92.5151 30.0827 91.4911 31.9173 89.8698 33.24C88.2698 34.5627 86.2964 35.224 83.9498 35.224C82.1578 35.224 80.5578 34.8507 79.1498 34.104C77.7631 33.3573 76.6751 32.2907 75.8858 30.904C75.1178 29.496 74.7338 27.8533 74.7338 25.976ZM94.2338 25.976C94.2338 24.0773 94.5538 22.4347 95.1938 21.048C95.8551 19.64 96.7511 18.5733 97.8818 17.848C99.0124 17.1013 100.282 16.728 101.69 16.728C102.863 16.728 103.876 16.9733 104.73 17.464C105.583 17.9333 106.234 18.584 106.682 19.416V16.952H113.754V35H106.682V32.536C106.234 33.368 105.583 34.0293 104.73 34.52C103.876 34.9893 102.863 35.224 101.69 35.224C100.282 35.224 99.0124 34.8613 97.8818 34.136C96.7511 33.3893 95.8551 32.3227 95.1938 30.936C94.5538 29.528 94.2338 27.8747 94.2338 25.976ZM106.682 25.976C106.682 25.016 106.436 24.2693 105.946 23.736C105.455 23.2027 104.826 22.936 104.058 22.936C103.29 22.936 102.66 23.2027 102.17 23.736C101.679 24.2693 101.434 25.016 101.434 25.976C101.434 26.936 101.679 27.6827 102.17 28.216C102.66 28.7493 103.29 29.016 104.058 29.016C104.826 29.016 105.455 28.7493 105.946 28.216C106.436 27.6827 106.682 26.936 106.682 25.976ZM128.176 28.952V35H125.488C120.538 35 118.064 32.536 118.064 27.608V22.872H115.824V16.952H118.064V12.6H125.168V16.952H128.112V22.872H125.168V27.736C125.168 28.1627 125.264 28.472 125.456 28.664C125.669 28.856 126.01 28.952 126.48 28.952H128.176ZM142.113 28.952V35H139.425C134.476 35 132.001 32.536 132.001 27.608V22.872H129.761V16.952H132.001V12.6H139.105V16.952H142.049V22.872H139.105V27.736C139.105 28.1627 139.201 28.472 139.393 28.664C139.607 28.856 139.948 28.952 140.417 28.952H142.113ZM153.395 35.224C151.581 35.224 149.949 34.8507 148.499 34.104C147.048 33.3573 145.907 32.2907 145.075 30.904C144.264 29.496 143.859 27.8533 143.859 25.976C143.859 24.0987 144.264 22.4667 145.075 21.08C145.907 19.672 147.048 18.5947 148.499 17.848C149.949 17.1013 151.581 16.728 153.395 16.728C155.208 16.728 156.84 17.1013 158.291 17.848C159.741 18.5947 160.872 19.672 161.683 21.08C162.515 22.4667 162.931 24.0987 162.931 25.976C162.931 27.8533 162.515 29.496 161.683 30.904C160.872 32.2907 159.741 33.3573 158.291 34.104C156.84 34.8507 155.208 35.224 153.395 35.224ZM153.395 29.08C154.056 29.08 154.611 28.824 155.059 28.312C155.507 27.7787 155.731 27 155.731 25.976C155.731 24.952 155.507 24.184 155.059 23.672C154.611 23.1387 154.056 22.872 153.395 22.872C152.733 22.872 152.179 23.1387 151.731 23.672C151.283 24.184 151.059 24.952 151.059 25.976C151.059 27 151.272 27.7787 151.699 28.312C152.147 28.824 152.712 29.08 153.395 29.08Z"/>
</mask>
<path d="M30.696 16.824C33 16.824 34.7813 17.5173 36.04 18.904C37.32 20.2907 37.96 22.168 37.96 24.536V35H30.888V25.432C30.888 24.664 30.6533 24.0667 30.184 23.64C29.736 23.192 29.128 22.968 28.36 22.968C27.5707 22.968 26.952 23.192 26.504 23.64C26.056 24.0667 25.832 24.664 25.832 25.432V35H18.76V25.432C18.76 24.664 18.5253 24.0667 18.056 23.64C17.608 23.192 17 22.968 16.232 22.968C15.4427 22.968 14.824 23.192 14.376 23.64C13.928 24.0667 13.704 24.664 13.704 25.432V35H6.6V16.952H13.704V19.384C14.216 18.616 14.9093 17.9973 15.784 17.528C16.68 17.0587 17.7253 16.824 18.92 16.824C20.2213 16.824 21.3733 17.112 22.376 17.688C23.3787 18.2427 24.1787 19.032 24.776 20.056C25.4373 19.1173 26.28 18.3493 27.304 17.752C28.328 17.1333 29.4587 16.824 30.696 16.824ZM58.5095 25.816C58.5095 26.3067 58.4775 26.776 58.4135 27.224H46.9895C47.0962 28.7813 47.7468 29.56 48.9415 29.56C49.7095 29.56 50.2642 29.208 50.6055 28.504H58.1255C57.8695 29.784 57.3255 30.936 56.4935 31.96C55.6828 32.9627 54.6482 33.7627 53.3895 34.36C52.1522 34.936 50.7868 35.224 49.2935 35.224C47.5015 35.224 45.9015 34.8507 44.4935 34.104C43.1068 33.3573 42.0188 32.2907 41.2295 30.904C40.4615 29.496 40.0775 27.8533 40.0775 25.976C40.0775 24.0987 40.4615 22.4667 41.2295 21.08C42.0188 19.672 43.1068 18.5947 44.4935 17.848C45.9015 17.1013 47.5015 16.728 49.2935 16.728C51.0855 16.728 52.6748 17.1013 54.0615 17.848C55.4695 18.5733 56.5575 19.6187 57.3255 20.984C58.1148 22.3493 58.5095 23.96 58.5095 25.816ZM51.3095 24.12C51.3095 23.5227 51.1175 23.0747 50.7335 22.776C50.3495 22.456 49.8695 22.296 49.2935 22.296C48.0348 22.296 47.2988 22.904 47.0855 24.12H51.3095ZM67.8603 20.28C68.5856 19.2347 69.4709 18.4027 70.5163 17.784C71.5616 17.144 72.6496 16.824 73.7803 16.824V24.408H71.7643C70.4203 24.408 69.4283 24.6427 68.7883 25.112C68.1696 25.5813 67.8603 26.4133 67.8603 27.608V35H60.7563V16.952H67.8603V20.28ZM74.7338 25.976C74.7338 24.0987 75.1178 22.4667 75.8858 21.08C76.6751 19.672 77.7631 18.5947 79.1498 17.848C80.5578 17.1013 82.1578 16.728 83.9498 16.728C86.2964 16.728 88.2698 17.3893 89.8698 18.712C91.4911 20.0347 92.5151 21.8693 92.9418 24.216H85.4218C85.1444 23.2773 84.6004 22.808 83.7898 22.808C83.2138 22.808 82.7551 23.0747 82.4138 23.608C82.0938 24.1413 81.9338 24.9307 81.9338 25.976C81.9338 27.0213 82.0938 27.8107 82.4138 28.344C82.7551 28.8773 83.2138 29.144 83.7898 29.144C84.6004 29.144 85.1444 28.6747 85.4218 27.736H92.9418C92.5151 30.0827 91.4911 31.9173 89.8698 33.24C88.2698 34.5627 86.2964 35.224 83.9498 35.224C82.1578 35.224 80.5578 34.8507 79.1498 34.104C77.7631 33.3573 76.6751 32.2907 75.8858 30.904C75.1178 29.496 74.7338 27.8533 74.7338 25.976ZM94.2338 25.976C94.2338 24.0773 94.5538 22.4347 95.1938 21.048C95.8551 19.64 96.7511 18.5733 97.8818 17.848C99.0124 17.1013 100.282 16.728 101.69 16.728C102.863 16.728 103.876 16.9733 104.73 17.464C105.583 17.9333 106.234 18.584 106.682 19.416V16.952H113.754V35H106.682V32.536C106.234 33.368 105.583 34.0293 104.73 34.52C103.876 34.9893 102.863 35.224 101.69 35.224C100.282 35.224 99.0124 34.8613 97.8818 34.136C96.7511 33.3893 95.8551 32.3227 95.1938 30.936C94.5538 29.528 94.2338 27.8747 94.2338 25.976ZM106.682 25.976C106.682 25.016 106.436 24.2693 105.946 23.736C105.455 23.2027 104.826 22.936 104.058 22.936C103.29 22.936 102.66 23.2027 102.17 23.736C101.679 24.2693 101.434 25.016 101.434 25.976C101.434 26.936 101.679 27.6827 102.17 28.216C102.66 28.7493 103.29 29.016 104.058 29.016C104.826 29.016 105.455 28.7493 105.946 28.216C106.436 27.6827 106.682 26.936 106.682 25.976ZM128.176 28.952V35H125.488C120.538 35 118.064 32.536 118.064 27.608V22.872H115.824V16.952H118.064V12.6H125.168V16.952H128.112V22.872H125.168V27.736C125.168 28.1627 125.264 28.472 125.456 28.664C125.669 28.856 126.01 28.952 126.48 28.952H128.176ZM142.113 28.952V35H139.425C134.476 35 132.001 32.536 132.001 27.608V22.872H129.761V16.952H132.001V12.6H139.105V16.952H142.049V22.872H139.105V27.736C139.105 28.1627 139.201 28.472 139.393 28.664C139.607 28.856 139.948 28.952 140.417 28.952H142.113ZM153.395 35.224C151.581 35.224 149.949 34.8507 148.499 34.104C147.048 33.3573 145.907 32.2907 145.075 30.904C144.264 29.496 143.859 27.8533 143.859 25.976C143.859 24.0987 144.264 22.4667 145.075 21.08C145.907 19.672 147.048 18.5947 148.499 17.848C149.949 17.1013 151.581 16.728 153.395 16.728C155.208 16.728 156.84 17.1013 158.291 17.848C159.741 18.5947 160.872 19.672 161.683 21.08C162.515 22.4667 162.931 24.0987 162.931 25.976C162.931 27.8533 162.515 29.496 161.683 30.904C160.872 32.2907 159.741 33.3573 158.291 34.104C156.84 34.8507 155.208 35.224 153.395 35.224ZM153.395 29.08C154.056 29.08 154.611 28.824 155.059 28.312C155.507 27.7787 155.731 27 155.731 25.976C155.731 24.952 155.507 24.184 155.059 23.672C154.611 23.1387 154.056 22.872 153.395 22.872C152.733 22.872 152.179 23.1387 151.731 23.672C151.283 24.184 151.059 24.952 151.059 25.976C151.059 27 151.272 27.7787 151.699 28.312C152.147 28.824 152.712 29.08 153.395 29.08Z" fill="black"/>
<path d="M36.04 18.904L34.5591 20.2482L34.5647 20.2544L34.5704 20.2606L36.04 18.904ZM37.96 35V37H39.96V35H37.96ZM30.888 35H28.888V37H30.888V35ZM30.184 23.64L28.7698 25.0542L28.8034 25.0879L28.8387 25.1199L30.184 23.64ZM26.504 23.64L27.8833 25.0883L27.901 25.0715L27.9182 25.0542L26.504 23.64ZM25.832 35V37H27.832V35H25.832ZM18.76 35H16.76V37H18.76V35ZM18.056 23.64L16.6418 25.0542L16.6754 25.0879L16.7107 25.1199L18.056 23.64ZM14.376 23.64L15.7553 25.0883L15.773 25.0715L15.7902 25.0542L14.376 23.64ZM13.704 35V37H15.704V35H13.704ZM6.6 35H4.6V37H6.6V35ZM6.6 16.952V14.952H4.6V16.952H6.6ZM13.704 16.952H15.704V14.952H13.704V16.952ZM13.704 19.384H11.704V25.9896L15.3681 20.4934L13.704 19.384ZM15.784 17.528L14.856 15.7563L14.8472 15.761L14.8384 15.7657L15.784 17.528ZM22.376 17.688L21.3798 19.4222L21.3938 19.4303L21.4079 19.4381L22.376 17.688ZM24.776 20.056L23.0484 21.0637L24.6175 23.7535L26.411 21.2079L24.776 20.056ZM27.304 17.752L28.3117 19.4796L28.325 19.4718L28.3382 19.4638L27.304 17.752ZM30.696 18.824C32.5761 18.824 33.7644 19.3727 34.5591 20.2482L37.5209 17.5598C35.7982 15.6619 33.4239 14.824 30.696 14.824V18.824ZM34.5704 20.2606C35.4285 21.1902 35.96 22.5373 35.96 24.536H39.96C39.96 21.7987 39.2115 19.3912 37.5096 17.5474L34.5704 20.2606ZM35.96 24.536V35H39.96V24.536H35.96ZM37.96 33H30.888V37H37.96V33ZM32.888 35V25.432H28.888V35H32.888ZM32.888 25.432C32.888 24.2293 32.5022 23.0446 31.5294 22.1601L28.8387 25.1199C28.8433 25.1241 28.8441 25.123 28.8505 25.1393C28.8602 25.1641 28.888 25.2502 28.888 25.432H32.888ZM31.5982 22.2258C30.698 21.3256 29.5384 20.968 28.36 20.968V24.968C28.5508 24.968 28.6548 24.9958 28.7006 25.0127C28.7394 25.027 28.7552 25.0396 28.7698 25.0542L31.5982 22.2258ZM28.36 20.968C27.1781 20.968 26.0003 21.3153 25.0898 22.2258L27.9182 25.0542C27.9269 25.0456 27.9403 25.0327 27.9849 25.0165C28.0372 24.9976 28.1524 24.968 28.36 24.968V20.968ZM25.1247 22.1917C24.1887 23.0832 23.832 24.2576 23.832 25.432H27.832C27.832 25.2403 27.8601 25.1438 27.8727 25.1102C27.8759 25.1017 27.8784 25.0962 27.8799 25.0933C27.8807 25.0918 27.8812 25.0908 27.8816 25.0902C27.8819 25.0896 27.8821 25.0893 27.8821 25.0893C27.8821 25.0893 27.882 25.0894 27.8819 25.0896C27.8817 25.0898 27.8816 25.09 27.8815 25.0901C27.8812 25.0904 27.8817 25.0898 27.8833 25.0883L25.1247 22.1917ZM23.832 25.432V35H27.832V25.432H23.832ZM25.832 33H18.76V37H25.832V33ZM20.76 35V25.432H16.76V35H20.76ZM20.76 25.432C20.76 24.2293 20.3742 23.0446 19.4013 22.1601L16.7107 25.1199C16.7153 25.1241 16.7161 25.123 16.7225 25.1393C16.7322 25.1641 16.76 25.2502 16.76 25.432H20.76ZM19.4702 22.2258C18.57 21.3256 17.4104 20.968 16.232 20.968V24.968C16.4228 24.968 16.5268 24.9958 16.5726 25.0127C16.6114 25.027 16.6272 25.0396 16.6418 25.0542L19.4702 22.2258ZM16.232 20.968C15.0501 20.968 13.8723 21.3153 12.9618 22.2258L15.7902 25.0542C15.7989 25.0456 15.8123 25.0327 15.8569 25.0165C15.9092 24.9976 16.0244 24.968 16.232 24.968V20.968ZM12.9967 22.1917C12.0607 23.0832 11.704 24.2576 11.704 25.432H15.704C15.704 25.2403 15.7321 25.1438 15.7447 25.1102C15.7479 25.1017 15.7504 25.0962 15.7519 25.0933C15.7527 25.0918 15.7532 25.0908 15.7536 25.0902C15.7539 25.0896 15.7541 25.0893 15.7541 25.0893C15.7541 25.0893 15.754 25.0894 15.7539 25.0896C15.7537 25.0898 15.7536 25.09 15.7535 25.0901C15.7532 25.0904 15.7537 25.0898 15.7553 25.0883L12.9967 22.1917ZM11.704 25.432V35H15.704V25.432H11.704ZM13.704 33H6.6V37H13.704V33ZM8.6 35V16.952H4.6V35H8.6ZM6.6 18.952H13.704V14.952H6.6V18.952ZM11.704 16.952V19.384H15.704V16.952H11.704ZM15.3681 20.4934C15.6843 20.0192 16.122 19.6164 16.7296 19.2903L14.8384 15.7657C13.6966 16.3783 12.7477 17.2128 12.0399 18.2746L15.3681 20.4934ZM16.712 19.2997C17.274 19.0053 17.9902 18.824 18.92 18.824V14.824C17.4605 14.824 16.086 15.1121 14.856 15.7563L16.712 19.2997ZM18.92 18.824C19.9164 18.824 20.7168 19.0414 21.3798 19.4222L23.3722 15.9538C22.0299 15.1826 20.5262 14.824 18.92 14.824V18.824ZM21.4079 19.4381C22.0839 19.812 22.6262 20.3398 23.0484 21.0637L26.5036 19.0483C25.7312 17.7242 24.6734 16.6733 23.3441 15.9379L21.4079 19.4381ZM26.411 21.2079C26.9015 20.5116 27.5274 19.9371 28.3117 19.4796L26.2963 16.0244C25.0326 16.7616 23.9731 17.7231 23.141 18.9041L26.411 21.2079ZM28.3382 19.4638C29.0392 19.0403 29.8101 18.824 30.696 18.824V14.824C29.1072 14.824 27.6168 15.2263 26.2698 16.0402L28.3382 19.4638ZM58.4135 27.224V29.224H60.1481L60.3934 27.5068L58.4135 27.224ZM46.9895 27.224V25.224H44.8478L44.9942 27.3607L46.9895 27.224ZM50.6055 28.504V26.504H49.3525L48.8059 27.6315L50.6055 28.504ZM58.1255 28.504L60.0867 28.8962L60.5651 26.504H58.1255V28.504ZM56.4935 31.96L54.9413 30.6988L54.9382 30.7026L56.4935 31.96ZM53.3895 34.36L54.2336 36.1732L54.2403 36.17L54.247 36.1669L53.3895 34.36ZM44.4935 34.104L43.5453 35.865L43.5565 35.8709L44.4935 34.104ZM41.2295 30.904L39.4737 31.8617L39.4824 31.8776L39.4914 31.8934L41.2295 30.904ZM41.2295 21.08L39.4849 20.102L39.4799 20.111L41.2295 21.08ZM44.4935 17.848L43.5565 16.081L43.5453 16.0871L44.4935 17.848ZM54.0615 17.848L53.1133 19.6089L53.1294 19.6176L53.1456 19.6259L54.0615 17.848ZM57.3255 20.984L55.5823 21.9645L55.5881 21.9748L55.594 21.985L57.3255 20.984ZM51.3095 24.12V26.12H53.3095V24.12H51.3095ZM50.7335 22.776L49.4531 24.3124L49.479 24.334L49.5056 24.3547L50.7335 22.776ZM47.0855 24.12L45.1156 23.7744L44.7041 26.12H47.0855V24.12ZM56.5095 25.816C56.5095 26.2199 56.4832 26.5943 56.4336 26.9412L60.3934 27.5068C60.4718 26.9577 60.5095 26.3935 60.5095 25.816H56.5095ZM58.4135 25.224H46.9895V29.224H58.4135V25.224ZM44.9942 27.3607C45.0618 28.3479 45.3165 29.4132 46.0228 30.2584C46.797 31.185 47.8681 31.56 48.9415 31.56V27.56C48.8594 27.56 48.867 27.5468 48.925 27.5713C48.9918 27.5995 49.0535 27.6472 49.0922 27.6936C49.1241 27.7317 49.1059 27.7276 49.074 27.6292C49.0413 27.5282 49.0032 27.3552 48.9848 27.0873L44.9942 27.3607ZM48.9415 31.56C49.6397 31.56 50.3564 31.3964 51.0051 30.9847C51.6517 30.5744 52.1036 29.9985 52.4051 29.3765L48.8059 27.6315C48.7846 27.6753 48.7745 27.6838 48.7845 27.672C48.7958 27.6587 48.8214 27.633 48.8619 27.6073C48.9025 27.5815 48.9396 27.5675 48.9631 27.5613C48.9846 27.5556 48.9807 27.56 48.9415 27.56V31.56ZM50.6055 30.504H58.1255V26.504H50.6055V30.504ZM56.1643 28.1118C55.9728 29.0696 55.5707 29.9241 54.9413 30.6988L58.0457 33.2212C59.0803 31.9479 59.7662 30.4984 60.0867 28.8962L56.1643 28.1118ZM54.9382 30.7026C54.3309 31.4537 53.542 32.0738 52.532 32.5531L54.247 36.1669C55.7543 35.4515 57.0348 34.4716 58.0488 33.2174L54.9382 30.7026ZM52.5454 32.5468C51.5966 32.9886 50.523 33.224 49.2935 33.224V37.224C51.0507 37.224 52.7078 36.8834 54.2336 36.1732L52.5454 32.5468ZM49.2935 33.224C47.787 33.224 46.5156 32.9125 45.4305 32.3371L43.5565 35.8709C45.2874 36.7888 47.216 37.224 49.2935 37.224V33.224ZM45.4417 32.3431C44.3901 31.7768 43.5738 30.9796 42.9676 29.9146L39.4914 31.8934C40.4638 33.6017 41.8236 34.9379 43.5453 35.8649L45.4417 32.3431ZM42.9853 29.9463C42.4029 28.8786 42.0775 27.576 42.0775 25.976H38.0775C38.0775 28.1307 38.5201 30.1134 39.4737 31.8617L42.9853 29.9463ZM42.0775 25.976C42.0775 24.3751 42.4032 23.0888 42.9791 22.049L39.4799 20.111C38.5198 21.8445 38.0775 23.8222 38.0775 25.976H42.0775ZM42.9741 22.058C43.5826 20.9726 44.3981 20.1709 45.4417 19.6089L43.5453 16.0871C41.8155 17.0185 40.4551 18.3714 39.4849 20.102L42.9741 22.058ZM45.4305 19.6149C46.5156 19.0395 47.787 18.728 49.2935 18.728V14.728C47.216 14.728 45.2874 15.1632 43.5565 16.0811L45.4305 19.6149ZM49.2935 18.728C50.8007 18.728 52.0561 19.0397 53.1133 19.6089L55.0097 16.0871C53.2935 15.163 51.3703 14.728 49.2935 14.728V18.728ZM53.1456 19.6259C54.2099 20.1742 55.0084 20.9442 55.5823 21.9645L59.0687 20.0035C58.1066 18.2931 56.7291 16.9724 54.9774 16.0701L53.1456 19.6259ZM55.594 21.985C56.1786 22.9961 56.5095 24.2489 56.5095 25.816H60.5095C60.5095 23.6711 60.0511 21.7026 59.057 19.983L55.594 21.985ZM53.3095 24.12C53.3095 23.0614 52.9436 21.9613 51.9614 21.1973L49.5056 24.3547C49.4727 24.3291 49.4362 24.294 49.4019 24.2496C49.3677 24.2052 49.3433 24.1613 49.3272 24.1238C49.2953 24.0495 49.3095 24.0327 49.3095 24.12H53.3095ZM52.0139 21.2396C51.2166 20.5752 50.2622 20.296 49.2935 20.296V24.296C49.3958 24.296 49.443 24.31 49.453 24.3134C49.4585 24.3152 49.4589 24.3158 49.4562 24.3143C49.4535 24.3128 49.4522 24.3117 49.4531 24.3124L52.0139 21.2396ZM49.2935 20.296C48.3487 20.296 47.3506 20.527 46.5237 21.2101C45.6921 21.8971 45.2799 22.8378 45.1156 23.7744L49.0554 24.4656C49.0803 24.3239 49.1101 24.2598 49.1176 24.2454C49.1222 24.2365 49.1093 24.2625 49.0713 24.2939C49.0337 24.3249 49.0103 24.3293 49.0306 24.3231C49.0566 24.3152 49.137 24.296 49.2935 24.296V20.296ZM47.0855 26.12H51.3095V22.12H47.0855V26.12ZM67.8603 20.28H65.8603V26.6706L69.5034 21.4202L67.8603 20.28ZM70.5163 17.784L71.5349 19.5052L71.5478 19.4975L71.5606 19.4897L70.5163 17.784ZM73.7803 16.824H75.7803V14.824H73.7803V16.824ZM73.7803 24.408V26.408H75.7803V24.408H73.7803ZM68.7882 25.112L67.6055 23.4992L67.5924 23.5088L67.5795 23.5186L68.7882 25.112ZM67.8603 35V37H69.8603V35H67.8603ZM60.7562 35H58.7562V37H60.7562V35ZM60.7562 16.952V14.952H58.7562V16.952H60.7562ZM67.8603 16.952H69.8603V14.952H67.8603V16.952ZM69.5034 21.4202C70.0727 20.5997 70.7488 19.9704 71.5349 19.5052L69.4976 16.0628C68.193 16.835 67.0984 17.8697 66.2171 19.1398L69.5034 21.4202ZM71.5606 19.4897C72.3189 19.0254 73.049 18.824 73.7803 18.824V14.824C72.2502 14.824 70.8042 15.2626 69.4719 16.0783L71.5606 19.4897ZM71.7803 16.824V24.408H75.7803V16.824H71.7803ZM73.7803 22.408H71.7643V26.408H73.7803V22.408ZM71.7643 22.408C70.2608 22.408 68.7542 22.6568 67.6055 23.4992L69.971 26.7248C70.1023 26.6285 70.5797 26.408 71.7643 26.408V22.408ZM67.5795 23.5186C66.2402 24.5346 65.8603 26.1325 65.8603 27.608H69.8603C69.8603 27.1715 69.9183 26.9156 69.9669 26.785C70.0086 26.6727 70.0317 26.679 69.997 26.7054L67.5795 23.5186ZM65.8603 27.608V35H69.8603V27.608H65.8603ZM67.8603 33H60.7562V37H67.8603V33ZM62.7562 35V16.952H58.7562V35H62.7562ZM60.7562 18.952H67.8603V14.952H60.7562V18.952ZM65.8603 16.952V20.28H69.8603V16.952H65.8603ZM75.8857 21.08L74.1412 20.102L74.1362 20.111L75.8857 21.08ZM79.1497 17.848L78.2127 16.081L78.2016 16.0871L79.1497 17.848ZM89.8698 18.712L88.5954 20.2535L88.6055 20.2617L89.8698 18.712ZM92.9417 24.216V26.216H95.3382L94.9095 23.8582L92.9417 24.216ZM85.4218 24.216L83.5037 24.7827L83.9272 26.216H85.4218V24.216ZM82.4137 23.608L80.7292 22.5299L80.7136 22.5542L80.6988 22.579L82.4137 23.608ZM82.4137 28.344L80.6988 29.373L80.7136 29.3978L80.7292 29.4221L82.4137 28.344ZM85.4218 27.736V25.736H83.9272L83.5037 27.1693L85.4218 27.736ZM92.9417 27.736L94.9095 28.0938L95.3382 25.736H92.9417V27.736ZM89.8698 33.24L88.6055 31.6902L88.5955 31.6985L89.8698 33.24ZM79.1497 34.104L78.2015 35.865L78.2127 35.8709L79.1497 34.104ZM75.8857 30.904L74.13 31.8617L74.1386 31.8776L74.1476 31.8934L75.8857 30.904ZM76.7337 25.976C76.7337 24.3751 77.0594 23.0888 77.6353 22.049L74.1362 20.111C73.1761 21.8445 72.7337 23.8222 72.7337 25.976H76.7337ZM77.6303 22.058C78.2388 20.9726 79.0544 20.1709 80.0979 19.6089L78.2016 16.0871C76.4718 17.0185 75.1114 18.3714 74.1412 20.102L77.6303 22.058ZM80.0868 19.6149C81.1718 19.0395 82.4432 18.728 83.9498 18.728V14.728C81.8723 14.728 79.9437 15.1632 78.2127 16.0811L80.0868 19.6149ZM83.9498 18.728C85.8956 18.728 87.4006 19.2657 88.5955 20.2535L91.144 17.1705C89.1389 15.5129 86.6973 14.728 83.9498 14.728V18.728ZM88.6055 20.2617C89.8066 21.2416 90.6199 22.6259 90.974 24.5738L94.9095 23.8582C94.4103 21.1128 93.1756 18.8278 91.134 17.1623L88.6055 20.2617ZM92.9417 22.216H85.4218V26.216H92.9417V22.216ZM87.3398 23.6493C87.1306 22.9412 86.7623 22.2065 86.1122 21.6457C85.4302 21.0573 84.6091 20.808 83.7897 20.808V24.808C83.7984 24.808 83.7599 24.809 83.693 24.7858C83.6227 24.7614 83.5544 24.7218 83.4993 24.6743C83.3932 24.5828 83.4356 24.5521 83.5037 24.7827L87.3398 23.6493ZM83.7897 20.808C82.455 20.808 81.3947 21.49 80.7292 22.5299L84.0983 24.6861C84.1305 24.6358 84.113 24.6823 84.019 24.737C83.9742 24.7631 83.9257 24.7826 83.8789 24.7947C83.833 24.8065 83.8011 24.808 83.7897 24.808V20.808ZM80.6988 22.579C80.105 23.5685 79.9337 24.7869 79.9337 25.976H83.9337C83.9337 25.0744 84.0825 24.7141 84.1287 24.637L80.6988 22.579ZM79.9337 25.976C79.9337 27.1651 80.105 28.3835 80.6988 29.373L84.1287 27.315C84.0825 27.2379 83.9337 26.8776 83.9337 25.976H79.9337ZM80.7292 29.4221C81.3947 30.462 82.455 31.144 83.7897 31.144V27.144C83.8011 27.144 83.833 27.1455 83.8789 27.1573C83.9257 27.1694 83.9742 27.1889 84.019 27.215C84.113 27.2697 84.1305 27.3162 84.0983 27.2659L80.7292 29.4221ZM83.7897 31.144C84.6091 31.144 85.4302 30.8947 86.1122 30.3063C86.7623 29.7455 87.1306 29.0108 87.3398 28.3027L83.5037 27.1693C83.4356 27.3999 83.3932 27.3692 83.4993 27.2777C83.5544 27.2302 83.6227 27.1905 83.693 27.1662C83.7599 27.143 83.7984 27.144 83.7897 27.144V31.144ZM85.4218 29.736H92.9417V25.736H85.4218V29.736ZM90.974 27.3782C90.6199 29.3261 89.8066 30.7104 88.6055 31.6903L91.134 34.7897C93.1756 33.1242 94.4103 30.8392 94.9095 28.0938L90.974 27.3782ZM88.5955 31.6985C87.4006 32.6863 85.8956 33.224 83.9498 33.224V37.224C86.6973 37.224 89.1389 36.4391 91.144 34.7815L88.5955 31.6985ZM83.9498 33.224C82.4432 33.224 81.1718 32.9125 80.0868 32.3371L78.2127 35.8709C79.9437 36.7888 81.8723 37.224 83.9498 37.224V33.224ZM80.0979 32.3431C79.0463 31.7768 78.2301 30.9796 77.6239 29.9146L74.1476 31.8934C75.1201 33.6017 76.4798 34.9379 78.2016 35.8649L80.0979 32.3431ZM77.6415 29.9463C77.0591 28.8786 76.7337 27.576 76.7337 25.976H72.7337C72.7337 28.1307 73.1764 30.1134 74.13 31.8617L77.6415 29.9463ZM95.1937 21.048L93.3835 20.1977L93.3778 20.2099L95.1937 21.048ZM97.8818 17.848L98.9617 19.5314L98.9728 19.5242L98.9839 19.5169L97.8818 17.848ZM104.73 17.464L103.733 19.1978L103.749 19.2073L103.766 19.2164L104.73 17.464ZM106.682 19.416L104.921 20.3642L108.682 19.416H106.682ZM106.682 16.952V14.952H104.682V16.952H106.682ZM113.754 16.952H115.754V14.952H113.754V16.952ZM113.754 35V37H115.754V35H113.754ZM106.682 35H104.682V37H106.682V35ZM106.682 32.536H108.682L104.921 31.5878L106.682 32.536ZM104.73 34.52L105.694 36.2724L105.71 36.2633L105.727 36.2538L104.73 34.52ZM97.8818 34.136L96.7796 35.8049L96.7907 35.8122L96.8018 35.8194L97.8818 34.136ZM95.1937 30.936L93.373 31.7636L93.3806 31.7803L93.3885 31.7969L95.1937 30.936ZM105.946 23.736L107.418 22.3819L105.946 23.736ZM102.17 23.736L100.698 22.3819L102.17 23.736ZM96.2337 25.976C96.2337 24.2982 96.5167 22.9542 97.0097 21.8861L93.3778 20.2099C92.5908 21.9151 92.2337 23.8565 92.2337 25.976H96.2337ZM97.004 21.8983C97.531 20.7763 98.1955 20.0229 98.9617 19.5314L96.8018 16.1646C95.3066 17.1238 94.1792 18.5037 93.3835 20.1977L97.004 21.8983ZM98.9839 19.5169C99.7743 18.995 100.657 18.728 101.69 18.728V14.728C99.9061 14.728 98.2506 15.2077 96.7796 16.1791L98.9839 19.5169ZM101.69 18.728C102.581 18.728 103.236 18.9123 103.733 19.1978L105.727 15.7302C104.517 15.0344 103.146 14.728 101.69 14.728V18.728ZM103.766 19.2164C104.293 19.5061 104.661 19.8823 104.921 20.3642L108.443 18.4678C107.806 17.2857 106.874 16.3606 105.694 15.7116L103.766 19.2164ZM108.682 19.416V16.952H104.682V19.416H108.682ZM106.682 18.952H113.754V14.952H106.682V18.952ZM111.754 16.952V35H115.754V16.952H111.754ZM113.754 33H106.682V37H113.754V33ZM108.682 35V32.536H104.682V35H108.682ZM104.921 31.5878C104.657 32.0779 104.277 32.473 103.733 32.7862L105.727 36.2538C106.889 35.5856 107.811 34.6581 108.443 33.4842L104.921 31.5878ZM103.766 32.7676C103.263 33.0443 102.595 33.224 101.69 33.224V37.224C103.131 37.224 104.49 36.9344 105.694 36.2724L103.766 32.7676ZM101.69 33.224C100.645 33.224 99.7542 32.961 98.9617 32.4526L96.8018 35.8194C98.2707 36.7617 99.9183 37.224 101.69 37.224V33.224ZM98.9839 32.4671C98.1957 31.9466 97.5252 31.1784 96.999 30.0751L93.3885 31.7969C94.185 33.4669 95.3065 34.8321 96.7796 35.8049L98.9839 32.4671ZM97.0145 30.1084C96.5163 29.0125 96.2337 27.6526 96.2337 25.976H92.2337C92.2337 28.0967 92.5912 30.0435 93.373 31.7636L97.0145 30.1084ZM108.682 25.976C108.682 24.6809 108.346 23.391 107.418 22.3819L104.474 25.0901C104.527 25.1477 104.682 25.3511 104.682 25.976H108.682ZM107.418 22.3819C106.523 21.41 105.348 20.936 104.058 20.936V24.936C104.304 24.936 104.387 24.9953 104.474 25.0901L107.418 22.3819ZM104.058 20.936C102.768 20.936 101.592 21.41 100.698 22.3819L103.642 25.0901C103.729 24.9953 103.812 24.936 104.058 24.936V20.936ZM100.698 22.3819C99.7695 23.391 99.4337 24.6809 99.4337 25.976H103.434C103.434 25.3511 103.589 25.1477 103.642 25.0901L100.698 22.3819ZM99.4337 25.976C99.4337 27.2711 99.7695 28.561 100.698 29.5701L103.642 26.8619C103.589 26.8043 103.434 26.6009 103.434 25.976H99.4337ZM100.698 29.5701C101.592 30.542 102.768 31.016 104.058 31.016V27.016C103.812 27.016 103.729 26.9567 103.642 26.8619L100.698 29.5701ZM104.058 31.016C105.348 31.016 106.524 30.542 107.418 29.5701L104.474 26.8619C104.387 26.9567 104.304 27.016 104.058 27.016V31.016ZM107.418 29.5701C108.346 28.561 108.682 27.2711 108.682 25.976H104.682C104.682 26.6009 104.527 26.8043 104.474 26.8619L107.418 29.5701ZM128.176 28.952H130.176V26.952H128.176V28.952ZM128.176 35V37H130.176V35H128.176ZM118.064 22.872H120.064V20.872H118.064V22.872ZM115.824 22.872H113.824V24.872H115.824V22.872ZM115.824 16.952V14.952H113.824V16.952H115.824ZM118.064 16.952V18.952H120.064V16.952H118.064ZM118.064 12.6V10.6H116.064V12.6H118.064ZM125.168 12.6H127.168V10.6H125.168V12.6ZM125.168 16.952H123.168V18.952H125.168V16.952ZM128.112 16.952H130.112V14.952H128.112V16.952ZM128.112 22.872V24.872H130.112V22.872H128.112ZM125.168 22.872V20.872H123.168V22.872H125.168ZM125.456 28.664L124.042 30.0782L124.079 30.1154L124.118 30.1506L125.456 28.664ZM126.176 28.952V35H130.176V28.952H126.176ZM128.176 33H125.488V37H128.176V33ZM125.488 33C123.319 33 122.061 32.4613 121.331 31.7347C120.603 31.0098 120.064 29.7615 120.064 27.608H116.064C116.064 30.3825 116.762 32.8302 118.509 34.5693C120.254 36.3067 122.707 37 125.488 37V33ZM120.064 27.608V22.872H116.064V27.608H120.064ZM118.064 20.872H115.824V24.872H118.064V20.872ZM117.824 22.872V16.952H113.824V22.872H117.824ZM115.824 18.952H118.064V14.952H115.824V18.952ZM120.064 16.952V12.6H116.064V16.952H120.064ZM118.064 14.6H125.168V10.6H118.064V14.6ZM123.168 12.6V16.952H127.168V12.6H123.168ZM125.168 18.952H128.112V14.952H125.168V18.952ZM126.112 16.952V22.872H130.112V16.952H126.112ZM128.112 20.872H125.168V24.872H128.112V20.872ZM123.168 22.872V27.736H127.168V22.872H123.168ZM123.168 27.736C123.168 28.3992 123.308 29.3448 124.042 30.0782L126.87 27.2498C127.044 27.4236 127.12 27.5994 127.15 27.6952C127.177 27.7823 127.168 27.8082 127.168 27.736H123.168ZM124.118 30.1506C124.87 30.8279 125.811 30.952 126.48 30.952V26.952C126.373 26.952 126.361 26.9401 126.413 26.9547C126.47 26.9707 126.625 27.0253 126.794 27.1774L124.118 30.1506ZM126.48 30.952H128.176V26.952H126.48V30.952ZM142.113 28.952H144.113V26.952H142.113V28.952ZM142.113 35V37H144.113V35H142.113ZM132.001 22.872H134.001V20.872H132.001V22.872ZM129.761 22.872H127.761V24.872H129.761V22.872ZM129.761 16.952V14.952H127.761V16.952H129.761ZM132.001 16.952V18.952H134.001V16.952H132.001ZM132.001 12.6V10.6H130.001V12.6H132.001ZM139.105 12.6H141.105V10.6H139.105V12.6ZM139.105 16.952H137.105V18.952H139.105V16.952ZM142.049 16.952H144.049V14.952H142.049V16.952ZM142.049 22.872V24.872H144.049V22.872H142.049ZM139.105 22.872V20.872H137.105V22.872H139.105ZM139.393 28.664L137.979 30.0782L138.016 30.1154L138.055 30.1506L139.393 28.664ZM140.113 28.952V35H144.113V28.952H140.113ZM142.113 33H139.425V37H142.113V33ZM139.425 33C137.257 33 135.998 32.4613 135.268 31.7347C134.54 31.0098 134.001 29.7615 134.001 27.608H130.001C130.001 30.3825 130.7 32.8302 132.446 34.5693C134.191 36.3067 136.644 37 139.425 37V33ZM134.001 27.608V22.872H130.001V27.608H134.001ZM132.001 20.872H129.761V24.872H132.001V20.872ZM131.761 22.872V16.952H127.761V22.872H131.761ZM129.761 18.952H132.001V14.952H129.761V18.952ZM134.001 16.952V12.6H130.001V16.952H134.001ZM132.001 14.6H139.105V10.6H132.001V14.6ZM137.105 12.6V16.952H141.105V12.6H137.105ZM139.105 18.952H142.049V14.952H139.105V18.952ZM140.049 16.952V22.872H144.049V16.952H140.049ZM142.049 20.872H139.105V24.872H142.049V20.872ZM137.105 22.872V27.736H141.105V22.872H137.105ZM137.105 27.736C137.105 28.3992 137.246 29.3448 137.979 30.0782L140.807 27.2498C140.981 27.4236 141.058 27.5994 141.087 27.6952C141.114 27.7823 141.105 27.8082 141.105 27.736H137.105ZM138.055 30.1506C138.808 30.8279 139.749 30.952 140.417 30.952V26.952C140.31 26.952 140.299 26.9401 140.351 26.9547C140.408 26.9707 140.562 27.0253 140.731 27.1774L138.055 30.1506ZM140.417 30.952H142.113V26.952H140.417V30.952ZM148.499 34.104L149.414 32.3257L148.499 34.104ZM145.075 30.904L143.342 31.9019L143.35 31.9175L143.36 31.933L145.075 30.904ZM145.075 21.08L143.353 20.0625L143.348 20.0706L145.075 21.08ZM148.499 17.848L149.414 19.6263V19.6263L148.499 17.848ZM158.291 17.848L157.375 19.6263V19.6263L158.291 17.848ZM161.683 21.08L159.95 22.0779L159.958 22.0935L159.968 22.109L161.683 21.08ZM161.683 30.904L159.961 29.8865L159.956 29.8946L161.683 30.904ZM158.291 34.104L157.375 32.3257L158.291 34.104ZM155.059 28.312L156.564 29.629L156.577 29.6138L156.59 29.5984L155.059 28.312ZM155.059 23.672L153.527 24.9584L153.54 24.9738L153.554 24.989L155.059 23.672ZM151.731 23.672L153.236 24.989L153.249 24.9738L153.262 24.9584L151.731 23.672ZM151.699 28.312L150.137 29.5614L150.165 29.5958L150.194 29.629L151.699 28.312ZM153.395 33.224C151.864 33.224 150.551 32.9111 149.414 32.3257L147.583 35.8823C149.348 36.7903 151.299 37.224 153.395 37.224V33.224ZM149.414 32.3257C148.291 31.7479 147.428 30.9393 146.79 29.875L143.36 31.933C144.385 33.642 145.805 34.9668 147.583 35.8823L149.414 32.3257ZM146.808 29.9061C146.198 28.8461 145.859 27.5582 145.859 25.976H141.859C141.859 28.1485 142.33 30.1459 143.342 31.9019L146.808 29.9061ZM145.859 25.976C145.859 24.3929 146.198 23.1215 146.801 22.0894L143.348 20.0706C142.33 21.8118 141.859 23.8044 141.859 25.976H145.859ZM146.797 22.0975C147.437 21.0132 148.299 20.2 149.414 19.6263L147.583 16.0697C145.797 16.9894 144.376 18.3308 143.353 20.0625L146.797 22.0975ZM149.414 19.6263C150.551 19.0409 151.864 18.728 153.395 18.728V14.728C151.299 14.728 149.348 15.1617 147.583 16.0697L149.414 19.6263ZM153.395 18.728C154.926 18.728 156.238 19.0409 157.375 19.6263L159.206 16.0697C157.442 15.1617 155.49 14.728 153.395 14.728V18.728ZM157.375 19.6263C158.486 20.1977 159.332 21.0048 159.95 22.0779L163.416 20.0821C162.413 18.3392 160.997 16.9916 159.206 16.0697L157.375 19.6263ZM159.968 22.109C160.585 23.1377 160.931 24.402 160.931 25.976H164.931C164.931 23.7954 164.445 21.7956 163.398 20.051L159.968 22.109ZM160.931 25.976C160.931 27.5492 160.585 28.8299 159.961 29.8865L163.405 31.9215C164.444 30.1621 164.931 28.1574 164.931 25.976H160.931ZM159.956 29.8946C159.341 30.9477 158.494 31.7501 157.375 32.3257L159.206 35.8823C160.989 34.9645 162.404 33.6337 163.409 31.9134L159.956 29.8946ZM157.375 32.3257C156.238 32.9111 154.926 33.224 153.395 33.224V37.224C155.49 37.224 157.442 36.7903 159.206 35.8823L157.375 32.3257ZM153.395 31.08C154.651 31.08 155.749 30.5608 156.564 29.629L153.554 26.995C153.522 27.031 153.499 27.0506 153.487 27.0602C153.475 27.0695 153.469 27.072 153.469 27.0721C153.469 27.0721 153.466 27.0733 153.459 27.0749C153.451 27.0766 153.43 27.08 153.395 27.08V31.08ZM156.59 29.5984C157.455 28.5687 157.731 27.2556 157.731 25.976H153.731C153.731 26.7444 153.558 26.9886 153.527 27.0256L156.59 29.5984ZM157.731 25.976C157.731 24.7044 157.458 23.3772 156.564 22.355L153.554 24.989C153.555 24.9908 153.731 25.1996 153.731 25.976H157.731ZM156.59 22.3856C155.785 21.4274 154.682 20.872 153.395 20.872V24.872C153.425 24.872 153.44 24.875 153.442 24.8756C153.445 24.8761 153.443 24.8758 153.44 24.8745C153.438 24.8733 153.443 24.8752 153.455 24.8854C153.469 24.8959 153.493 24.918 153.527 24.9584L156.59 22.3856ZM153.395 20.872C152.108 20.872 151.004 21.4274 150.199 22.3856L153.262 24.9584C153.296 24.918 153.321 24.8959 153.334 24.8854C153.347 24.8752 153.352 24.8733 153.349 24.8745C153.347 24.8758 153.345 24.8761 153.347 24.8756C153.35 24.875 153.365 24.872 153.395 24.872V20.872ZM150.226 22.355C149.331 23.3772 149.059 24.7044 149.059 25.976H153.059C153.059 25.1996 153.234 24.9908 153.236 24.989L150.226 22.355ZM149.059 25.976C149.059 27.2369 149.316 28.5346 150.137 29.5614L153.26 27.0626C153.229 27.0228 153.059 26.7631 153.059 25.976H149.059ZM150.194 29.629C151.023 30.5768 152.138 31.08 153.395 31.08V27.08C153.35 27.08 153.321 27.0758 153.307 27.0728C153.292 27.0699 153.286 27.0671 153.284 27.0661C153.281 27.0651 153.276 27.0622 153.265 27.0541C153.254 27.0456 153.233 27.0279 153.204 26.995L150.194 29.629Z" fill="black" mask="url(#path-1-outside-1_25_13)"/>
</g>
<g filter="url(#filter1_d_25_13)">
<mask id="path-3-outside-2_25_13" maskUnits="userSpaceOnUse" x="4" y="10" width="161" height="28" fill="black">
<rect fill="white" x="4" y="10" width="161" height="28"/>
<path d="M30.696 16.824C33 16.824 34.7813 17.5173 36.04 18.904C37.32 20.2907 37.96 22.168 37.96 24.536V35H30.888V25.432C30.888 24.664 30.6533 24.0667 30.184 23.64C29.736 23.192 29.128 22.968 28.36 22.968C27.5707 22.968 26.952 23.192 26.504 23.64C26.056 24.0667 25.832 24.664 25.832 25.432V35H18.76V25.432C18.76 24.664 18.5253 24.0667 18.056 23.64C17.608 23.192 17 22.968 16.232 22.968C15.4427 22.968 14.824 23.192 14.376 23.64C13.928 24.0667 13.704 24.664 13.704 25.432V35H6.6V16.952H13.704V19.384C14.216 18.616 14.9093 17.9973 15.784 17.528C16.68 17.0587 17.7253 16.824 18.92 16.824C20.2213 16.824 21.3733 17.112 22.376 17.688C23.3787 18.2427 24.1787 19.032 24.776 20.056C25.4373 19.1173 26.28 18.3493 27.304 17.752C28.328 17.1333 29.4587 16.824 30.696 16.824ZM58.5095 25.816C58.5095 26.3067 58.4775 26.776 58.4135 27.224H46.9895C47.0962 28.7813 47.7468 29.56 48.9415 29.56C49.7095 29.56 50.2642 29.208 50.6055 28.504H58.1255C57.8695 29.784 57.3255 30.936 56.4935 31.96C55.6828 32.9627 54.6482 33.7627 53.3895 34.36C52.1522 34.936 50.7868 35.224 49.2935 35.224C47.5015 35.224 45.9015 34.8507 44.4935 34.104C43.1068 33.3573 42.0188 32.2907 41.2295 30.904C40.4615 29.496 40.0775 27.8533 40.0775 25.976C40.0775 24.0987 40.4615 22.4667 41.2295 21.08C42.0188 19.672 43.1068 18.5947 44.4935 17.848C45.9015 17.1013 47.5015 16.728 49.2935 16.728C51.0855 16.728 52.6748 17.1013 54.0615 17.848C55.4695 18.5733 56.5575 19.6187 57.3255 20.984C58.1148 22.3493 58.5095 23.96 58.5095 25.816ZM51.3095 24.12C51.3095 23.5227 51.1175 23.0747 50.7335 22.776C50.3495 22.456 49.8695 22.296 49.2935 22.296C48.0348 22.296 47.2988 22.904 47.0855 24.12H51.3095ZM67.8603 20.28C68.5856 19.2347 69.4709 18.4027 70.5163 17.784C71.5616 17.144 72.6496 16.824 73.7803 16.824V24.408H71.7643C70.4203 24.408 69.4283 24.6427 68.7883 25.112C68.1696 25.5813 67.8603 26.4133 67.8603 27.608V35H60.7563V16.952H67.8603V20.28ZM74.7338 25.976C74.7338 24.0987 75.1178 22.4667 75.8858 21.08C76.6751 19.672 77.7631 18.5947 79.1498 17.848C80.5578 17.1013 82.1578 16.728 83.9498 16.728C86.2964 16.728 88.2698 17.3893 89.8698 18.712C91.4911 20.0347 92.5151 21.8693 92.9418 24.216H85.4218C85.1444 23.2773 84.6004 22.808 83.7898 22.808C83.2138 22.808 82.7551 23.0747 82.4138 23.608C82.0938 24.1413 81.9338 24.9307 81.9338 25.976C81.9338 27.0213 82.0938 27.8107 82.4138 28.344C82.7551 28.8773 83.2138 29.144 83.7898 29.144C84.6004 29.144 85.1444 28.6747 85.4218 27.736H92.9418C92.5151 30.0827 91.4911 31.9173 89.8698 33.24C88.2698 34.5627 86.2964 35.224 83.9498 35.224C82.1578 35.224 80.5578 34.8507 79.1498 34.104C77.7631 33.3573 76.6751 32.2907 75.8858 30.904C75.1178 29.496 74.7338 27.8533 74.7338 25.976ZM94.2338 25.976C94.2338 24.0773 94.5538 22.4347 95.1938 21.048C95.8551 19.64 96.7511 18.5733 97.8818 17.848C99.0124 17.1013 100.282 16.728 101.69 16.728C102.863 16.728 103.876 16.9733 104.73 17.464C105.583 17.9333 106.234 18.584 106.682 19.416V16.952H113.754V35H106.682V32.536C106.234 33.368 105.583 34.0293 104.73 34.52C103.876 34.9893 102.863 35.224 101.69 35.224C100.282 35.224 99.0124 34.8613 97.8818 34.136C96.7511 33.3893 95.8551 32.3227 95.1938 30.936C94.5538 29.528 94.2338 27.8747 94.2338 25.976ZM106.682 25.976C106.682 25.016 106.436 24.2693 105.946 23.736C105.455 23.2027 104.826 22.936 104.058 22.936C103.29 22.936 102.66 23.2027 102.17 23.736C101.679 24.2693 101.434 25.016 101.434 25.976C101.434 26.936 101.679 27.6827 102.17 28.216C102.66 28.7493 103.29 29.016 104.058 29.016C104.826 29.016 105.455 28.7493 105.946 28.216C106.436 27.6827 106.682 26.936 106.682 25.976ZM128.176 28.952V35H125.488C120.538 35 118.064 32.536 118.064 27.608V22.872H115.824V16.952H118.064V12.6H125.168V16.952H128.112V22.872H125.168V27.736C125.168 28.1627 125.264 28.472 125.456 28.664C125.669 28.856 126.01 28.952 126.48 28.952H128.176ZM142.113 28.952V35H139.425C134.476 35 132.001 32.536 132.001 27.608V22.872H129.761V16.952H132.001V12.6H139.105V16.952H142.049V22.872H139.105V27.736C139.105 28.1627 139.201 28.472 139.393 28.664C139.607 28.856 139.948 28.952 140.417 28.952H142.113ZM153.395 35.224C151.581 35.224 149.949 34.8507 148.499 34.104C147.048 33.3573 145.907 32.2907 145.075 30.904C144.264 29.496 143.859 27.8533 143.859 25.976C143.859 24.0987 144.264 22.4667 145.075 21.08C145.907 19.672 147.048 18.5947 148.499 17.848C149.949 17.1013 151.581 16.728 153.395 16.728C155.208 16.728 156.84 17.1013 158.291 17.848C159.741 18.5947 160.872 19.672 161.683 21.08C162.515 22.4667 162.931 24.0987 162.931 25.976C162.931 27.8533 162.515 29.496 161.683 30.904C160.872 32.2907 159.741 33.3573 158.291 34.104C156.84 34.8507 155.208 35.224 153.395 35.224ZM153.395 29.08C154.056 29.08 154.611 28.824 155.059 28.312C155.507 27.7787 155.731 27 155.731 25.976C155.731 24.952 155.507 24.184 155.059 23.672C154.611 23.1387 154.056 22.872 153.395 22.872C152.733 22.872 152.179 23.1387 151.731 23.672C151.283 24.184 151.059 24.952 151.059 25.976C151.059 27 151.272 27.7787 151.699 28.312C152.147 28.824 152.712 29.08 153.395 29.08Z"/>
</mask>
<path d="M30.696 16.824C33 16.824 34.7813 17.5173 36.04 18.904C37.32 20.2907 37.96 22.168 37.96 24.536V35H30.888V25.432C30.888 24.664 30.6533 24.0667 30.184 23.64C29.736 23.192 29.128 22.968 28.36 22.968C27.5707 22.968 26.952 23.192 26.504 23.64C26.056 24.0667 25.832 24.664 25.832 25.432V35H18.76V25.432C18.76 24.664 18.5253 24.0667 18.056 23.64C17.608 23.192 17 22.968 16.232 22.968C15.4427 22.968 14.824 23.192 14.376 23.64C13.928 24.0667 13.704 24.664 13.704 25.432V35H6.6V16.952H13.704V19.384C14.216 18.616 14.9093 17.9973 15.784 17.528C16.68 17.0587 17.7253 16.824 18.92 16.824C20.2213 16.824 21.3733 17.112 22.376 17.688C23.3787 18.2427 24.1787 19.032 24.776 20.056C25.4373 19.1173 26.28 18.3493 27.304 17.752C28.328 17.1333 29.4587 16.824 30.696 16.824ZM58.5095 25.816C58.5095 26.3067 58.4775 26.776 58.4135 27.224H46.9895C47.0962 28.7813 47.7468 29.56 48.9415 29.56C49.7095 29.56 50.2642 29.208 50.6055 28.504H58.1255C57.8695 29.784 57.3255 30.936 56.4935 31.96C55.6828 32.9627 54.6482 33.7627 53.3895 34.36C52.1522 34.936 50.7868 35.224 49.2935 35.224C47.5015 35.224 45.9015 34.8507 44.4935 34.104C43.1068 33.3573 42.0188 32.2907 41.2295 30.904C40.4615 29.496 40.0775 27.8533 40.0775 25.976C40.0775 24.0987 40.4615 22.4667 41.2295 21.08C42.0188 19.672 43.1068 18.5947 44.4935 17.848C45.9015 17.1013 47.5015 16.728 49.2935 16.728C51.0855 16.728 52.6748 17.1013 54.0615 17.848C55.4695 18.5733 56.5575 19.6187 57.3255 20.984C58.1148 22.3493 58.5095 23.96 58.5095 25.816ZM51.3095 24.12C51.3095 23.5227 51.1175 23.0747 50.7335 22.776C50.3495 22.456 49.8695 22.296 49.2935 22.296C48.0348 22.296 47.2988 22.904 47.0855 24.12H51.3095ZM67.8603 20.28C68.5856 19.2347 69.4709 18.4027 70.5163 17.784C71.5616 17.144 72.6496 16.824 73.7803 16.824V24.408H71.7643C70.4203 24.408 69.4283 24.6427 68.7883 25.112C68.1696 25.5813 67.8603 26.4133 67.8603 27.608V35H60.7563V16.952H67.8603V20.28ZM74.7338 25.976C74.7338 24.0987 75.1178 22.4667 75.8858 21.08C76.6751 19.672 77.7631 18.5947 79.1498 17.848C80.5578 17.1013 82.1578 16.728 83.9498 16.728C86.2964 16.728 88.2698 17.3893 89.8698 18.712C91.4911 20.0347 92.5151 21.8693 92.9418 24.216H85.4218C85.1444 23.2773 84.6004 22.808 83.7898 22.808C83.2138 22.808 82.7551 23.0747 82.4138 23.608C82.0938 24.1413 81.9338 24.9307 81.9338 25.976C81.9338 27.0213 82.0938 27.8107 82.4138 28.344C82.7551 28.8773 83.2138 29.144 83.7898 29.144C84.6004 29.144 85.1444 28.6747 85.4218 27.736H92.9418C92.5151 30.0827 91.4911 31.9173 89.8698 33.24C88.2698 34.5627 86.2964 35.224 83.9498 35.224C82.1578 35.224 80.5578 34.8507 79.1498 34.104C77.7631 33.3573 76.6751 32.2907 75.8858 30.904C75.1178 29.496 74.7338 27.8533 74.7338 25.976ZM94.2338 25.976C94.2338 24.0773 94.5538 22.4347 95.1938 21.048C95.8551 19.64 96.7511 18.5733 97.8818 17.848C99.0124 17.1013 100.282 16.728 101.69 16.728C102.863 16.728 103.876 16.9733 104.73 17.464C105.583 17.9333 106.234 18.584 106.682 19.416V16.952H113.754V35H106.682V32.536C106.234 33.368 105.583 34.0293 104.73 34.52C103.876 34.9893 102.863 35.224 101.69 35.224C100.282 35.224 99.0124 34.8613 97.8818 34.136C96.7511 33.3893 95.8551 32.3227 95.1938 30.936C94.5538 29.528 94.2338 27.8747 94.2338 25.976ZM106.682 25.976C106.682 25.016 106.436 24.2693 105.946 23.736C105.455 23.2027 104.826 22.936 104.058 22.936C103.29 22.936 102.66 23.2027 102.17 23.736C101.679 24.2693 101.434 25.016 101.434 25.976C101.434 26.936 101.679 27.6827 102.17 28.216C102.66 28.7493 103.29 29.016 104.058 29.016C104.826 29.016 105.455 28.7493 105.946 28.216C106.436 27.6827 106.682 26.936 106.682 25.976ZM128.176 28.952V35H125.488C120.538 35 118.064 32.536 118.064 27.608V22.872H115.824V16.952H118.064V12.6H125.168V16.952H128.112V22.872H125.168V27.736C125.168 28.1627 125.264 28.472 125.456 28.664C125.669 28.856 126.01 28.952 126.48 28.952H128.176ZM142.113 28.952V35H139.425C134.476 35 132.001 32.536 132.001 27.608V22.872H129.761V16.952H132.001V12.6H139.105V16.952H142.049V22.872H139.105V27.736C139.105 28.1627 139.201 28.472 139.393 28.664C139.607 28.856 139.948 28.952 140.417 28.952H142.113ZM153.395 35.224C151.581 35.224 149.949 34.8507 148.499 34.104C147.048 33.3573 145.907 32.2907 145.075 30.904C144.264 29.496 143.859 27.8533 143.859 25.976C143.859 24.0987 144.264 22.4667 145.075 21.08C145.907 19.672 147.048 18.5947 148.499 17.848C149.949 17.1013 151.581 16.728 153.395 16.728C155.208 16.728 156.84 17.1013 158.291 17.848C159.741 18.5947 160.872 19.672 161.683 21.08C162.515 22.4667 162.931 24.0987 162.931 25.976C162.931 27.8533 162.515 29.496 161.683 30.904C160.872 32.2907 159.741 33.3573 158.291 34.104C156.84 34.8507 155.208 35.224 153.395 35.224ZM153.395 29.08C154.056 29.08 154.611 28.824 155.059 28.312C155.507 27.7787 155.731 27 155.731 25.976C155.731 24.952 155.507 24.184 155.059 23.672C154.611 23.1387 154.056 22.872 153.395 22.872C152.733 22.872 152.179 23.1387 151.731 23.672C151.283 24.184 151.059 24.952 151.059 25.976C151.059 27 151.272 27.7787 151.699 28.312C152.147 28.824 152.712 29.08 153.395 29.08Z" fill="#ECB43A"/>
<path d="M36.04 18.904L34.5591 20.2482L34.5647 20.2544L34.5704 20.2606L36.04 18.904ZM37.96 35V37H39.96V35H37.96ZM30.888 35H28.888V37H30.888V35ZM30.184 23.64L28.7698 25.0542L28.8034 25.0879L28.8387 25.1199L30.184 23.64ZM26.504 23.64L27.8833 25.0883L27.901 25.0715L27.9182 25.0542L26.504 23.64ZM25.832 35V37H27.832V35H25.832ZM18.76 35H16.76V37H18.76V35ZM18.056 23.64L16.6418 25.0542L16.6754 25.0879L16.7107 25.1199L18.056 23.64ZM14.376 23.64L15.7553 25.0883L15.773 25.0715L15.7902 25.0542L14.376 23.64ZM13.704 35V37H15.704V35H13.704ZM6.6 35H4.6V37H6.6V35ZM6.6 16.952V14.952H4.6V16.952H6.6ZM13.704 16.952H15.704V14.952H13.704V16.952ZM13.704 19.384H11.704V25.9896L15.3681 20.4934L13.704 19.384ZM15.784 17.528L14.856 15.7563L14.8472 15.761L14.8384 15.7657L15.784 17.528ZM22.376 17.688L21.3798 19.4222L21.3938 19.4303L21.4079 19.4381L22.376 17.688ZM24.776 20.056L23.0484 21.0637L24.6175 23.7535L26.411 21.2079L24.776 20.056ZM27.304 17.752L28.3117 19.4796L28.325 19.4718L28.3382 19.4638L27.304 17.752ZM30.696 18.824C32.5761 18.824 33.7644 19.3727 34.5591 20.2482L37.5209 17.5598C35.7982 15.6619 33.4239 14.824 30.696 14.824V18.824ZM34.5704 20.2606C35.4285 21.1902 35.96 22.5373 35.96 24.536H39.96C39.96 21.7987 39.2115 19.3912 37.5096 17.5474L34.5704 20.2606ZM35.96 24.536V35H39.96V24.536H35.96ZM37.96 33H30.888V37H37.96V33ZM32.888 35V25.432H28.888V35H32.888ZM32.888 25.432C32.888 24.2293 32.5022 23.0446 31.5294 22.1601L28.8387 25.1199C28.8433 25.1241 28.8441 25.123 28.8505 25.1393C28.8602 25.1641 28.888 25.2502 28.888 25.432H32.888ZM31.5982 22.2258C30.698 21.3256 29.5384 20.968 28.36 20.968V24.968C28.5508 24.968 28.6548 24.9958 28.7006 25.0127C28.7394 25.027 28.7552 25.0396 28.7698 25.0542L31.5982 22.2258ZM28.36 20.968C27.1781 20.968 26.0003 21.3153 25.0898 22.2258L27.9182 25.0542C27.9269 25.0456 27.9403 25.0327 27.9849 25.0165C28.0372 24.9976 28.1524 24.968 28.36 24.968V20.968ZM25.1247 22.1917C24.1887 23.0832 23.832 24.2576 23.832 25.432H27.832C27.832 25.2403 27.8601 25.1438 27.8727 25.1102C27.8759 25.1017 27.8784 25.0962 27.8799 25.0933C27.8807 25.0918 27.8812 25.0908 27.8816 25.0902C27.8819 25.0896 27.8821 25.0893 27.8821 25.0893C27.8821 25.0893 27.882 25.0894 27.8819 25.0896C27.8817 25.0898 27.8816 25.09 27.8815 25.0901C27.8812 25.0904 27.8817 25.0898 27.8833 25.0883L25.1247 22.1917ZM23.832 25.432V35H27.832V25.432H23.832ZM25.832 33H18.76V37H25.832V33ZM20.76 35V25.432H16.76V35H20.76ZM20.76 25.432C20.76 24.2293 20.3742 23.0446 19.4013 22.1601L16.7107 25.1199C16.7153 25.1241 16.7161 25.123 16.7225 25.1393C16.7322 25.1641 16.76 25.2502 16.76 25.432H20.76ZM19.4702 22.2258C18.57 21.3256 17.4104 20.968 16.232 20.968V24.968C16.4228 24.968 16.5268 24.9958 16.5726 25.0127C16.6114 25.027 16.6272 25.0396 16.6418 25.0542L19.4702 22.2258ZM16.232 20.968C15.0501 20.968 13.8723 21.3153 12.9618 22.2258L15.7902 25.0542C15.7989 25.0456 15.8123 25.0327 15.8569 25.0165C15.9092 24.9976 16.0244 24.968 16.232 24.968V20.968ZM12.9967 22.1917C12.0607 23.0832 11.704 24.2576 11.704 25.432H15.704C15.704 25.2403 15.7321 25.1438 15.7447 25.1102C15.7479 25.1017 15.7504 25.0962 15.7519 25.0933C15.7527 25.0918 15.7532 25.0908 15.7536 25.0902C15.7539 25.0896 15.7541 25.0893 15.7541 25.0893C15.7541 25.0893 15.754 25.0894 15.7539 25.0896C15.7537 25.0898 15.7536 25.09 15.7535 25.0901C15.7532 25.0904 15.7537 25.0898 15.7553 25.0883L12.9967 22.1917ZM11.704 25.432V35H15.704V25.432H11.704ZM13.704 33H6.6V37H13.704V33ZM8.6 35V16.952H4.6V35H8.6ZM6.6 18.952H13.704V14.952H6.6V18.952ZM11.704 16.952V19.384H15.704V16.952H11.704ZM15.3681 20.4934C15.6843 20.0192 16.122 19.6164 16.7296 19.2903L14.8384 15.7657C13.6966 16.3783 12.7477 17.2128 12.0399 18.2746L15.3681 20.4934ZM16.712 19.2997C17.274 19.0053 17.9902 18.824 18.92 18.824V14.824C17.4605 14.824 16.086 15.1121 14.856 15.7563L16.712 19.2997ZM18.92 18.824C19.9164 18.824 20.7168 19.0414 21.3798 19.4222L23.3722 15.9538C22.0299 15.1826 20.5262 14.824 18.92 14.824V18.824ZM21.4079 19.4381C22.0839 19.812 22.6262 20.3398 23.0484 21.0637L26.5036 19.0483C25.7312 17.7242 24.6734 16.6733 23.3441 15.9379L21.4079 19.4381ZM26.411 21.2079C26.9015 20.5116 27.5274 19.9371 28.3117 19.4796L26.2963 16.0244C25.0326 16.7616 23.9731 17.7231 23.141 18.9041L26.411 21.2079ZM28.3382 19.4638C29.0392 19.0403 29.8101 18.824 30.696 18.824V14.824C29.1072 14.824 27.6168 15.2263 26.2698 16.0402L28.3382 19.4638ZM58.4135 27.224V29.224H60.1481L60.3934 27.5068L58.4135 27.224ZM46.9895 27.224V25.224H44.8478L44.9942 27.3607L46.9895 27.224ZM50.6055 28.504V26.504H49.3525L48.8059 27.6315L50.6055 28.504ZM58.1255 28.504L60.0867 28.8962L60.5651 26.504H58.1255V28.504ZM56.4935 31.96L54.9413 30.6988L54.9382 30.7026L56.4935 31.96ZM53.3895 34.36L54.2336 36.1732L54.2403 36.17L54.247 36.1669L53.3895 34.36ZM44.4935 34.104L43.5453 35.865L43.5565 35.8709L44.4935 34.104ZM41.2295 30.904L39.4737 31.8617L39.4824 31.8776L39.4914 31.8934L41.2295 30.904ZM41.2295 21.08L39.4849 20.102L39.4799 20.111L41.2295 21.08ZM44.4935 17.848L43.5565 16.081L43.5453 16.0871L44.4935 17.848ZM54.0615 17.848L53.1133 19.6089L53.1294 19.6176L53.1456 19.6259L54.0615 17.848ZM57.3255 20.984L55.5823 21.9645L55.5881 21.9748L55.594 21.985L57.3255 20.984ZM51.3095 24.12V26.12H53.3095V24.12H51.3095ZM50.7335 22.776L49.4531 24.3124L49.479 24.334L49.5056 24.3547L50.7335 22.776ZM47.0855 24.12L45.1156 23.7744L44.7041 26.12H47.0855V24.12ZM56.5095 25.816C56.5095 26.2199 56.4832 26.5943 56.4336 26.9412L60.3934 27.5068C60.4718 26.9577 60.5095 26.3935 60.5095 25.816H56.5095ZM58.4135 25.224H46.9895V29.224H58.4135V25.224ZM44.9942 27.3607C45.0618 28.3479 45.3165 29.4132 46.0228 30.2584C46.797 31.185 47.8681 31.56 48.9415 31.56V27.56C48.8594 27.56 48.867 27.5468 48.925 27.5713C48.9918 27.5995 49.0535 27.6472 49.0922 27.6936C49.1241 27.7317 49.1059 27.7276 49.074 27.6292C49.0413 27.5282 49.0032 27.3552 48.9848 27.0873L44.9942 27.3607ZM48.9415 31.56C49.6397 31.56 50.3564 31.3964 51.0051 30.9847C51.6517 30.5744 52.1036 29.9985 52.4051 29.3765L48.8059 27.6315C48.7846 27.6753 48.7745 27.6838 48.7845 27.672C48.7958 27.6587 48.8214 27.633 48.8619 27.6073C48.9025 27.5815 48.9396 27.5675 48.9631 27.5613C48.9846 27.5556 48.9807 27.56 48.9415 27.56V31.56ZM50.6055 30.504H58.1255V26.504H50.6055V30.504ZM56.1643 28.1118C55.9728 29.0696 55.5707 29.9241 54.9413 30.6988L58.0457 33.2212C59.0803 31.9479 59.7662 30.4984 60.0867 28.8962L56.1643 28.1118ZM54.9382 30.7026C54.3309 31.4537 53.542 32.0738 52.532 32.5531L54.247 36.1669C55.7543 35.4515 57.0348 34.4716 58.0488 33.2174L54.9382 30.7026ZM52.5454 32.5468C51.5966 32.9886 50.523 33.224 49.2935 33.224V37.224C51.0507 37.224 52.7078 36.8834 54.2336 36.1732L52.5454 32.5468ZM49.2935 33.224C47.787 33.224 46.5156 32.9125 45.4305 32.3371L43.5565 35.8709C45.2874 36.7888 47.216 37.224 49.2935 37.224V33.224ZM45.4417 32.3431C44.3901 31.7768 43.5738 30.9796 42.9676 29.9146L39.4914 31.8934C40.4638 33.6017 41.8236 34.9379 43.5453 35.8649L45.4417 32.3431ZM42.9853 29.9463C42.4029 28.8786 42.0775 27.576 42.0775 25.976H38.0775C38.0775 28.1307 38.5201 30.1134 39.4737 31.8617L42.9853 29.9463ZM42.0775 25.976C42.0775 24.3751 42.4032 23.0888 42.9791 22.049L39.4799 20.111C38.5198 21.8445 38.0775 23.8222 38.0775 25.976H42.0775ZM42.9741 22.058C43.5826 20.9726 44.3981 20.1709 45.4417 19.6089L43.5453 16.0871C41.8155 17.0185 40.4551 18.3714 39.4849 20.102L42.9741 22.058ZM45.4305 19.6149C46.5156 19.0395 47.787 18.728 49.2935 18.728V14.728C47.216 14.728 45.2874 15.1632 43.5565 16.0811L45.4305 19.6149ZM49.2935 18.728C50.8007 18.728 52.0561 19.0397 53.1133 19.6089L55.0097 16.0871C53.2935 15.163 51.3703 14.728 49.2935 14.728V18.728ZM53.1456 19.6259C54.2099 20.1742 55.0084 20.9442 55.5823 21.9645L59.0687 20.0035C58.1066 18.2931 56.7291 16.9724 54.9774 16.0701L53.1456 19.6259ZM55.594 21.985C56.1786 22.9961 56.5095 24.2489 56.5095 25.816H60.5095C60.5095 23.6711 60.0511 21.7026 59.057 19.983L55.594 21.985ZM53.3095 24.12C53.3095 23.0614 52.9436 21.9613 51.9614 21.1973L49.5056 24.3547C49.4727 24.3291 49.4362 24.294 49.4019 24.2496C49.3677 24.2052 49.3433 24.1613 49.3272 24.1238C49.2953 24.0495 49.3095 24.0327 49.3095 24.12H53.3095ZM52.0139 21.2396C51.2166 20.5752 50.2622 20.296 49.2935 20.296V24.296C49.3958 24.296 49.443 24.31 49.453 24.3134C49.4585 24.3152 49.4589 24.3158 49.4562 24.3143C49.4535 24.3128 49.4522 24.3117 49.4531 24.3124L52.0139 21.2396ZM49.2935 20.296C48.3487 20.296 47.3506 20.527 46.5237 21.2101C45.6921 21.8971 45.2799 22.8378 45.1156 23.7744L49.0554 24.4656C49.0803 24.3239 49.1101 24.2598 49.1176 24.2454C49.1222 24.2365 49.1093 24.2625 49.0713 24.2939C49.0337 24.3249 49.0103 24.3293 49.0306 24.3231C49.0566 24.3152 49.137 24.296 49.2935 24.296V20.296ZM47.0855 26.12H51.3095V22.12H47.0855V26.12ZM67.8603 20.28H65.8603V26.6706L69.5034 21.4202L67.8603 20.28ZM70.5163 17.784L71.5349 19.5052L71.5478 19.4975L71.5606 19.4897L70.5163 17.784ZM73.7803 16.824H75.7803V14.824H73.7803V16.824ZM73.7803 24.408V26.408H75.7803V24.408H73.7803ZM68.7882 25.112L67.6055 23.4992L67.5924 23.5088L67.5795 23.5186L68.7882 25.112ZM67.8603 35V37H69.8603V35H67.8603ZM60.7562 35H58.7562V37H60.7562V35ZM60.7562 16.952V14.952H58.7562V16.952H60.7562ZM67.8603 16.952H69.8603V14.952H67.8603V16.952ZM69.5034 21.4202C70.0727 20.5997 70.7488 19.9704 71.5349 19.5052L69.4976 16.0628C68.193 16.835 67.0984 17.8697 66.2171 19.1398L69.5034 21.4202ZM71.5606 19.4897C72.3189 19.0254 73.049 18.824 73.7803 18.824V14.824C72.2502 14.824 70.8042 15.2626 69.4719 16.0783L71.5606 19.4897ZM71.7803 16.824V24.408H75.7803V16.824H71.7803ZM73.7803 22.408H71.7643V26.408H73.7803V22.408ZM71.7643 22.408C70.2608 22.408 68.7542 22.6568 67.6055 23.4992L69.971 26.7248C70.1023 26.6285 70.5797 26.408 71.7643 26.408V22.408ZM67.5795 23.5186C66.2402 24.5346 65.8603 26.1325 65.8603 27.608H69.8603C69.8603 27.1715 69.9183 26.9156 69.9669 26.785C70.0086 26.6727 70.0317 26.679 69.997 26.7054L67.5795 23.5186ZM65.8603 27.608V35H69.8603V27.608H65.8603ZM67.8603 33H60.7562V37H67.8603V33ZM62.7562 35V16.952H58.7562V35H62.7562ZM60.7562 18.952H67.8603V14.952H60.7562V18.952ZM65.8603 16.952V20.28H69.8603V16.952H65.8603ZM75.8857 21.08L74.1412 20.102L74.1362 20.111L75.8857 21.08ZM79.1497 17.848L78.2127 16.081L78.2016 16.0871L79.1497 17.848ZM89.8698 18.712L88.5954 20.2535L88.6055 20.2617L89.8698 18.712ZM92.9417 24.216V26.216H95.3382L94.9095 23.8582L92.9417 24.216ZM85.4218 24.216L83.5037 24.7827L83.9272 26.216H85.4218V24.216ZM82.4137 23.608L80.7292 22.5299L80.7136 22.5542L80.6988 22.579L82.4137 23.608ZM82.4137 28.344L80.6988 29.373L80.7136 29.3978L80.7292 29.4221L82.4137 28.344ZM85.4218 27.736V25.736H83.9272L83.5037 27.1693L85.4218 27.736ZM92.9417 27.736L94.9095 28.0938L95.3382 25.736H92.9417V27.736ZM89.8698 33.24L88.6055 31.6902L88.5955 31.6985L89.8698 33.24ZM79.1497 34.104L78.2015 35.865L78.2127 35.8709L79.1497 34.104ZM75.8857 30.904L74.13 31.8617L74.1386 31.8776L74.1476 31.8934L75.8857 30.904ZM76.7337 25.976C76.7337 24.3751 77.0594 23.0888 77.6353 22.049L74.1362 20.111C73.1761 21.8445 72.7337 23.8222 72.7337 25.976H76.7337ZM77.6303 22.058C78.2388 20.9726 79.0544 20.1709 80.0979 19.6089L78.2016 16.0871C76.4718 17.0185 75.1114 18.3714 74.1412 20.102L77.6303 22.058ZM80.0868 19.6149C81.1718 19.0395 82.4432 18.728 83.9498 18.728V14.728C81.8723 14.728 79.9437 15.1632 78.2127 16.0811L80.0868 19.6149ZM83.9498 18.728C85.8956 18.728 87.4006 19.2657 88.5955 20.2535L91.144 17.1705C89.1389 15.5129 86.6973 14.728 83.9498 14.728V18.728ZM88.6055 20.2617C89.8066 21.2416 90.6199 22.6259 90.974 24.5738L94.9095 23.8582C94.4103 21.1128 93.1756 18.8278 91.134 17.1623L88.6055 20.2617ZM92.9417 22.216H85.4218V26.216H92.9417V22.216ZM87.3398 23.6493C87.1306 22.9412 86.7623 22.2065 86.1122 21.6457C85.4302 21.0573 84.6091 20.808 83.7897 20.808V24.808C83.7984 24.808 83.7599 24.809 83.693 24.7858C83.6227 24.7614 83.5544 24.7218 83.4993 24.6743C83.3932 24.5828 83.4356 24.5521 83.5037 24.7827L87.3398 23.6493ZM83.7897 20.808C82.455 20.808 81.3947 21.49 80.7292 22.5299L84.0983 24.6861C84.1305 24.6358 84.113 24.6823 84.019 24.737C83.9742 24.7631 83.9257 24.7826 83.8789 24.7947C83.833 24.8065 83.8011 24.808 83.7897 24.808V20.808ZM80.6988 22.579C80.105 23.5685 79.9337 24.7869 79.9337 25.976H83.9337C83.9337 25.0744 84.0825 24.7141 84.1287 24.637L80.6988 22.579ZM79.9337 25.976C79.9337 27.1651 80.105 28.3835 80.6988 29.373L84.1287 27.315C84.0825 27.2379 83.9337 26.8776 83.9337 25.976H79.9337ZM80.7292 29.4221C81.3947 30.462 82.455 31.144 83.7897 31.144V27.144C83.8011 27.144 83.833 27.1455 83.8789 27.1573C83.9257 27.1694 83.9742 27.1889 84.019 27.215C84.113 27.2697 84.1305 27.3162 84.0983 27.2659L80.7292 29.4221ZM83.7897 31.144C84.6091 31.144 85.4302 30.8947 86.1122 30.3063C86.7623 29.7455 87.1306 29.0108 87.3398 28.3027L83.5037 27.1693C83.4356 27.3999 83.3932 27.3692 83.4993 27.2777C83.5544 27.2302 83.6227 27.1905 83.693 27.1662C83.7599 27.143 83.7984 27.144 83.7897 27.144V31.144ZM85.4218 29.736H92.9417V25.736H85.4218V29.736ZM90.974 27.3782C90.6199 29.3261 89.8066 30.7104 88.6055 31.6903L91.134 34.7897C93.1756 33.1242 94.4103 30.8392 94.9095 28.0938L90.974 27.3782ZM88.5955 31.6985C87.4006 32.6863 85.8956 33.224 83.9498 33.224V37.224C86.6973 37.224 89.1389 36.4391 91.144 34.7815L88.5955 31.6985ZM83.9498 33.224C82.4432 33.224 81.1718 32.9125 80.0868 32.3371L78.2127 35.8709C79.9437 36.7888 81.8723 37.224 83.9498 37.224V33.224ZM80.0979 32.3431C79.0463 31.7768 78.2301 30.9796 77.6239 29.9146L74.1476 31.8934C75.1201 33.6017 76.4798 34.9379 78.2016 35.8649L80.0979 32.3431ZM77.6415 29.9463C77.0591 28.8786 76.7337 27.576 76.7337 25.976H72.7337C72.7337 28.1307 73.1764 30.1134 74.13 31.8617L77.6415 29.9463ZM95.1937 21.048L93.3835 20.1977L93.3778 20.2099L95.1937 21.048ZM97.8818 17.848L98.9617 19.5314L98.9728 19.5242L98.9839 19.5169L97.8818 17.848ZM104.73 17.464L103.733 19.1978L103.749 19.2073L103.766 19.2164L104.73 17.464ZM106.682 19.416L104.921 20.3642L108.682 19.416H106.682ZM106.682 16.952V14.952H104.682V16.952H106.682ZM113.754 16.952H115.754V14.952H113.754V16.952ZM113.754 35V37H115.754V35H113.754ZM106.682 35H104.682V37H106.682V35ZM106.682 32.536H108.682L104.921 31.5878L106.682 32.536ZM104.73 34.52L105.694 36.2724L105.71 36.2633L105.727 36.2538L104.73 34.52ZM97.8818 34.136L96.7796 35.8049L96.7907 35.8122L96.8018 35.8194L97.8818 34.136ZM95.1937 30.936L93.373 31.7636L93.3806 31.7803L93.3885 31.7969L95.1937 30.936ZM105.946 23.736L107.418 22.3819L105.946 23.736ZM102.17 23.736L100.698 22.3819L102.17 23.736ZM96.2337 25.976C96.2337 24.2982 96.5167 22.9542 97.0097 21.8861L93.3778 20.2099C92.5908 21.9151 92.2337 23.8565 92.2337 25.976H96.2337ZM97.004 21.8983C97.531 20.7763 98.1955 20.0229 98.9617 19.5314L96.8018 16.1646C95.3066 17.1238 94.1792 18.5037 93.3835 20.1977L97.004 21.8983ZM98.9839 19.5169C99.7743 18.995 100.657 18.728 101.69 18.728V14.728C99.9061 14.728 98.2506 15.2077 96.7796 16.1791L98.9839 19.5169ZM101.69 18.728C102.581 18.728 103.236 18.9123 103.733 19.1978L105.727 15.7302C104.517 15.0344 103.146 14.728 101.69 14.728V18.728ZM103.766 19.2164C104.293 19.5061 104.661 19.8823 104.921 20.3642L108.443 18.4678C107.806 17.2857 106.874 16.3606 105.694 15.7116L103.766 19.2164ZM108.682 19.416V16.952H104.682V19.416H108.682ZM106.682 18.952H113.754V14.952H106.682V18.952ZM111.754 16.952V35H115.754V16.952H111.754ZM113.754 33H106.682V37H113.754V33ZM108.682 35V32.536H104.682V35H108.682ZM104.921 31.5878C104.657 32.0779 104.277 32.473 103.733 32.7862L105.727 36.2538C106.889 35.5856 107.811 34.6581 108.443 33.4842L104.921 31.5878ZM103.766 32.7676C103.263 33.0443 102.595 33.224 101.69 33.224V37.224C103.131 37.224 104.49 36.9344 105.694 36.2724L103.766 32.7676ZM101.69 33.224C100.645 33.224 99.7542 32.961 98.9617 32.4526L96.8018 35.8194C98.2707 36.7617 99.9183 37.224 101.69 37.224V33.224ZM98.9839 32.4671C98.1957 31.9466 97.5252 31.1784 96.999 30.0751L93.3885 31.7969C94.185 33.4669 95.3065 34.8321 96.7796 35.8049L98.9839 32.4671ZM97.0145 30.1084C96.5163 29.0125 96.2337 27.6526 96.2337 25.976H92.2337C92.2337 28.0967 92.5912 30.0435 93.373 31.7636L97.0145 30.1084ZM108.682 25.976C108.682 24.6809 108.346 23.391 107.418 22.3819L104.474 25.0901C104.527 25.1477 104.682 25.3511 104.682 25.976H108.682ZM107.418 22.3819C106.523 21.41 105.348 20.936 104.058 20.936V24.936C104.304 24.936 104.387 24.9953 104.474 25.0901L107.418 22.3819ZM104.058 20.936C102.768 20.936 101.592 21.41 100.698 22.3819L103.642 25.0901C103.729 24.9953 103.812 24.936 104.058 24.936V20.936ZM100.698 22.3819C99.7695 23.391 99.4337 24.6809 99.4337 25.976H103.434C103.434 25.3511 103.589 25.1477 103.642 25.0901L100.698 22.3819ZM99.4337 25.976C99.4337 27.2711 99.7695 28.561 100.698 29.5701L103.642 26.8619C103.589 26.8043 103.434 26.6009 103.434 25.976H99.4337ZM100.698 29.5701C101.592 30.542 102.768 31.016 104.058 31.016V27.016C103.812 27.016 103.729 26.9567 103.642 26.8619L100.698 29.5701ZM104.058 31.016C105.348 31.016 106.524 30.542 107.418 29.5701L104.474 26.8619C104.387 26.9567 104.304 27.016 104.058 27.016V31.016ZM107.418 29.5701C108.346 28.561 108.682 27.2711 108.682 25.976H104.682C104.682 26.6009 104.527 26.8043 104.474 26.8619L107.418 29.5701ZM128.176 28.952H130.176V26.952H128.176V28.952ZM128.176 35V37H130.176V35H128.176ZM118.064 22.872H120.064V20.872H118.064V22.872ZM115.824 22.872H113.824V24.872H115.824V22.872ZM115.824 16.952V14.952H113.824V16.952H115.824ZM118.064 16.952V18.952H120.064V16.952H118.064ZM118.064 12.6V10.6H116.064V12.6H118.064ZM125.168 12.6H127.168V10.6H125.168V12.6ZM125.168 16.952H123.168V18.952H125.168V16.952ZM128.112 16.952H130.112V14.952H128.112V16.952ZM128.112 22.872V24.872H130.112V22.872H128.112ZM125.168 22.872V20.872H123.168V22.872H125.168ZM125.456 28.664L124.042 30.0782L124.079 30.1154L124.118 30.1506L125.456 28.664ZM126.176 28.952V35H130.176V28.952H126.176ZM128.176 33H125.488V37H128.176V33ZM125.488 33C123.319 33 122.061 32.4613 121.331 31.7347C120.603 31.0098 120.064 29.7615 120.064 27.608H116.064C116.064 30.3825 116.762 32.8302 118.509 34.5693C120.254 36.3067 122.707 37 125.488 37V33ZM120.064 27.608V22.872H116.064V27.608H120.064ZM118.064 20.872H115.824V24.872H118.064V20.872ZM117.824 22.872V16.952H113.824V22.872H117.824ZM115.824 18.952H118.064V14.952H115.824V18.952ZM120.064 16.952V12.6H116.064V16.952H120.064ZM118.064 14.6H125.168V10.6H118.064V14.6ZM123.168 12.6V16.952H127.168V12.6H123.168ZM125.168 18.952H128.112V14.952H125.168V18.952ZM126.112 16.952V22.872H130.112V16.952H126.112ZM128.112 20.872H125.168V24.872H128.112V20.872ZM123.168 22.872V27.736H127.168V22.872H123.168ZM123.168 27.736C123.168 28.3992 123.308 29.3448 124.042 30.0782L126.87 27.2498C127.044 27.4236 127.12 27.5994 127.15 27.6952C127.177 27.7823 127.168 27.8082 127.168 27.736H123.168ZM124.118 30.1506C124.87 30.8279 125.811 30.952 126.48 30.952V26.952C126.373 26.952 126.361 26.9401 126.413 26.9547C126.47 26.9707 126.625 27.0253 126.794 27.1774L124.118 30.1506ZM126.48 30.952H128.176V26.952H126.48V30.952ZM142.113 28.952H144.113V26.952H142.113V28.952ZM142.113 35V37H144.113V35H142.113ZM132.001 22.872H134.001V20.872H132.001V22.872ZM129.761 22.872H127.761V24.872H129.761V22.872ZM129.761 16.952V14.952H127.761V16.952H129.761ZM132.001 16.952V18.952H134.001V16.952H132.001ZM132.001 12.6V10.6H130.001V12.6H132.001ZM139.105 12.6H141.105V10.6H139.105V12.6ZM139.105 16.952H137.105V18.952H139.105V16.952ZM142.049 16.952H144.049V14.952H142.049V16.952ZM142.049 22.872V24.872H144.049V22.872H142.049ZM139.105 22.872V20.872H137.105V22.872H139.105ZM139.393 28.664L137.979 30.0782L138.016 30.1154L138.055 30.1506L139.393 28.664ZM140.113 28.952V35H144.113V28.952H140.113ZM142.113 33H139.425V37H142.113V33ZM139.425 33C137.257 33 135.998 32.4613 135.268 31.7347C134.54 31.0098 134.001 29.7615 134.001 27.608H130.001C130.001 30.3825 130.7 32.8302 132.446 34.5693C134.191 36.3067 136.644 37 139.425 37V33ZM134.001 27.608V22.872H130.001V27.608H134.001ZM132.001 20.872H129.761V24.872H132.001V20.872ZM131.761 22.872V16.952H127.761V22.872H131.761ZM129.761 18.952H132.001V14.952H129.761V18.952ZM134.001 16.952V12.6H130.001V16.952H134.001ZM132.001 14.6H139.105V10.6H132.001V14.6ZM137.105 12.6V16.952H141.105V12.6H137.105ZM139.105 18.952H142.049V14.952H139.105V18.952ZM140.049 16.952V22.872H144.049V16.952H140.049ZM142.049 20.872H139.105V24.872H142.049V20.872ZM137.105 22.872V27.736H141.105V22.872H137.105ZM137.105 27.736C137.105 28.3992 137.246 29.3448 137.979 30.0782L140.807 27.2498C140.981 27.4236 141.058 27.5994 141.087 27.6952C141.114 27.7823 141.105 27.8082 141.105 27.736H137.105ZM138.055 30.1506C138.808 30.8279 139.749 30.952 140.417 30.952V26.952C140.31 26.952 140.299 26.9401 140.351 26.9547C140.408 26.9707 140.562 27.0253 140.731 27.1774L138.055 30.1506ZM140.417 30.952H142.113V26.952H140.417V30.952ZM148.499 34.104L149.414 32.3257L148.499 34.104ZM145.075 30.904L143.342 31.9019L143.35 31.9175L143.36 31.933L145.075 30.904ZM145.075 21.08L143.353 20.0625L143.348 20.0706L145.075 21.08ZM148.499 17.848L149.414 19.6263V19.6263L148.499 17.848ZM158.291 17.848L157.375 19.6263V19.6263L158.291 17.848ZM161.683 21.08L159.95 22.0779L159.958 22.0935L159.968 22.109L161.683 21.08ZM161.683 30.904L159.961 29.8865L159.956 29.8946L161.683 30.904ZM158.291 34.104L157.375 32.3257L158.291 34.104ZM155.059 28.312L156.564 29.629L156.577 29.6138L156.59 29.5984L155.059 28.312ZM155.059 23.672L153.527 24.9584L153.54 24.9738L153.554 24.989L155.059 23.672ZM151.731 23.672L153.236 24.989L153.249 24.9738L153.262 24.9584L151.731 23.672ZM151.699 28.312L150.137 29.5614L150.165 29.5958L150.194 29.629L151.699 28.312ZM153.395 33.224C151.864 33.224 150.551 32.9111 149.414 32.3257L147.583 35.8823C149.348 36.7903 151.299 37.224 153.395 37.224V33.224ZM149.414 32.3257C148.291 31.7479 147.428 30.9393 146.79 29.875L143.36 31.933C144.385 33.642 145.805 34.9668 147.583 35.8823L149.414 32.3257ZM146.808 29.9061C146.198 28.8461 145.859 27.5582 145.859 25.976H141.859C141.859 28.1485 142.33 30.1459 143.342 31.9019L146.808 29.9061ZM145.859 25.976C145.859 24.3929 146.198 23.1215 146.801 22.0894L143.348 20.0706C142.33 21.8118 141.859 23.8044 141.859 25.976H145.859ZM146.797 22.0975C147.437 21.0132 148.299 20.2 149.414 19.6263L147.583 16.0697C145.797 16.9894 144.376 18.3308 143.353 20.0625L146.797 22.0975ZM149.414 19.6263C150.551 19.0409 151.864 18.728 153.395 18.728V14.728C151.299 14.728 149.348 15.1617 147.583 16.0697L149.414 19.6263ZM153.395 18.728C154.926 18.728 156.238 19.0409 157.375 19.6263L159.206 16.0697C157.442 15.1617 155.49 14.728 153.395 14.728V18.728ZM157.375 19.6263C158.486 20.1977 159.332 21.0048 159.95 22.0779L163.416 20.0821C162.413 18.3392 160.997 16.9916 159.206 16.0697L157.375 19.6263ZM159.968 22.109C160.585 23.1377 160.931 24.402 160.931 25.976H164.931C164.931 23.7954 164.445 21.7956 163.398 20.051L159.968 22.109ZM160.931 25.976C160.931 27.5492 160.585 28.8299 159.961 29.8865L163.405 31.9215C164.444 30.1621 164.931 28.1574 164.931 25.976H160.931ZM159.956 29.8946C159.341 30.9477 158.494 31.7501 157.375 32.3257L159.206 35.8823C160.989 34.9645 162.404 33.6337 163.409 31.9134L159.956 29.8946ZM157.375 32.3257C156.238 32.9111 154.926 33.224 153.395 33.224V37.224C155.49 37.224 157.442 36.7903 159.206 35.8823L157.375 32.3257ZM153.395 31.08C154.651 31.08 155.749 30.5608 156.564 29.629L153.554 26.995C153.522 27.031 153.499 27.0506 153.487 27.0602C153.475 27.0695 153.469 27.072 153.469 27.0721C153.469 27.0721 153.466 27.0733 153.459 27.0749C153.451 27.0766 153.43 27.08 153.395 27.08V31.08ZM156.59 29.5984C157.455 28.5687 157.731 27.2556 157.731 25.976H153.731C153.731 26.7444 153.558 26.9886 153.527 27.0256L156.59 29.5984ZM157.731 25.976C157.731 24.7044 157.458 23.3772 156.564 22.355L153.554 24.989C153.555 24.9908 153.731 25.1996 153.731 25.976H157.731ZM156.59 22.3856C155.785 21.4274 154.682 20.872 153.395 20.872V24.872C153.425 24.872 153.44 24.875 153.442 24.8756C153.445 24.8761 153.443 24.8758 153.44 24.8745C153.438 24.8733 153.443 24.8752 153.455 24.8854C153.469 24.8959 153.493 24.918 153.527 24.9584L156.59 22.3856ZM153.395 20.872C152.108 20.872 151.004 21.4274 150.199 22.3856L153.262 24.9584C153.296 24.918 153.321 24.8959 153.334 24.8854C153.347 24.8752 153.352 24.8733 153.349 24.8745C153.347 24.8758 153.345 24.8761 153.347 24.8756C153.35 24.875 153.365 24.872 153.395 24.872V20.872ZM150.226 22.355C149.331 23.3772 149.059 24.7044 149.059 25.976H153.059C153.059 25.1996 153.234 24.9908 153.236 24.989L150.226 22.355ZM149.059 25.976C149.059 27.2369 149.316 28.5346 150.137 29.5614L153.26 27.0626C153.229 27.0228 153.059 26.7631 153.059 25.976H149.059ZM150.194 29.629C151.023 30.5768 152.138 31.08 153.395 31.08V27.08C153.35 27.08 153.321 27.0758 153.307 27.0728C153.292 27.0699 153.286 27.0671 153.284 27.0661C153.281 27.0651 153.276 27.0622 153.265 27.0541C153.254 27.0456 153.233 27.0279 153.204 26.995L150.194 29.629Z" fill="black" mask="url(#path-3-outside-2_25_13)"/>
</g>
<defs>
<filter id="filter0_d_25_13" x="0.600098" y="10.6001" width="168.331" height="34.624" filterUnits="userSpaceOnUse" color-interpolation-filters="sRGB">
<feFlood flood-opacity="0" result="BackgroundImageFix"/>
<feColorMatrix in="SourceAlpha" type="matrix" values="0 0 0 0 0 0 0 0 0 0 0 0 0 0 0 0 0 0 127 0" result="hardAlpha"/>
<feOffset dy="4"/>
<feGaussianBlur stdDeviation="2"/>
<feComposite in2="hardAlpha" operator="out"/>
<feColorMatrix type="matrix" values="0 0 0 0 0 0 0 0 0 0 0 0 0 0 0 0 0 0 0.25 0"/>
<feBlend mode="normal" in2="BackgroundImageFix" result="effect1_dropShadow_25_13"/>
<feBlend mode="normal" in="SourceGraphic" in2="effect1_dropShadow_25_13" result="shape"/>
</filter>
<filter id="filter1_d_25_13" x="0.600098" y="10.6001" width="168.331" height="34.624" filterUnits="userSpaceOnUse" color-interpolation-filters="sRGB">
<feFlood flood-opacity="0" result="BackgroundImageFix"/>
<feColorMatrix in="SourceAlpha" type="matrix" values="0 0 0 0 0 0 0 0 0 0 0 0 0 0 0 0 0 0 127 0" result="hardAlpha"/>
<feOffset dy="4"/>
<feGaussianBlur stdDeviation="2"/>
<feComposite in2="hardAlpha" operator="out"/>
<feColorMatrix type="matrix" values="0 0 0 0 0 0 0 0 0 0 0 0 0 0 0 0 0 0 0.25 0"/>
<feBlend mode="normal" in2="BackgroundImageFix" result="effect1_dropShadow_25_13"/>
<feBlend mode="normal" in="SourceGraphic" in2="effect1_dropShadow_25_13" result="shape"/>
</filter>
</defs>
</svg>
