<svg width="21" height="20" viewBox="0 0 21 20" fill="none" xmlns="http://www.w3.org/2000/svg">
<path d="M17.8341 8H18.9488C19.2444 8 19.5279 8.10536 19.7369 8.29289C19.946 8.48043 20.0634 8.73478 20.0634 9V19C20.0634 19.2652 19.946 19.5196 19.7369 19.7071C19.5279 19.8946 19.2444 20 18.9488 20H1.11463C0.819015 20 0.535503 19.8946 0.326469 19.7071C0.117434 19.5196 0 19.2652 0 19V9C0 8.73478 0.117434 8.48043 0.326469 8.29289C0.535503 8.10536 0.819015 8 1.11463 8H2.22927V7C2.22927 6.08075 2.43108 5.1705 2.82319 4.32122C3.2153 3.47194 3.79003 2.70026 4.51455 2.05025C5.23907 1.40024 6.09921 0.884626 7.04584 0.532843C7.99248 0.18106 9.00708 0 10.0317 0C11.0563 0 12.0709 0.18106 13.0176 0.532843C13.9642 0.884626 14.8243 1.40024 15.5489 2.05025C16.2734 2.70026 16.8481 3.47194 17.2402 4.32122C17.6323 5.1705 17.8341 6.08075 17.8341 7V8ZM2.22927 10V18H17.8341V10H2.22927ZM8.91707 12H11.1463V16H8.91707V12ZM15.6049 8V7C15.6049 5.67392 15.0177 4.40215 13.9725 3.46447C12.9274 2.52678 11.5098 2 10.0317 2C8.55361 2 7.13605 2.52678 6.09088 3.46447C5.04571 4.40215 4.45854 5.67392 4.45854 7V8H15.6049Z" fill="white"/>
</svg>
